<svg width="709" height="400" viewBox="0 0 709 400" fill="none" xmlns="http://www.w3.org/2000/svg">
<path d="M601.249 17.88H122.059V369.97H601.249V17.88Z" stroke="#DDDDDD" stroke-linecap="round" stroke-linejoin="round"/>
<path d="M616.179 369.97H107.129V386.85H616.179V369.97Z" stroke="#DDDDDD" stroke-width="2" stroke-miterlimit="10"/>
<path d="M488.689 204.95H455.919V283.25H488.689V204.95Z" fill="#DDDDDD"/>
<path d="M574.759 119.53H541.989V283.24H574.759V119.53Z" fill="#DDDDDD"/>
<path d="M588.949 283.24H417.049V63.29" stroke="#DDDDDD" stroke-width="2" stroke-miterlimit="10"/>
<path d="M531.729 184.11H498.959V283.24H531.729V184.11Z" stroke="#DDDDDD" stroke-linecap="round" stroke-linejoin="round"/>
<path d="M201.239 96.53C201.029 98.18 200.869 99.86 200.769 101.53M235.779 101.53C235.679 99.84 235.519 98.16 235.299 96.53L235.779 101.53Z" stroke="#DDDDDD" stroke-width="2" stroke-linecap="round" stroke-linejoin="round"/>
<path d="M261.519 92.8299C252.882 94.7025 244.118 95.9325 235.299 96.5099C233.299 80.6799 226.359 67.0599 218.299 67.0599C210.239 67.0599 203.299 80.6799 201.299 96.5099C192.484 95.9318 183.723 94.7017 175.089 92.8299L173.769 205.99C183.769 208.92 192.409 212.34 206.769 213.6V213.77C210.969 214.01 214.769 214.11 218.349 214.1C221.929 214.09 225.729 214.01 229.939 213.77V213.6C244.279 212.34 252.939 208.92 262.939 205.99L261.519 92.8299ZM218.269 73.4399C223.899 73.4399 228.619 83.8999 229.269 95.1499H207.249C207.919 83.8999 212.649 73.4399 218.269 73.4399V73.4399Z" stroke="#DDDDDD" stroke-width="2" stroke-linecap="round" stroke-linejoin="round"/>
<path d="M616.179 1H107.129V17.88H616.179V1Z" stroke="#DDDDDD" stroke-width="2" stroke-miterlimit="10"/>
<path d="M449.799 187.49L474.279 159.71L495.189 155.61L512.819 123.86L539.129 113.51L565.769 88.59" stroke="#DDDDDD" stroke-linecap="round" stroke-linejoin="round"/>
<path d="M573.639 82.1899L553.589 87.7899L565.949 101.53L573.639 82.1899Z" fill="#DDDDDD"/>
<path d="M312.739 109.97L303.589 97.37C303.404 97.11 303.16 96.8979 302.876 96.7516C302.593 96.6053 302.278 96.5289 301.959 96.5289C301.64 96.5289 301.325 96.6053 301.042 96.7516C300.758 96.8979 300.514 97.11 300.329 97.37L291.179 109.97C290.955 110.269 290.818 110.625 290.786 110.998C290.754 111.371 290.827 111.745 290.997 112.078C291.166 112.411 291.426 112.69 291.747 112.883C292.067 113.076 292.435 113.176 292.809 113.17H294.809C295.339 113.17 295.848 113.381 296.223 113.756C296.598 114.131 296.809 114.64 296.809 115.17V126.47C296.809 127 297.02 127.509 297.395 127.884C297.77 128.259 298.279 128.47 298.809 128.47H305.009C305.539 128.47 306.048 128.259 306.423 127.884C306.798 127.509 307.009 127 307.009 126.47V115.19C307.009 114.66 307.22 114.151 307.595 113.776C307.97 113.401 308.479 113.19 309.009 113.19H311.009C311.395 113.219 311.781 113.135 312.12 112.949C312.459 112.763 312.737 112.483 312.92 112.142C313.103 111.801 313.184 111.415 313.152 111.029C313.119 110.644 312.976 110.276 312.739 109.97Z" fill="#DDDDDD" stroke="#DDDDDD" stroke-miterlimit="10"/>
<path d="M325.569 178.48L310.759 163.7C310.214 163.156 309.785 162.507 309.498 161.793C309.211 161.078 309.071 160.313 309.087 159.544C309.103 158.774 309.274 158.015 309.591 157.314C309.907 156.612 310.362 155.981 310.929 155.46L338.929 129.76C339.956 128.822 341.288 128.289 342.679 128.26L355.389 128C356.157 127.984 356.92 128.123 357.633 128.409C358.346 128.695 358.993 129.122 359.537 129.665C360.08 130.207 360.509 130.854 360.796 131.567C361.083 132.279 361.224 133.042 361.209 133.81L360.969 146.53C360.939 147.923 360.394 149.256 359.439 150.27L333.789 178.27C333.27 178.836 332.643 179.292 331.945 179.61C331.246 179.928 330.491 180.102 329.723 180.122C328.956 180.142 328.193 180.006 327.479 179.724C326.765 179.442 326.115 179.019 325.569 178.48V178.48Z" stroke="#DDDDDD" stroke-width="2" stroke-linecap="round" stroke-linejoin="round"/>
<path d="M338.239 159.82C337.47 160.663 336.462 161.25 335.349 161.5C334.237 161.648 333.108 161.412 332.149 160.83L329.709 163.27C329.675 163.305 329.635 163.333 329.59 163.352C329.545 163.37 329.497 163.38 329.449 163.38C329.402 163.38 329.355 163.37 329.312 163.351C329.269 163.332 329.231 163.305 329.199 163.27L325.959 160.03C325.924 159.998 325.897 159.959 325.878 159.916C325.859 159.873 325.849 159.827 325.849 159.78C325.849 159.733 325.859 159.687 325.878 159.644C325.897 159.6 325.924 159.562 325.959 159.53L328.139 157.34C327.559 156.71 327.049 156.12 326.619 155.57C326.569 155.493 326.547 155.401 326.559 155.31C326.567 155.215 326.609 155.126 326.679 155.06L329.539 152.7C329.578 152.665 329.624 152.64 329.674 152.626C329.725 152.612 329.777 152.61 329.829 152.62C329.934 152.64 330.028 152.701 330.089 152.79C330.239 153.04 330.399 153.28 330.569 153.52C330.739 153.76 330.979 154.08 331.279 154.45C331.543 154.805 331.834 155.139 332.149 155.45C332.403 155.736 332.713 155.967 333.059 156.13C333.298 156.257 333.57 156.306 333.839 156.27C334.025 156.242 334.207 156.188 334.379 156.11C334.495 156.052 334.603 155.978 334.699 155.89C334.799 155.789 334.88 155.67 334.939 155.54C335.029 155.345 335.097 155.141 335.139 154.93C335.191 154.596 335.167 154.254 335.069 153.93C334.948 153.473 334.756 153.037 334.499 152.64C334.173 152.115 333.934 151.541 333.789 150.94C333.635 150.305 333.567 149.653 333.589 149C333.611 148.273 333.781 147.559 334.089 146.9C334.425 146.153 334.896 145.475 335.479 144.9C336.228 144.101 337.219 143.571 338.299 143.39C339.396 143.257 340.508 143.459 341.489 143.97L343.999 141.45C344.032 141.415 344.073 141.387 344.117 141.368C344.162 141.35 344.21 141.34 344.259 141.34C344.307 141.336 344.355 141.343 344.4 141.36C344.445 141.378 344.486 141.405 344.519 141.44L347.759 144.67C347.828 144.743 347.867 144.839 347.867 144.94C347.867 145.041 347.828 145.137 347.759 145.21L345.589 147.39C346.139 148 346.669 148.61 347.169 149.24C347.22 149.317 347.245 149.408 347.239 149.5C347.236 149.547 347.223 149.593 347.201 149.635C347.178 149.676 347.147 149.712 347.109 149.74L344.249 152.1C344.208 152.132 344.161 152.154 344.111 152.166C344.061 152.178 344.009 152.18 343.959 152.17C343.909 152.168 343.861 152.152 343.819 152.126C343.777 152.1 343.743 152.063 343.719 152.02C343.098 151.032 342.377 150.111 341.569 149.27C341.32 148.989 341.018 148.761 340.679 148.6C340.432 148.473 340.153 148.424 339.879 148.46C339.693 148.487 339.512 148.538 339.339 148.61C339.217 148.668 339.105 148.745 339.009 148.84C338.913 148.939 338.835 149.054 338.779 149.18C338.688 149.374 338.624 149.579 338.589 149.79C338.541 150.125 338.569 150.467 338.669 150.79C338.789 151.247 338.982 151.683 339.239 152.08C339.545 152.613 339.777 153.184 339.929 153.78C340.092 154.417 340.162 155.073 340.139 155.73C340.109 156.454 339.935 157.164 339.629 157.82C339.288 158.564 338.818 159.242 338.239 159.82Z" fill="#DDDDDD"/>
<path d="M374.939 191.14V198.95C374.939 200.59 379.659 201.95 385.489 201.95C391.319 201.95 396.049 200.62 396.049 198.95V191.14H374.939Z" fill="#F9F9F9" stroke="#DDDDDD" stroke-linecap="round" stroke-linejoin="round"/>
<path d="M374.939 183.53V191.34C374.939 192.98 379.659 194.34 385.489 194.34C391.319 194.34 396.049 193.01 396.049 191.34V183.53H374.939Z" fill="#F9F9F9" stroke="#DDDDDD" stroke-linecap="round" stroke-linejoin="round"/>
<path d="M374.939 175.92V183.73C374.939 185.37 379.659 186.73 385.489 186.73C391.319 186.73 396.049 185.4 396.049 183.73V175.92H374.939Z" fill="#F9F9F9" stroke="#DDDDDD" stroke-linecap="round" stroke-linejoin="round"/>
<path d="M374.939 168.27V176.08C374.939 177.72 379.659 179.08 385.489 179.08C391.319 179.08 396.049 177.75 396.049 176.08V168.27H374.939Z" fill="#F9F9F9" stroke="#DDDDDD" stroke-linecap="round" stroke-linejoin="round"/>
<path d="M374.939 160.71V168.52C374.939 170.16 379.659 171.52 385.489 171.52C391.319 171.52 396.049 170.19 396.049 168.52V160.71H374.939Z" fill="#F9F9F9" stroke="#DDDDDD" stroke-linecap="round" stroke-linejoin="round"/>
<path d="M374.939 153.1V160.91C374.939 162.55 379.659 163.91 385.489 163.91C391.319 163.91 396.049 162.58 396.049 160.91V153.1H374.939Z" fill="#F9F9F9" stroke="#DDDDDD" stroke-linecap="round" stroke-linejoin="round"/>
<path d="M396.049 153.1C396.049 154.74 391.319 156.1 385.489 156.1C379.659 156.1 374.939 154.77 374.939 153.1C374.939 151.43 379.659 150.1 385.489 150.1C391.319 150.1 396.049 151.46 396.049 153.1Z" fill="#F9F9F9" stroke="#DDDDDD" stroke-linecap="round" stroke-linejoin="round"/>
<path d="M353.519 195.37V203.18C353.519 204.82 358.249 206.18 364.069 206.18C369.889 206.18 374.629 204.85 374.629 203.18V195.37H353.519Z" fill="#F9F9F9" stroke="#DDDDDD" stroke-linecap="round" stroke-linejoin="round"/>
<path d="M353.519 187.76V195.57C353.519 197.21 358.249 198.57 364.069 198.57C369.889 198.57 374.629 197.24 374.629 195.57V187.76H353.519Z" fill="#F9F9F9" stroke="#DDDDDD" stroke-linecap="round" stroke-linejoin="round"/>
<path d="M353.519 180.15V187.96C353.519 189.6 358.249 190.96 364.069 190.96C369.889 190.96 374.629 189.63 374.629 187.96V180.15H353.519Z" fill="#F9F9F9" stroke="#DDDDDD" stroke-linecap="round" stroke-linejoin="round"/>
<path d="M353.519 172.54V180.35C353.519 181.99 358.249 183.35 364.069 183.35C369.889 183.35 374.629 182.02 374.629 180.35V172.54H353.519Z" fill="#F9F9F9" stroke="#DDDDDD" stroke-linecap="round" stroke-linejoin="round"/>
<path d="M374.629 172.54C374.629 174.19 369.899 175.54 364.069 175.54C358.239 175.54 353.519 174.21 353.519 172.54C353.519 170.87 358.249 169.54 364.069 169.54C369.889 169.54 374.629 170.9 374.629 172.54Z" fill="#F9F9F9" stroke="#DDDDDD" stroke-linecap="round" stroke-linejoin="round"/>
<path d="M129.698 245.69C129.698 251.78 123.698 260.93 113.928 259.46C104.158 257.99 92.3281 250.57 93.7781 233.23C94.1981 228.17 99.9781 196.53 100.908 189.53C102.358 178.72 129.478 169.66 128.288 197.39C128.288 198.23 128.218 199.05 128.188 199.87C127.988 205.79 127.978 211.22 128.088 216.14C128.438 230.72 129.698 240.81 129.698 245.69Z" fill="#B25E47"/>
<path d="M128.088 216.14C119.628 216.08 113.088 210.3 113.998 200.71L128.188 199.87C127.988 205.79 127.978 211.27 128.088 216.14Z" fill="#914839"/>
<path d="M182.098 327.83L186.938 399.54H141.208L149.498 318.99L138.498 289.61L118.878 251.88C120.263 247.49 121.355 243.014 122.148 238.48V238.48L130.878 222.91C132.306 222.247 133.768 221.659 135.258 221.15L135.448 221.09H135.628C140.938 219.29 149.998 217.09 159.148 218.74C166.798 220.13 173.148 223.07 178.258 231.14C183.988 240.21 188.118 255.76 190.678 282.87C193.378 311 186.268 323.5 182.098 327.83Z" fill="#55737D"/>
<path d="M178.288 231.05C170.798 234.32 164.078 240.73 160.728 252.57C159.003 258.706 156.626 264.64 153.638 270.27C149.85 277.618 144.718 284.192 138.508 289.65L118.888 251.92C120.272 247.53 121.365 243.054 122.158 238.52C122.518 237.73 128.278 225.09 129.678 222.59C132.278 221.97 134.238 221.48 135.268 221.2L135.458 221.14H135.638C140.948 219.34 150.008 217.14 159.158 218.79C166.828 220.04 173.188 222.98 178.288 231.05Z" fill="#55737D"/>
<path d="M163.308 399.54H88.5884V373.47H161.728L163.308 399.54Z" fill="#96A3AB"/>
<path d="M157.308 373.47H91.6683C91.6683 373.47 78.9483 310.57 81.2883 267.03C81.9483 254.63 83.8283 243.8 87.5783 236.44C88.6281 234.289 90.0081 232.315 91.6683 230.59C93.2483 230.31 94.9883 229.99 96.8383 229.59C99.8383 232.98 105.678 237.7 113.928 242.49C113.928 242.49 116.868 250.81 118.928 251.84C120.988 252.87 122.198 238.44 122.198 238.44C122.558 237.65 128.318 225.01 129.718 222.51C132.488 221.85 134.538 221.34 135.498 221.06H135.678C135.678 221.06 136.678 224.49 138.308 229.51C140.908 237.51 145.078 249.56 149.308 258.18C151.157 262.053 152.607 266.104 153.638 270.27C156.638 282.02 156.918 296.18 154.118 314.66C153.918 315.99 153.748 317.34 153.608 318.66C151.018 343.33 157.308 373.47 157.308 373.47Z" fill="white"/>
<path d="M153.639 270.27C149.85 277.618 144.718 284.192 138.509 289.65C125.849 300.35 110.759 301.75 98.8786 286C95.8786 282 93.0086 278.48 90.1786 275.39C87.4706 272.356 84.4953 269.571 81.2886 267.07C81.9486 254.67 83.8286 243.84 87.5786 236.48C88.6283 234.329 90.0084 232.355 91.6686 230.63C93.2486 230.35 94.9886 230.03 96.8386 229.63C99.8386 233.02 105.679 237.74 113.929 242.53C113.929 242.53 116.869 250.85 118.929 251.88C120.313 247.49 121.405 243.014 122.199 238.48V238.48C122.559 237.69 128.319 225.05 129.719 222.55C132.489 221.89 134.539 221.38 135.499 221.1H135.679C135.679 221.1 136.679 224.53 138.309 229.55C140.909 237.55 145.079 249.6 149.309 258.22C151.154 262.081 152.605 266.118 153.639 270.27V270.27Z" fill="#F9F9F9"/>
<path d="M144.229 246.35C145.829 250.51 147.539 254.6 149.229 258.12C151.108 262.009 152.586 266.081 153.639 270.27C155.579 278.291 156.38 286.546 156.019 294.79" stroke="#415A62" stroke-width="0.75" stroke-linecap="round" stroke-linejoin="round"/>
<path d="M101.519 399.54H52.1986C52.0386 381.65 51.7086 367.94 50.7186 356.21C49.753 342.695 47.0852 329.357 42.7786 316.51C35.3386 294.18 35.8786 274.32 40.2986 259.92C42.8286 251.64 46.6486 245.17 50.9786 241.05C51.9603 240.161 53.0568 239.408 54.2386 238.81V238.81C65.4486 232.91 91.6486 230.59 91.6486 230.59C88.4086 237.36 88.7386 255.59 90.1586 275.35C91.7486 297.35 94.6786 321.35 95.4986 333.44C96.0886 342.2 97.4986 357.67 98.9686 373.44C99.8486 382.45 100.729 391.53 101.519 399.54Z" fill="#55737D"/>
<path d="M90.1783 275.35C87.4703 272.316 84.495 269.531 81.2883 267.03C80.5883 266.49 79.8783 265.97 79.1683 265.5C68.8483 258.43 57.4283 256.8 40.2983 259.92C38.3683 260.26 36.3683 260.68 34.2983 261.15C41.2083 249.06 48.2183 240.15 54.2983 238.81C65.5083 232.91 91.7083 230.59 91.7083 230.59C88.4383 237.36 88.7583 255.58 90.1783 275.35Z" fill="#55737D"/>
<path d="M113.928 242.53C103.718 239.67 95.6883 253.89 95.6883 253.89C91.6169 248.813 88.8344 242.826 87.5783 236.44C87.1705 234.681 87.0456 232.868 87.2083 231.07C87.8483 226.86 93.2083 223.57 94.7083 226.68C95.2833 227.754 95.9997 228.746 96.8382 229.63C99.8682 233.02 105.678 237.74 113.928 242.53Z" fill="#DFC081"/>
<path d="M138.288 229.45C138.118 235.68 137.558 242.68 137.558 242.68C130.028 236.81 125.848 236.68 122.158 238.48L128.288 222.27C130.618 218.12 137.848 217.76 138.228 222.68C138.358 224.4 138.358 226.86 138.288 229.45Z" fill="#DFC081"/>
<path d="M113.928 242.53C113.928 242.53 116.868 250.85 118.928 251.88C119.588 249.68 122.198 238.48 122.198 238.48" stroke="#DDDDDD" stroke-linecap="round" stroke-linejoin="round"/>
<path d="M118.888 251.88C118.888 251.88 127.118 271.63 130.888 284.76C134.658 297.89 137.248 310.34 136.418 327.2C135.588 344.06 133.788 359.41 134.208 361.2C134.628 362.99 140.288 367.75 131.998 373.46" stroke="#DDDDDD" stroke-linecap="round" stroke-linejoin="round"/>
<path d="M171.438 335.65C163.298 335.24 154.768 325.7 147.798 315.19C142.055 306.311 137.023 296.992 132.748 287.32L144.338 270.84C159.628 280.3 182.888 295.31 189.228 305.32C189.692 306.029 190.083 306.783 190.398 307.57C195.018 319.59 192.438 336.7 171.438 335.65Z" fill="#55737D"/>
<path d="M171.438 335.65C163.298 335.24 154.768 325.7 147.798 315.19C154.288 313.74 162.878 317.44 164.588 323.28C167.688 333.87 192.268 328.86 189.228 305.28C189.691 305.989 190.083 306.743 190.398 307.53C195.018 319.59 192.438 336.7 171.438 335.65Z" fill="#55737D"/>
<path d="M190.368 307.57C190.053 306.783 189.661 306.029 189.198 305.32C182.858 295.32 159.598 280.32 144.308 270.84L132.718 287.32C136.993 296.992 142.025 306.311 147.768 315.19C154.768 325.7 163.268 335.24 171.408 335.65" stroke="#415A62" stroke-width="0.75" stroke-linecap="round" stroke-linejoin="round"/>
<path d="M121.818 276.93L117.438 284.27L122.568 283.81C122.568 283.81 160.128 251.71 160.708 250.61C161.288 249.51 158.138 246.04 157.098 246.42C156.058 246.8 121.818 276.93 121.818 276.93Z" fill="#96A3AB"/>
<path d="M121.818 276.93C122.538 272.74 122.458 271.29 123.108 270.41C123.758 269.53 130.428 264.53 132.038 263.97C133.648 263.41 137.758 265.42 137.758 265.42C137.758 265.42 140.898 265.82 142.828 266.14C144.758 266.46 144.618 271.03 145.878 271.81C147.138 272.59 148.708 272.17 149.678 274.19C150.648 276.21 148.948 277.57 149.678 278.86C150.408 280.15 152.248 280.95 151.678 283.21C151.108 285.47 149.988 285.46 150.308 286.75C150.628 288.04 151.918 291.58 147.648 292.95C143.378 294.32 140.258 295.31 137.908 294.4C135.558 293.49 132.768 291.9 132.368 290.4C132.368 290.4 127.368 289.66 125.268 285.63C125.268 285.63 119.878 284.02 123.818 281.29C123.818 281.29 121.888 279.35 123.098 277.74L121.818 276.93Z" fill="#B25E47"/>
<path d="M137.918 294.4C135.568 293.48 132.778 291.9 132.378 290.4C132.378 290.4 127.378 289.66 125.278 285.63C125.278 285.63 119.888 284.02 123.828 281.29C123.828 281.29 121.898 279.35 123.108 277.74L121.818 276.94C122.538 272.75 122.458 271.3 123.108 270.42" stroke="#914839" stroke-width="0.75" stroke-linecap="round" stroke-linejoin="round"/>
<path d="M123.108 277.73C128.488 272.83 138.108 265.73 141.608 265.95" stroke="#914839" stroke-width="0.75" stroke-linecap="round" stroke-linejoin="round"/>
<path d="M123.828 281.27C131.958 280.9 138.768 277.36 143.508 273.96" stroke="#914839" stroke-width="0.75" stroke-linecap="round" stroke-linejoin="round"/>
<path d="M125.278 285.62C128.998 287.17 142.968 283.18 146.418 279.8" stroke="#914839" stroke-width="0.75" stroke-linecap="round" stroke-linejoin="round"/>
<path d="M132.378 290.39C134.278 290.76 141.668 290.12 145.468 287.57" stroke="#914839" stroke-width="0.75" stroke-linecap="round" stroke-linejoin="round"/>
<path d="M79.168 265.5C78.9372 270.571 78.1491 275.602 76.818 280.5L75.868 284.11C75.718 284.7 75.558 285.3 75.388 285.92C74.9413 287.6 74.468 289.357 73.968 291.19L73.668 292.28C73.068 294.45 72.428 296.73 71.758 299.07C71.538 299.86 71.308 300.65 71.078 301.44C69.458 307.02 67.648 312.96 65.668 318.98C65.388 319.84 65.098 320.71 64.808 321.57C63.408 325.71 61.938 329.88 60.388 333.99C60.058 334.87 59.728 335.74 59.388 336.6L58.388 339.18C58.118 339.86 57.848 340.53 57.568 341.18C55.418 346.44 53.128 351.5 50.738 356.18L50.488 356.66C42.558 371.9 33.398 382.59 23.488 381.47C15.218 380.55 9.698 377.28 6.088 372.88C0.708001 366.27 -0.352 357.12 0.167999 349.52C0.333034 346.96 0.690713 344.416 1.238 341.91C3.088 333.54 18.478 288.91 34.378 261.16C41.288 249.07 48.298 240.16 54.378 238.82C68.558 235.65 79.888 245.27 79.168 265.5Z" fill="#55737D"/>
<path d="M79.1683 265.5C68.8483 258.43 57.4283 256.8 40.2983 259.92C38.3683 260.26 36.3683 260.68 34.2983 261.15C41.2083 249.06 48.2183 240.15 54.2983 238.81C68.5583 235.65 79.8883 245.27 79.1683 265.5Z" fill="#55737D"/>
<path d="M79.1683 265.5C78.9375 270.571 78.1494 275.601 76.8183 280.5C72.0283 298.82 62.8183 332.71 50.7183 356.16" stroke="#415A62" stroke-width="0.75" stroke-linecap="round" stroke-linejoin="round"/>
<path d="M50.4382 356.69C42.5082 371.93 33.3482 382.62 23.4382 381.5C15.1682 380.58 9.64819 377.31 6.03819 372.91C0.658193 366.3 -0.401805 357.15 0.118195 349.55C1.37657 349.789 2.58858 350.228 3.7082 350.85C8.9182 353.72 12.3382 360.12 16.3482 364.78C25.4382 375.27 36.8982 357.77 50.4382 356.69Z" fill="#55737D"/>
<path d="M102.358 149.49L88.998 164.08C72.788 161.99 68.188 151.08 70.858 141.76C70.958 141.43 71.068 141.09 71.198 140.76C74.978 131.7 93.678 126.35 100.308 141.54C101.382 144.074 102.073 146.753 102.358 149.49V149.49Z" fill="#7F542D"/>
<path d="M102.358 149.49L88.998 164.08C72.788 161.99 68.188 151.08 70.858 141.76C70.958 141.43 71.068 141.09 71.198 140.76C73.908 151.81 81.198 156.35 84.908 149.13C88.248 142.68 95.038 140.21 100.308 141.54C101.382 144.074 102.073 146.753 102.358 149.49V149.49Z" fill="#683F1D"/>
<path d="M126.438 152C126.438 152 108.278 188.2 95.2679 183C92.4027 181.871 89.9333 179.924 88.1679 177.4C82.8579 169.84 84.3479 158.16 90.4279 152.62C95.4846 148.047 101.719 144.978 108.428 143.76C114.198 136.35 125.948 133.89 130.428 138.89C130.528 138.99 130.618 139.1 130.708 139.21C134.908 144.59 130.888 149.38 126.438 152Z" fill="#7F542D"/>
<path d="M126.438 152C126.438 152 108.278 188.2 95.268 183C92.4027 181.871 89.9333 179.924 88.168 177.4C94.168 177.74 98.168 176.28 98.888 171.46C99.888 164.74 101.358 150.63 101.358 150.63C101.358 150.63 123.148 151.31 130.358 138.89C130.458 138.99 130.548 139.1 130.638 139.21C134.908 144.59 130.888 149.38 126.438 152Z" fill="#683F1D"/>
<path d="M130.438 205.44C120.848 207.88 109.618 201.78 102.388 195.11C98.3881 197.11 91.1981 192.73 91.7181 186.89C92.2981 180.55 97.0081 179.49 100.348 181.69C101.368 180.963 102.235 180.042 102.898 178.98C104.174 176.872 104.929 174.489 105.098 172.03C106.038 162.47 101.378 150.59 101.378 150.59C105.049 153.041 109.309 154.464 113.716 154.712C118.123 154.96 122.516 154.024 126.438 152C126.658 152 133.438 162.79 137.108 174C137.528 175.29 137.908 176.58 138.228 177.87C138.656 179.601 138.99 181.353 139.228 183.12C140.778 193.68 138.658 203.34 130.438 205.44Z" fill="#B25E47"/>
<path d="M118.898 171.42C118.898 171.699 118.981 171.972 119.136 172.203C119.291 172.435 119.511 172.616 119.768 172.723C120.026 172.83 120.31 172.857 120.583 172.803C120.857 172.749 121.108 172.614 121.305 172.417C121.502 172.22 121.636 171.969 121.691 171.695C121.745 171.422 121.717 171.138 121.611 170.881C121.504 170.623 121.323 170.403 121.091 170.248C120.859 170.093 120.587 170.01 120.308 170.01C119.934 170.01 119.575 170.159 119.311 170.423C119.047 170.688 118.898 171.046 118.898 171.42V171.42Z" fill="#683F1D"/>
<path d="M128.288 168.78C128.288 169.059 128.371 169.332 128.526 169.563C128.681 169.795 128.901 169.976 129.158 170.083C129.416 170.19 129.7 170.217 129.973 170.163C130.247 170.109 130.498 169.974 130.695 169.777C130.892 169.58 131.027 169.329 131.081 169.055C131.135 168.782 131.107 168.498 131.001 168.241C130.894 167.983 130.713 167.763 130.481 167.608C130.25 167.453 129.977 167.37 129.698 167.37C129.324 167.37 128.965 167.519 128.701 167.783C128.437 168.048 128.288 168.406 128.288 168.78V168.78Z" fill="#683F1D"/>
<path d="M103.718 197.4C105.69 197.4 107.288 195.802 107.288 193.83C107.288 191.858 105.69 190.26 103.718 190.26C101.746 190.26 100.148 191.858 100.148 193.83C100.148 195.802 101.746 197.4 103.718 197.4Z" fill="#DFC081"/>
<path d="M108.848 165.6C109.638 167.32 118.108 163.76 116.128 160.49C114.518 157.85 107.668 163.08 108.848 165.6Z" fill="#7F542D"/>
<path d="M122.898 159.07C122.598 161.45 129.328 161.02 129.278 159.31C129.228 157.6 123.288 155.95 122.898 159.07Z" fill="#7F542D"/>
<path d="M102.868 187.35C99.1881 184.27 96.3381 185.94 95.5181 188.54" stroke="#914839" stroke-width="0.75" stroke-linecap="round" stroke-linejoin="round"/>
<path d="M100.438 191.27C97.5979 190.03 98.9079 185.86 102.368 186.92" stroke="#914839" stroke-width="0.75" stroke-linecap="round" stroke-linejoin="round"/>
<path d="M118.498 182.18C119.663 183.26 121.077 184.036 122.614 184.439C124.15 184.841 125.763 184.859 127.308 184.49" stroke="#914839" stroke-width="0.75" stroke-linecap="round" stroke-linejoin="round"/>
<path d="M125.008 167.37C125.008 171.97 127.908 174.03 130.418 174.57C130.793 174.675 131.14 174.861 131.435 175.114C131.731 175.368 131.968 175.682 132.13 176.036C132.292 176.39 132.374 176.775 132.372 177.164C132.37 177.554 132.283 177.938 132.118 178.29" stroke="#914839" stroke-width="0.75" stroke-linecap="round" stroke-linejoin="round"/>
<path d="M115.838 180.27C114.838 182.76 110.788 183.46 106.838 181.83C105.304 181.213 103.934 180.248 102.838 179.01C104.114 176.902 104.868 174.519 105.038 172.06C106.926 171.789 108.852 172.052 110.598 172.82C114.538 174.42 116.868 177.75 115.838 180.27Z" fill="#914839"/>
<path d="M139.248 183.11C137.198 183.45 135.388 182.96 134.478 181.64C133.098 179.64 134.268 176.37 137.098 173.99C137.518 175.28 137.898 176.57 138.218 177.86C138.656 179.59 139 181.343 139.248 183.11V183.11Z" fill="#914839"/>
<path d="M124.178 364.74H60.8482L43.8682 273.97H107.208L124.178 364.74Z" fill="#F9F9F9" stroke="#DDDDDD" stroke-linecap="round" stroke-linejoin="round"/>
<path d="M87.2382 269.41H80.4382C80.4324 269.121 80.4023 268.834 80.3482 268.55C80.0108 266.95 79.1486 265.508 77.8986 264.454C76.6486 263.4 75.0823 262.793 73.4482 262.73C72.7218 262.704 71.9994 262.848 71.3377 263.148C70.6761 263.449 70.0931 263.899 69.6347 264.463C69.1763 265.027 68.855 265.69 68.696 266.399C68.5369 267.108 68.5445 267.844 68.7182 268.55C68.7783 268.842 68.8584 269.129 68.9582 269.41H62.1382L63.9882 279.31H89.0882L87.2382 269.41Z" fill="#DDDDDD"/>
<path d="M77.175 270.961C78.2796 269.748 77.9901 267.686 76.5284 266.354C75.0667 265.023 72.9864 264.926 71.8818 266.139C70.7773 267.352 71.0668 269.414 72.5284 270.745C73.9901 272.077 76.0705 272.173 77.175 270.961Z" fill="#F9F9F9" stroke="#DDDDDD" stroke-linecap="round" stroke-linejoin="round"/>
<path d="M77.3081 313.68C83.3081 310.63 86.9181 309.86 87.7881 308.55C88.6581 307.24 100.128 298.49 103.188 297.24C106.248 295.99 111.508 299.1 111.508 299.1C111.508 299.1 116.508 296.58 118.888 297.24C121.268 297.9 123.108 302.65 119.158 306.69C116.438 309.48 121.938 310.58 119.788 313.69C118.788 315.11 121.208 315.77 120.878 318.94C120.548 322.11 118.968 322.43 119.158 323.74C119.348 325.05 120.158 328.44 116.948 329.74C113.738 331.04 98.5981 334 96.1981 334.32C93.7981 334.64 81.9981 342.95 81.9981 342.95L77.3081 313.68Z" fill="#B25E47"/>
<path d="M111.509 299.1L102.749 303.27" stroke="#914839" stroke-width="0.75" stroke-linecap="round" stroke-linejoin="round"/>
<path d="M103.188 297.27C106.248 296.02 111.508 299.13 111.508 299.13C111.508 299.13 116.508 296.61 118.888 297.27C121.268 297.93 123.108 302.68 119.158 306.72C116.438 309.51 121.938 310.61 119.788 313.72C118.788 315.14 121.208 315.8 120.878 318.97C120.548 322.14 118.968 322.46 119.158 323.77C119.348 325.08 120.158 328.47 116.948 329.77" stroke="#914839" stroke-width="0.75" stroke-linecap="round" stroke-linejoin="round"/>
<path d="M90.9483 346.2C81.4383 353.54 72.9483 359.58 65.4383 364.47C28.8583 388.27 13.9883 384.99 6.02833 372.91C6.00493 372.883 5.98479 372.852 5.96832 372.82C0.528325 364.47 0.338324 357.23 3.69832 350.82C11.8783 335.25 41.1483 324.76 66.8183 315.61C71.7483 313.85 76.5383 312.14 81.0283 310.46L90.9483 346.2Z" fill="#55737D"/>
<path d="M65.4383 364.47C28.8583 388.27 13.9883 384.99 6.02833 372.91C6.00493 372.883 5.98479 372.852 5.96832 372.82C0.528325 364.47 0.338324 357.23 3.69832 350.82C8.90832 353.69 12.3283 360.09 16.3383 364.75C25.4383 375.27 36.8983 357.77 50.4383 356.69C54.4383 356.36 58.6083 357.46 62.9483 361.12C64.0564 362 64.9148 363.155 65.4383 364.47V364.47Z" fill="#55737D"/>
<path d="M40.8584 377.93C49.44 374.192 57.6667 369.687 65.4384 364.47C72.9784 359.58 81.4384 353.54 90.9484 346.2L80.9984 310.45" stroke="#415A62" stroke-width="0.75" stroke-linecap="round" stroke-linejoin="round"/>
<path d="M80.9982 310.45C58.8882 318.76 29.2982 327.62 13.1582 340.19" stroke="#415A62" stroke-width="0.75" stroke-linecap="round" stroke-linejoin="round"/>
<path d="M706.828 233.27C705.934 232.79 705.016 232.356 704.078 231.97C701.768 230.989 699.352 230.277 696.878 229.85C688.038 228.28 678.938 230.35 669.398 234.5C660.738 238.26 651.718 243.74 642.208 249.77C642.024 248.281 641.93 246.781 641.928 245.28C641.928 226.21 656.928 210.74 675.418 210.74C682.336 210.805 689.066 213.004 694.688 217.036C700.309 221.068 704.549 226.738 706.828 233.27V233.27Z" fill="#55737D"/>
<path d="M697.308 241.27C696.778 246.76 694.508 259.5 691.368 275.66C690.858 278.31 690.368 281.05 689.758 283.86C682.018 322.98 670.508 376.59 665.568 399.5H530.438L540.498 341.56C540.498 341.56 506.788 333.98 499.958 321.22C491.148 304.76 495.958 292.15 506.158 274.89C513.558 262.33 528.338 233.78 539.848 215.77C544.168 209 548.028 203.77 550.848 201.34C565.758 188.79 581.148 193.68 595.278 197.34C595.278 197.34 595.278 200.34 595.438 205.21C595.528 209.16 595.658 214.35 595.838 220.21C596.148 230.52 596.618 242.93 597.288 254.37C597.408 256.37 597.528 258.37 597.658 260.37C598.658 274.84 599.938 286.71 601.718 289.05C602.168 289.64 602.848 289.48 603.718 288.7C606.248 286.38 610.378 278.64 614.978 268.75C616.368 265.75 617.788 262.62 619.228 259.36C627.048 241.6 635.228 220.75 638.998 211.1C640.188 208.04 640.928 206.1 641.058 205.75C641.056 205.73 641.056 205.71 641.058 205.69L643.798 206.06L649.698 206.87C654.828 207.57 661.848 208.55 669.698 209.7C671.698 209.99 673.568 210.33 675.428 210.77C684.278 212.83 691.838 216.77 695.378 225.01C696.049 226.577 696.555 228.209 696.888 229.88C697.597 233.634 697.739 237.474 697.308 241.27Z" fill="#55737D"/>
<path d="M696.878 229.89C688.038 228.32 678.938 230.39 669.398 234.54C660.738 238.3 651.718 243.78 642.208 249.81L639.208 251.72C631.978 256.33 625.298 258.67 619.208 259.37C629.508 235.99 640.438 207.27 641.048 205.76C641.046 205.74 641.046 205.72 641.048 205.7L649.688 206.88C654.818 207.58 661.838 208.56 669.688 209.71C671.688 210 673.558 210.34 675.418 210.78C684.268 212.84 691.828 216.78 695.368 225.02C696.039 226.587 696.545 228.219 696.878 229.89V229.89Z" fill="#55737D"/>
<path d="M540.498 341.6C553.768 345.14 581.008 351.55 581.008 351.55" stroke="#415A62" stroke-width="0.75" stroke-linecap="round" stroke-linejoin="round"/>
<path d="M556.108 248.72L549.438 294.27C539.998 289.73 535.818 288.46 531.718 289.03C531.068 280.08 551.198 288.33 547.128 270.27C544.648 259.27 549.628 251.27 556.108 248.72Z" fill="#415A62"/>
<path d="M549.438 294.27L556.108 248.72L557.198 241.26" stroke="#415A62" stroke-width="0.75" stroke-linecap="round" stroke-linejoin="round"/>
<path d="M526.778 290.39C535.868 287.07 538.138 288.39 568.998 304.14" stroke="#415A62" stroke-width="0.75" stroke-linecap="round" stroke-linejoin="round"/>
<path d="M595.278 197.38C595.278 197.38 595.768 228.38 597.278 254.38C586.788 248.05 579.868 237.38 576.988 230.79C572.728 221.08 564.648 209.13 539.828 215.79C544.148 209.02 548.008 203.79 550.828 201.36C565.758 188.83 581.148 193.72 595.278 197.38Z" fill="#55737D"/>
<path d="M649.068 235.67C648.248 236.81 630.518 247.38 630.848 248.85C631.178 250.32 634.098 256.33 634.098 257.47C634.098 258.19 623.198 271.76 614.378 280.83C609.288 286.09 604.888 289.83 603.708 288.71C600.998 286.13 625.038 224.02 632.778 204.27L641.068 205.7L649.708 206.88C648.968 221.14 649.788 234.67 649.068 235.67Z" fill="#415A62"/>
<path d="M641.068 205.7C641.066 205.72 641.066 205.74 641.068 205.76C640.558 207.76 627.958 256.83 614.398 280.83C610.158 288.35 605.828 293.41 601.738 293.83C584.328 295.48 595.298 197.42 595.298 197.42C601.758 198.87 621.458 202.34 632.798 204.31L641.068 205.7Z" fill="white"/>
<path d="M637.798 201.38C635.888 207.07 618.608 219.5 608.008 213.51C601.898 210.05 600.778 203.69 602.378 193.18C603.148 188.03 604.588 181.88 606.378 174.59C607.288 170.94 608.298 167.01 609.378 162.78C611.948 152.6 617.938 146.24 628.838 148.13C639.738 150.02 639.148 160.65 638.838 172.13C638.528 183.61 639.708 195.7 637.798 201.38Z" fill="#B25E47"/>
<path d="M623.888 172.77C623.068 183.44 618.368 195.04 602.378 193.18C603.148 188.03 604.588 181.88 606.378 174.59L623.888 172.77Z" fill="#914839"/>
<path d="M603.708 211.37C604.158 221.77 604.268 225.02 605.278 225.57C606.288 226.12 610.868 227.36 612.098 226.57C613.328 225.78 620.358 214.19 620.358 214.19C620.358 214.19 611.988 208.46 603.708 211.37Z" fill="#415A62"/>
<path d="M611.438 221.64C612.888 239.69 615.948 282.64 616.388 285.98C616.828 289.32 603.138 303.45 601.758 301.7C600.378 299.95 593.388 287.06 593.388 283.24C593.388 279.42 606.048 220.91 606.048 220.91L611.438 221.64Z" fill="#415A62"/>
<path d="M611.188 209.32C618.848 208.53 636.438 197.56 638.728 196.08C641.018 194.6 644.068 204.74 643.808 206.74C643.548 208.74 621.248 223.5 621.248 223.5C621.248 223.5 615.708 212.29 610.798 212.16C605.888 212.03 598.538 223.5 598.538 223.5C589.218 215.11 595.418 200.67 601.798 198.35C601.798 198.35 608.088 209.64 611.188 209.32Z" fill="#DFC081"/>
<path d="M591.778 360.34L584.938 399.54" stroke="#415A62" stroke-width="0.75" stroke-linecap="round" stroke-linejoin="round"/>
<path d="M648.178 132.12C646.936 133.976 645.243 135.487 643.258 136.512C641.273 137.537 639.061 138.042 636.828 137.98C628.828 137.85 621.148 131.51 621.148 131.51C621.148 131.51 614.148 124.41 614.908 118.11C615.141 116.303 616.036 114.647 617.418 113.46C623.418 108.06 632.778 113.09 636.228 118.87C639.678 124.65 640.718 124.61 644.678 124.66C648.118 124.7 649.628 128.62 648.178 132.12Z" fill="#683F1D"/>
<path d="M636.828 137.98C628.828 137.85 621.148 131.51 621.148 131.51C621.148 131.51 614.148 124.41 614.908 118.11C622.758 116.25 632.308 118.45 638.318 124.57C643.108 129.45 640.078 134.6 636.828 137.98Z" fill="#683F1D"/>
<path d="M625.658 126.66C620.878 120.51 621.718 113.49 626.788 111.66" stroke="#7F542D" stroke-width="0.75" stroke-linecap="round" stroke-linejoin="round"/>
<path d="M632.028 130.27C627.248 124.13 628.088 117.1 633.158 115.27" stroke="#7F542D" stroke-width="0.75" stroke-linecap="round" stroke-linejoin="round"/>
<path d="M642.898 145.2C641.659 147.948 640.256 150.619 638.698 153.2C636.581 156.809 634.152 160.225 631.438 163.41C626.438 169.19 619.918 174.26 612.328 174.91C594.108 176.47 594.958 163.6 595.538 159.7C595.538 159.61 595.538 159.53 595.538 159.45C595.538 159.37 599.488 151.32 603.878 143.31C606.078 139.181 608.502 135.175 611.138 131.31C616.988 123.15 625.058 121.47 633.038 124.84C641.018 128.21 641.918 133.05 642.898 145.2Z" fill="#B25E47"/>
<path d="M638.698 153.27C636.578 156.855 634.148 160.248 631.438 163.41H630.918C629.406 163.413 627.923 162.992 626.638 162.195C625.353 161.398 624.316 160.258 623.645 158.902C622.975 157.547 622.697 156.031 622.843 154.526C622.99 153.021 623.555 151.586 624.474 150.386C625.393 149.185 626.63 148.266 628.045 147.732C629.46 147.198 630.996 147.071 632.479 147.365C633.963 147.658 635.334 148.362 636.439 149.395C637.543 150.428 638.336 151.75 638.728 153.21L638.698 153.27Z" fill="#914839"/>
<path d="M606.698 150.13C606.698 152.698 605.679 155.161 603.864 156.978C602.049 158.795 599.587 159.817 597.018 159.82C596.513 159.821 596.008 159.781 595.508 159.7C595.508 159.61 595.508 159.53 595.508 159.45C595.508 159.37 599.458 151.32 603.848 143.31C605.665 145.116 606.69 147.569 606.698 150.13V150.13Z" fill="#914839"/>
<path d="M645.268 153.76L642.538 156.27C638.078 160.47 637.118 161.51 637.118 161.51C634.628 155.27 634.048 144.79 638.758 137.06C643.468 129.33 649.068 129.06 652.018 131.45C652.311 131.685 652.546 131.982 652.708 132.32C654.838 136.27 651.948 147.56 645.268 153.76Z" fill="#683F1D"/>
<path d="M652.708 132.35C647.208 133.87 642.568 142.88 642.538 156.3C638.078 160.5 637.118 161.54 637.118 161.54C634.628 155.3 634.048 144.82 638.758 137.09C643.468 129.36 649.068 129.09 652.018 131.48C652.311 131.715 652.546 132.012 652.708 132.35V132.35Z" fill="#683F1D"/>
<path d="M633.588 164.27C636.888 168.86 647.418 166.27 648.098 159.54C648.778 152.81 642.808 149.17 637.518 152.2C632.228 155.23 632.598 162.9 633.588 164.27Z" fill="#B25E47"/>
<path d="M644.318 131.27C645.318 136.66 649.688 141.01 652.438 141.75" stroke="#7F542D" stroke-width="0.75" stroke-linecap="round" stroke-linejoin="round"/>
<path d="M639.708 135.66C640.708 140.46 644.168 146.81 650.858 146.36" stroke="#7F542D" stroke-width="0.75" stroke-linecap="round" stroke-linejoin="round"/>
<path d="M611.338 138.66C611.338 138.939 611.421 139.211 611.576 139.443C611.731 139.675 611.951 139.856 612.209 139.963C612.466 140.069 612.75 140.097 613.023 140.043C613.297 139.989 613.548 139.854 613.745 139.657C613.943 139.46 614.077 139.209 614.131 138.935C614.186 138.662 614.158 138.378 614.051 138.12C613.944 137.863 613.764 137.643 613.532 137.488C613.3 137.333 613.027 137.25 612.748 137.25C612.374 137.25 612.016 137.399 611.751 137.663C611.487 137.927 611.338 138.286 611.338 138.66V138.66Z" fill="#683F1D"/>
<path d="M622.128 143.84C622.907 143.84 623.538 143.209 623.538 142.43C623.538 141.651 622.907 141.02 622.128 141.02C621.35 141.02 620.718 141.651 620.718 142.43C620.718 143.209 621.35 143.84 622.128 143.84Z" fill="#683F1D"/>
<path d="M638.318 154.62C638.418 156.16 634.108 161.78 633.738 163.53C632.448 169.71 632.378 172.79 625.498 177.36C617.958 182.36 603.498 186.85 596.198 181.07C593.368 178.84 591.798 174.54 591.798 169.51C591.874 165.611 592.726 161.767 594.304 158.2C595.882 154.634 598.154 151.418 600.988 148.74C600.095 152.015 599 155.231 597.708 158.37C599.165 156.402 600.738 154.522 602.418 152.74C604.403 151.81 606.59 151.394 608.778 151.53C610.028 151.87 617.358 154.91 617.648 156.3C617.938 157.69 616.778 162.47 618.318 162.81C619.858 163.15 626.608 162.42 628.318 161.32C630.028 160.22 634.638 152.98 635.068 151.87C635.338 151.18 636.478 151.81 637.328 152.76C637.843 153.263 638.189 153.912 638.318 154.62V154.62Z" fill="#683F1D"/>
<path d="M643.968 158.86C642.258 154.86 637.878 154.98 635.488 158.18" stroke="#914839" stroke-width="0.75" stroke-linecap="round" stroke-linejoin="round"/>
<path d="M636.638 156.99C641.358 155.82 643.438 162.8 637.138 162.79" stroke="#914839" stroke-width="0.75" stroke-linecap="round" stroke-linejoin="round"/>
<path d="M610.059 131.03C609.709 133.03 618.939 134.74 619.059 131.75C619.179 128.76 610.439 128.9 610.059 131.03Z" fill="#683F1D"/>
<path d="M632.798 135.17C632.728 137.17 623.348 137.01 623.798 134.05C624.248 131.09 632.878 133.02 632.798 135.17Z" fill="#683F1D"/>
<path d="M609.868 156.86C615.588 157.78 618.118 156.86 619.608 154.44" stroke="#914839" stroke-width="0.75" stroke-linecap="round" stroke-linejoin="round"/>
<path d="M608.538 148.14C610.438 144.27 612.958 142.87 615.448 142.59C616.627 142.426 617.724 141.893 618.582 141.066C619.439 140.24 620.012 139.163 620.218 137.99" stroke="#914839" stroke-width="0.75" stroke-linecap="round" stroke-linejoin="round"/>
<path d="M638.318 154.62C638.418 156.16 634.108 161.78 633.738 163.53C632.448 169.71 632.378 172.79 625.498 177.36C617.958 182.36 603.498 186.85 596.198 181.07C593.368 178.84 591.798 174.54 591.798 169.51C599.798 176.37 611.528 177.1 618.728 175.04C628.888 172.12 635.098 158.61 637.348 152.76C637.856 153.265 638.195 153.915 638.318 154.62V154.62Z" fill="#683F1D"/>
<path d="M593.059 161.54C603.629 170.54 618.189 163.42 619.059 162.79" stroke="#7F542D" stroke-width="0.75" stroke-linecap="round" stroke-linejoin="round"/>
<path d="M591.858 171.11C600.658 175.73 614.568 177.01 624.978 162.34" stroke="#7F542D" stroke-width="0.75" stroke-linecap="round" stroke-linejoin="round"/>
<path d="M602.798 183.64C604.968 180.52 610.668 179.16 616.648 177.5C628.288 174.25 630.078 169.43 631.208 158.02" stroke="#7F542D" stroke-width="0.75" stroke-linecap="round" stroke-linejoin="round"/>
<path d="M638.008 343.64C638.005 345.776 637.534 347.885 636.628 349.82C635.478 352.247 633.832 354.406 631.798 356.16C626.418 360.94 618.038 364.01 608.618 364.01C603.329 364.051 598.086 363.031 593.198 361.01C588.597 359.194 584.632 356.064 581.798 352.01C580.139 349.536 579.242 346.629 579.218 343.65C579.218 342.794 579.298 341.941 579.458 341.1C580.668 334.33 586.678 328.59 595.068 325.57C599.419 324.03 604.003 323.251 608.618 323.27C614.648 323.225 620.604 324.595 626.008 327.27C628.332 328.427 630.474 329.916 632.368 331.69C635.918 335.01 638.008 339.15 638.008 343.64Z" fill="#55737D"/>
<path d="M636.628 349.82C635.478 352.247 633.833 354.406 631.798 356.16C626.418 360.94 618.038 364.01 608.618 364.01C603.329 364.051 598.086 363.031 593.198 361.01C588.597 359.194 584.632 356.064 581.798 352.01C602.778 357.48 625.438 352.87 636.628 349.82Z" fill="#415A62"/>
<path d="M703.078 264.98C698.558 272.38 683.228 292.9 668.138 312.49C655.408 329 642.848 344.84 637.088 351.57C635.555 353.347 633.773 354.892 631.798 356.16C628.249 358.408 624.284 359.921 620.139 360.608C615.994 361.295 611.753 361.143 607.668 360.16C601.828 358.69 596.768 355.34 594.008 350.03C592.812 347.701 592.085 345.159 591.868 342.55C591.428 337.79 592.618 332 595.068 325.55C599.698 313.41 608.788 299 619.718 284.9C621.058 283.17 622.438 281.44 623.828 279.72C625.968 277.053 628.162 274.44 630.408 271.88C631.188 270.97 631.968 270.08 632.768 269.18C633.388 268.48 634.008 267.78 634.638 267.09L636.788 264.72L636.908 264.59L639.098 262.24C640.588 260.65 642.098 259.08 643.588 257.55L645.588 255.55C646.318 254.81 647.058 254.07 647.798 253.35C647.829 253.314 647.863 253.281 647.898 253.25C649.458 251.71 651.015 250.217 652.568 248.77L652.778 248.58C658.041 243.613 663.572 238.939 669.348 234.58V234.58C675.448 230.06 680.958 226.79 685.418 225.22C692.938 222.58 699.818 225.78 704.028 232.05C709.438 239.96 710.488 252.86 703.078 264.98Z" fill="#55737D"/>
<path d="M684.758 290.64C679.578 297.55 673.848 305.09 668.138 312.49C655.408 329 642.848 344.84 637.088 351.57C635.555 353.346 633.773 354.892 631.798 356.16" stroke="#415A62" stroke-width="0.75" stroke-linecap="round" stroke-linejoin="round"/>
<path d="M595.068 325.56C599.698 313.42 608.788 299.01 619.718 284.91C629.736 272.02 640.736 259.924 652.618 248.73" stroke="#415A62" stroke-width="0.75" stroke-linecap="round" stroke-linejoin="round"/>
<path d="M667.638 245.33C662.378 242.33 657.198 243.45 647.808 253.33" stroke="#415A62" stroke-width="0.75" stroke-linecap="round" stroke-linejoin="round"/>
<path d="M704.078 232.01C701.768 231.029 699.352 230.317 696.878 229.89C688.038 228.32 678.938 230.39 669.398 234.54C675.498 230.02 681.008 226.75 685.468 225.18C692.988 222.54 699.868 225.74 704.078 232.01Z" fill="#55737D"/>
<path d="M668.138 312.49C655.408 329 642.848 344.84 637.088 351.57C635.555 353.346 633.773 354.892 631.798 356.16C628.249 358.408 624.284 359.921 620.139 360.608C615.994 361.295 611.753 361.143 607.668 360.16C601.828 358.69 596.768 355.34 594.008 350.03C603.388 353.68 612.708 353.69 619.368 350.33C623.077 348.533 625.993 345.432 627.558 341.62C628.948 338.188 630.554 334.848 632.368 331.62C643.208 312.54 658.028 305.58 668.138 312.49Z" fill="#415A62"/>
<path d="M560.998 230.61C560.518 227.92 569.548 225.05 576.568 224.25L577.888 236.12C577.888 236.12 562.658 239.95 560.998 230.61Z" fill="#415A62"/>
<path d="M575.108 223.5C571.458 209.87 571.369 187.81 572.619 184.69C573.869 181.57 576.389 182.74 577.889 182.83C579.389 182.92 580.088 178.91 585.158 178.91C585.158 178.91 585.439 173.85 588.949 173.27C588.949 173.27 587.609 165.9 593.519 167.08C594.859 167.35 593.518 175.53 596.918 187.08C597.108 187.73 604.268 182.6 605.918 181.43C608.568 179.52 613.698 178.89 610.358 184.5C608.358 187.91 605.029 193.3 602.709 196.68C598.1 203.587 595.71 211.738 595.858 220.04L575.108 223.5Z" fill="#B25E47"/>
<path d="M571.929 191.39C571.879 189.137 572.11 186.886 572.619 184.69C573.859 181.58 576.389 182.74 577.889 182.83C579.389 182.92 580.089 178.91 585.159 178.91C585.159 178.91 585.439 173.85 588.949 173.27C588.949 173.27 587.609 165.9 593.519 167.08C594.859 167.35 593.519 175.53 596.919 187.08C597.109 187.73 604.269 182.6 605.919 181.43C608.569 179.52 613.699 178.89 610.359 184.5C609.359 186.2 608.009 188.4 606.639 190.6" stroke="#914839" stroke-width="0.75" stroke-linecap="round" stroke-linejoin="round"/>
<path d="M585.158 178.91C585.138 179.85 585.195 180.79 585.329 181.72" stroke="#914839" stroke-width="0.75" stroke-linecap="round" stroke-linejoin="round"/>
<path d="M588.948 173.27C589.378 175.74 590.008 178.03 590.008 178.03" stroke="#914839" stroke-width="0.75" stroke-linecap="round" stroke-linejoin="round"/>
<path d="M568.688 217.87L570.279 240.27C570.279 240.27 599.409 235.27 598.969 234.62C598.529 233.97 597.768 215.62 597.768 215.62L568.688 217.87Z" fill="white"/>
<path d="M625.848 327.27C625.848 327.85 625.818 328.43 625.758 329.01C625.758 329.45 625.698 329.89 625.658 330.33C625.663 330.417 625.663 330.504 625.658 330.59C625.658 331.09 625.558 331.59 625.498 332.07C625.368 333.19 625.198 334.3 624.988 335.39C624.079 340.722 622.121 345.82 619.228 350.39C616.471 354.826 612.373 358.269 607.528 360.22C602.943 361.902 597.966 362.208 593.208 361.1H593.058C583.478 359.03 577.758 348.36 574.238 336.16C571.028 325.01 569.648 312.58 568.858 304.25C567.178 286.75 560.858 230.71 560.858 230.71C565.328 232.95 605.328 223.61 605.328 223.61C605.328 223.61 613.548 256.21 619.588 285.02C622.828 300.47 625.448 314.84 625.828 322.5C625.878 324.01 625.898 325.62 625.848 327.27Z" fill="#55737D"/>
<path d="M574.218 336.05C571.008 324.9 569.628 312.47 568.838 304.14C567.158 286.64 560.838 230.6 560.838 230.6" stroke="#415A62" stroke-width="0.75" stroke-linecap="round" stroke-linejoin="round"/>
<path d="M605.298 223.5C605.298 223.5 613.518 256.1 619.558 284.91C622.798 300.36 625.418 314.73 625.798 322.39C625.878 324.01 625.898 325.62 625.798 327.22C625.702 330.142 625.367 333.052 624.798 335.92" stroke="#415A62" stroke-width="0.75" stroke-linecap="round" stroke-linejoin="round"/>
<path d="M619.208 350.27C616.451 354.706 612.353 358.149 607.508 360.1C602.923 361.782 597.945 362.088 593.188 360.98H593.038C583.458 358.91 577.738 348.24 574.218 336.04C575.796 337.82 577.493 339.49 579.298 341.04C583.598 344.83 588.52 347.847 593.848 349.96C603.228 353.66 612.548 353.67 619.208 350.27Z" fill="#415A62"/>
<path d="M339.879 352.16C335.749 349.711 331.994 346.68 328.729 343.16C317.829 331.91 307.359 314.53 299.619 299.83C294.299 289.73 290.279 280.89 288.289 276.16C288.179 275.91 288.069 275.64 287.959 275.36C287.679 274.67 287.369 273.9 287.059 273.07C280.389 255.65 266.649 208.18 295.659 200.71C307.309 197.71 313.419 202.71 325.989 222.28C328.439 226.09 331.139 230.45 334.169 235.41C352.799 265.92 377.029 316.23 379.299 330.01C381.569 343.79 358.519 362.53 339.879 352.16Z" fill="#DFC081"/>
<path d="M325.999 222.27C320.679 222.15 314.429 224.42 308.839 230.55C304.149 235.7 299.929 243.55 297.119 255.01C295.573 261.87 292.08 268.137 287.059 273.06C280.389 255.64 266.649 208.17 295.659 200.7C307.319 197.72 313.439 202.75 325.999 222.27Z" fill="#DFC081"/>
<path d="M328.729 343.17C317.829 331.92 307.359 314.54 299.619 299.84C294.299 289.74 290.279 280.9 288.289 276.17C288.179 275.92 288.069 275.65 287.959 275.37L303.439 261.94C312.579 262.22 320.579 288.22 313.009 294.75C306.539 300.32 307.009 311.64 319.249 313.75C328.259 315.27 328.789 336.44 328.729 343.17Z" fill="#C6A86D"/>
<path d="M242.837 165.131L242.837 165.13C243.506 158.53 245.724 154.252 248.588 151.874C251.443 149.505 255.008 148.965 258.52 149.971C265.567 151.988 272.398 160.253 272.309 172.326V172.33C272.309 173.229 272.274 174.772 272.229 176.745C272.191 178.405 272.146 180.37 272.109 182.511C272.029 187.181 271.989 192.897 272.159 197.819V197.819V197.82V197.822V197.823V197.825V197.826V197.828V197.829V197.831V197.832V197.833V197.835V197.836V197.838V197.839V197.841V197.842V197.844V197.845V197.847V197.848V197.85V197.851V197.853V197.854V197.855V197.857V197.858V197.86V197.861V197.863V197.864V197.866V197.867V197.869V197.87V197.872V197.873V197.875V197.876V197.877V197.879V197.88V197.882V197.883V197.885V197.886V197.888V197.889V197.891V197.892V197.894V197.895V197.896V197.898V197.899V197.901V197.902V197.904V197.905V197.907V197.908V197.91V197.911V197.913V197.914V197.916V197.917V197.918V197.92V197.921V197.923V197.924V197.926V197.927V197.929V197.93V197.932V197.933V197.935V197.936V197.938V197.939V197.94V197.942V197.943V197.945V197.946V197.948V197.949V197.951V197.952V197.954V197.955V197.957V197.958V197.959V197.961V197.962V197.964V197.965V197.967V197.968V197.97V197.971V197.973V197.974V197.976V197.977V197.979V197.98V197.981V197.983V197.984V197.986V197.987V197.989V197.99V197.992V197.993V197.995V197.996V197.998V197.999V198V198.002V198.003V198.005V198.006V198.008V198.009V198.011V198.012V198.014V198.015V198.017V198.018V198.02V198.021V198.022V198.024V198.025V198.027V198.028V198.03V198.031V198.033V198.034V198.036V198.037V198.039V198.04V198.042V198.043V198.044V198.046V198.047V198.049V198.05V198.052V198.053V198.055V198.056V198.058V198.059V198.061V198.062V198.063V198.065V198.066V198.068V198.069V198.071V198.072V198.074V198.075V198.077V198.078V198.08V198.081V198.083V198.084V198.085V198.087V198.088V198.09V198.091V198.093V198.094V198.096V198.097V198.099V198.1V198.102V198.103V198.104V198.106V198.107V198.109V198.11V198.112V198.113V198.115V198.116V198.118V198.119V198.121V198.122V198.124V198.125V198.126V198.128V198.129V198.131V198.132V198.134V198.135V198.137V198.138V198.14V198.141V198.143V198.144V198.146V198.147V198.148V198.15V198.151V198.153V198.154V198.156V198.157V198.159V198.16V198.162V198.163V198.165V198.166V198.167V198.169V198.17V198.172V198.173V198.175V198.176V198.178V198.179V198.181V198.182V198.184V198.185V198.187V198.188V198.189V198.191V198.192V198.194V198.195V198.197V198.198V198.2V198.201V198.203V198.204V198.206V198.207V198.208V198.21V198.211V198.213V198.214V198.216V198.217V198.219V198.22V198.222V198.223V198.225V198.226V198.228V198.229V198.23V198.232V198.233V198.235V198.236V198.238V198.239V198.241V198.242V198.244V198.245V198.247V198.248V198.25V198.251V198.252V198.254V198.255V198.257V198.258V198.26V198.261V198.263V198.264V198.266V198.267V198.269V198.27V198.271V198.273V198.274V198.276V198.277V198.279V198.28V198.282V198.283V198.285V198.286V198.288V198.289V198.291V198.292V198.293V198.295V198.296V198.298V198.299V198.301V198.302V198.304V198.305V198.307V198.308V198.31V198.311V198.312V198.314V198.315V198.317V198.318V198.32V198.321V198.323V198.324V198.326V198.327V198.329V198.33V198.332V198.333V198.334V198.336V198.337V198.339V198.34V198.342V198.343V198.345V198.346V198.348V198.349V198.351V198.352V198.354V198.355V198.356V198.358V198.359V198.361V198.362V198.364V198.365V198.367V198.368V198.37V198.371V198.373V198.374V198.375V198.377V198.378V198.38V198.381V198.383V198.384V198.386V198.387V198.389V198.39V198.392V198.393V198.395V198.396V198.397V198.399V198.4V198.402V198.403V198.405V198.406V198.408V198.409V198.411V198.412V198.414V198.415V198.417V198.418V198.419V198.421V198.422V198.424V198.425V198.427V198.428V198.43V198.431V198.433V198.434V198.436V198.437V198.438V198.44V198.441V198.443V198.444V198.446V198.447V198.449V198.45V198.452V198.453V198.455V198.456V198.458V198.459V198.46V198.462V198.463V198.465V198.466V198.468V198.469V198.471V198.472V198.474V198.475V198.477V198.478V198.479V198.481V198.482V198.484V198.485V198.487V198.488V198.49V198.491V198.493V198.494V198.496V198.497V198.499V198.5V198.501V198.503V198.504V198.506V198.507V198.509V198.51V198.512V198.513V198.515V198.516V198.518V198.519V198.521V198.522V198.523V198.525V198.526V198.528V198.529V198.531V198.532V198.534V198.535V198.537V198.538V198.54V198.541V198.542V198.544V198.545V198.547V198.548V198.55V198.551V198.553V198.554V198.556V198.557V198.559V198.56V198.57L272.16 198.579L272.165 198.722C272.356 203.657 272.64 210.991 270.707 216.938C269.735 219.93 268.215 222.528 265.876 224.295C263.546 226.056 260.349 227.031 255.939 226.682C247.115 225.981 242.207 221.65 239.621 216.899C237.015 212.109 236.764 206.883 237.307 204.459C238.454 199.339 241.726 176.044 242.837 165.131Z" fill="#FEBD9D" stroke="#C6A86D"/>
<path d="M272.103 182.899C272.03 187.403 271.996 192.653 272.143 197.319C263.802 197.407 259.671 194.622 257.69 190.934C255.726 187.276 255.795 182.599 256.275 178.507L272.103 182.899Z" fill="#F4A789" stroke="#C6A86D"/>
<path d="M175.068 399H290.162C290.457 395.703 290.779 392.109 291.122 388.283C293.418 362.639 296.647 326.569 299.121 299.754C300.84 281.163 302.202 267.046 302.624 264.031L302.624 264.027C302.648 263.866 302.68 263.673 302.714 263.465C302.737 263.322 302.761 263.172 302.785 263.022L302.785 263.02C303.038 261.467 303.445 259.336 303.93 256.801C304.31 254.809 304.739 252.568 305.177 250.16L305.178 250.158C306.287 244.243 307.485 237.294 308.343 230.508C308.343 230.508 308.343 230.507 308.343 230.507L175.068 399ZM175.068 399C175.431 396.203 175.82 393.227 176.223 390.132C176.915 384.833 177.652 379.186 178.385 373.494L178.385 373.493C179.885 361.764 181.4 349.857 182.555 340.48C183.708 331.12 184.508 324.241 184.569 322.599C184.69 319.401 183.996 307.803 182.904 294.381C181.81 280.941 180.311 265.62 178.814 254.951L178.814 254.949C178.724 254.319 178.634 253.698 178.544 253.096C177.142 243.619 177.993 236.704 180.277 231.761C182.554 226.832 186.278 223.818 190.733 222.169L190.735 222.168C191.528 221.87 192.337 221.619 193.159 221.415L193.161 221.415C199.432 219.836 208.51 217.08 219.045 213.88C223.082 212.655 227.333 211.364 231.722 210.049L231.726 210.048C234.983 209.049 238.32 208.05 241.718 207.05L175.068 399Z" fill="#DFC081" stroke="#C6A86D"/>
<path d="M305.679 250.27C304.519 256.51 303.479 261.6 303.119 264.15C302.699 267.15 301.339 281.25 299.619 299.85" stroke="#C6A86D" stroke-width="0.75" stroke-linecap="round" stroke-linejoin="round"/>
<path d="M277.789 201.45C275.879 201.57 274.019 201.71 272.209 201.86C272.162 202.018 272.102 202.187 272.04 202.365C272.023 202.413 272.006 202.461 271.989 202.51L277.789 201.45ZM277.789 201.45C280.169 201.29 282.629 201.16 285.149 201.04L277.789 201.45ZM272.509 202.537C272.533 202.469 272.557 202.4 272.581 202.331C274.284 202.192 276.03 202.062 277.82 201.949L277.822 201.949C280.198 201.789 282.654 201.659 285.172 201.54C288.554 201.38 292.056 201.267 295.678 201.2L295.68 201.2C298.303 201.14 300.986 201.11 303.729 201.11C305.305 201.11 306.492 201.896 307.386 203.386C308.297 204.902 308.883 207.121 309.192 209.878C309.806 215.346 309.314 222.723 308.362 230.351C303.646 235.579 299.437 243.478 296.633 254.911L296.633 254.913C295.603 259.206 293.85 263.292 291.45 266.997C290.093 269.065 288.504 270.971 286.714 272.678C282.838 276.374 278.003 278.907 272.758 279.99L272.757 279.991C270.422 280.477 268.038 280.685 265.655 280.61L265.654 280.61C259.019 280.413 251.847 278.149 244.511 273.441C240.721 270.964 237.193 268.107 233.981 264.915L233.98 264.914C228.018 259.033 222.379 254.657 216.86 251.777L216.859 251.776C210.636 248.543 204.511 247.184 198.145 247.677C191.978 248.154 185.616 250.369 178.749 254.251C178.694 253.87 178.639 253.495 178.583 253.126C177.182 243.649 178.032 236.734 180.317 231.791C182.594 226.862 186.318 223.848 190.773 222.199L190.775 222.198C191.568 221.9 192.377 221.649 193.199 221.445L193.201 221.445C199.472 219.866 208.549 217.11 219.085 213.911C223.122 212.685 227.373 211.394 231.762 210.079L231.766 210.078C235.023 209.079 238.36 208.08 241.758 207.08C243.019 206.72 244.417 206.36 245.943 206.007C246.539 206.427 247.15 206.846 247.769 207.264L247.769 207.264L247.78 207.272C251.878 209.881 256.313 211.918 260.961 213.328C262.112 213.691 263.29 214.013 264.501 214.333L264.798 214.412L265.003 214.182C266.282 212.741 267.361 211.391 268.279 210.15C270.017 207.874 271.423 205.362 272.455 202.69L272.458 202.682L272.461 202.674C272.477 202.629 272.493 202.583 272.509 202.537Z" fill="#DFC081" stroke="#C6A86D"/>
<path d="M217.178 298.884C213.546 306.466 213.666 312.142 215.934 315.298C217.075 316.886 218.737 317.794 220.64 317.957C222.533 318.119 224.637 317.542 226.699 316.221L226.699 316.221C230.854 313.558 236.999 313.785 242.15 316.287C247.285 318.782 251.289 323.47 251.289 329.57C251.289 335.377 248.089 340.733 243.097 345.03C238.106 349.324 231.369 352.518 224.421 353.991C217.469 355.465 210.356 355.207 204.598 352.662C198.863 350.126 194.436 345.308 192.829 337.559C189.547 321.731 186.877 305.701 187.805 294.064C188.27 288.241 189.63 283.605 192.184 280.638C194.703 277.711 198.453 276.329 203.921 277.152L203.923 277.153L203.967 277.162C204.006 277.171 204.066 277.184 204.143 277.202C204.299 277.238 204.528 277.294 204.818 277.371C205.397 277.527 206.217 277.768 207.176 278.114C209.097 278.806 211.555 279.909 213.74 281.552C215.925 283.195 217.811 285.358 218.646 288.168C219.477 290.969 219.284 294.486 217.178 298.884ZM217.178 298.884L217.629 299.1L217.178 298.884Z" fill="#C6A86D" stroke="#C6A86D"/>
<path d="M274.232 298.28L274.172 298.379L274.161 298.494L273.449 306.266L244.004 276.56L244.767 274.045L244.767 274.045L247.187 266.045L247.274 265.758L247.062 265.546L224.636 243.219C224.736 242.554 225.057 240.981 225.535 238.791C226.074 236.317 226.803 233.101 227.601 229.641C229.164 222.868 230.996 215.165 232.207 210.264L236.798 209.422L236.799 209.422L247.976 207.387C252.028 209.945 256.405 211.947 260.991 213.338C262.142 213.701 263.32 214.023 264.531 214.343L264.828 214.422L265.033 214.192C266.312 212.751 267.391 211.401 268.308 210.161C269.99 207.958 271.361 205.536 272.383 202.962L277.881 201.957C280.123 201.807 282.438 201.683 284.809 201.568L296.638 242.269L285.661 260.442L285.471 260.755L285.713 261.03L291.493 267.6L291.493 267.6L292.321 268.544L274.232 298.28Z" fill="#C6A86D" stroke="#C6A86D"/>
<path d="M276.133 250.491L276.133 250.491C274.793 261.848 273.394 272.665 272.364 280.484C271.864 284.104 271.464 287.069 271.189 289.129C271.098 289.809 271.021 290.39 270.958 290.864C269.17 287.656 267.548 284.358 266.099 280.983L266.097 280.98C264.099 276.412 261.72 270.867 259.102 264.432L259.101 264.429C257.138 259.685 254.999 254.443 252.674 248.746C248.635 238.851 244.036 227.582 238.824 215.159L237.319 209.405L247.967 207.467C252.018 210.025 256.395 212.027 260.981 213.418C262.132 213.781 263.311 214.103 264.521 214.423L264.819 214.502L265.023 214.272C266.302 212.831 267.381 211.481 268.299 210.241C269.98 208.038 271.351 205.616 272.373 203.042L277.521 202.101L280.283 207.939C279.648 219.039 277.936 235.24 276.133 250.491Z" fill="white" stroke="#C6A86D"/>
<path d="M257.674 219.715L261.338 213.535C262.369 213.851 263.422 214.138 264.501 214.423L264.798 214.502L265.003 214.272C266.135 212.997 267.11 211.793 267.955 210.673L272.893 215.016C272.89 215.03 272.888 215.044 272.885 215.059C272.843 215.268 272.781 215.571 272.701 215.946C272.541 216.696 272.307 217.734 272.014 218.886C271.516 220.82 270.859 223.053 270.098 224.795C269.717 225.669 269.32 226.391 268.922 226.887C268.511 227.4 268.179 227.57 267.939 227.57C267.578 227.57 267.094 227.428 266.497 227.131C265.909 226.838 265.255 226.418 264.568 225.915C263.194 224.91 261.732 223.606 260.459 222.424C259.584 221.609 258.821 220.863 258.277 220.321C258.026 220.071 257.822 219.865 257.674 219.715Z" fill="#55737D" stroke="#C6A86D"/>
<path d="M270.962 290.88C268.062 285.733 264.172 276.769 259.119 264.539C260.6 257.023 263.561 239.658 265.666 224.834L269.407 224.008C271.338 230.35 274.283 242.684 276.122 250.578C274.831 261.499 273.493 271.919 272.477 279.616C271.968 283.474 271.54 286.648 271.239 288.858C271.129 289.665 271.035 290.344 270.962 290.88Z" fill="#55737D" stroke="#C6A86D"/>
<path d="M260.933 213.398C261.893 213.69 262.893 213.969 263.879 214.216L259.653 222.564L259.652 222.565L257.215 227.404C257.138 227.366 257.052 227.323 256.957 227.275C256.503 227.048 255.844 226.712 255.023 226.274C253.379 225.399 251.086 224.123 248.492 222.516C243.301 219.301 236.93 214.783 232.136 209.541C232.099 209.497 232.068 209.449 232.042 209.398C231.944 209.168 231.885 208.76 231.904 208.171C231.922 207.589 232.013 206.886 232.167 206.115C232.474 204.572 233.023 202.8 233.699 201.247C234.383 199.674 235.163 198.405 235.898 197.794C236.26 197.493 236.545 197.407 236.76 197.432C236.966 197.457 237.249 197.601 237.573 198.087L237.579 198.097L237.586 198.106C239.825 201.158 242.571 203.805 245.704 205.931C250.346 209.223 255.488 211.744 260.933 213.398Z" fill="#96A3AB" stroke="#C6A86D"/>
<path d="M272.776 218.554L272.776 218.554L272.772 218.551L265.386 213.737C266.499 212.459 267.453 211.256 268.278 210.141C270.172 207.684 271.658 204.937 272.68 202.008C272.946 201.272 273.116 200.506 273.187 199.728C274.794 199.881 276.3 200.601 277.43 201.768C278.261 202.726 278.813 203.894 279.026 205.144L279.026 205.144L279.028 205.154C279.57 208 278.612 211.863 277.465 215.09C276.897 216.688 276.294 218.103 275.832 219.118C275.621 219.583 275.439 219.964 275.305 220.24L272.776 218.554Z" fill="#96A3AB" stroke="#C6A86D"/>
<path d="M265.359 399.54L273.849 307.42L274.659 298.58L271.259 292.38" stroke="#C6A86D" stroke-width="0.75" stroke-linecap="round" stroke-linejoin="round"/>
<path d="M439.659 198.12C436.659 194.12 433.899 192.56 431.379 192.35C431.619 191.81 431.849 191.25 432.079 190.67C434.079 185.61 432.179 183.67 430.459 184.18C428.739 184.69 420.099 194.27 419.109 196.18C416.459 201.34 409.109 221.86 408.449 223.77C409.949 235.96 426.039 239.87 426.039 239.87C427.729 234.79 430.989 231.66 434.579 229.18C438.169 226.7 439.859 222.67 443.579 214.77C446.249 209.21 445.909 206.59 439.659 198.12Z" fill="#FEBD9D"/>
<path d="M439.658 198.12C436.658 194.12 433.898 192.56 431.378 192.35C431.618 191.81 431.848 191.25 432.078 190.67C434.078 185.61 432.178 183.67 430.458 184.18C428.738 184.69 420.098 194.27 419.108 196.18" stroke="#F4A789" stroke-width="0.75" stroke-linecap="round" stroke-linejoin="round"/>
<path d="M435.149 249.8C436.969 245.62 427.829 241.09 427.829 241.09L422.829 250.31C422.829 250.31 431.309 255.72 435.149 249.8Z" fill="#C6A86D"/>
<path d="M402.818 230.42C406.368 225.01 409.218 220.58 409.218 220.58C415.338 228.813 422.791 235.965 431.268 241.74L426.738 250.27C421.305 249.499 416.192 247.235 411.969 243.731C407.745 240.226 404.578 235.618 402.818 230.42V230.42Z" fill="#683F1D"/>
<path d="M339.889 352.16C349.889 362.16 373.419 364.27 395.279 322.16C417.139 280.05 435.119 249.98 435.119 249.98C435.119 249.98 424.199 252.49 404.609 225.85C404.609 225.85 384.449 252.85 364.089 277.55C340.629 306 322.049 334.27 339.889 352.16Z" fill="#DFC081"/>
<path d="M404.609 225.84C404.609 225.84 384.449 252.84 364.089 277.54C356.953 285.99 350.347 294.874 344.309 304.14" stroke="#C6A86D" stroke-width="0.75" stroke-linecap="round" stroke-linejoin="round"/>
<path d="M427.928 217.54C427.928 217.54 432.318 207.35 426.458 199.92C426.458 199.92 430.669 194.04 431.379 192.35" stroke="#F4A789" stroke-width="0.75" stroke-linecap="round" stroke-linejoin="round"/>
<path d="M427.929 200.48L474.279 93.99" stroke="#DDDDDD" stroke-width="3" stroke-linecap="round" stroke-linejoin="round"/>
<path d="M448.638 204.72C452.518 206.72 445.718 216.72 442.208 216.02C437.718 215.06 444.518 202.64 448.638 204.72Z" fill="#FEBD9D" stroke="#F4A789" stroke-width="0.75" stroke-linecap="round" stroke-linejoin="round"/>
<path d="M445.438 197.14C450.238 199.65 441.718 212.79 437.378 211.81C433.038 210.83 440.338 194.47 445.438 197.14Z" fill="#FEBD9D" stroke="#F4A789" stroke-width="0.75" stroke-linecap="round" stroke-linejoin="round"/>
<path d="M442.439 192.48C446.999 195.53 437.219 209.48 432.969 208.1C428.719 206.72 437.579 189.27 442.439 192.48Z" fill="#FEBD9D" stroke="#F4A789" stroke-width="0.75" stroke-linecap="round" stroke-linejoin="round"/>
<path d="M439.439 182.43C444.509 184.52 437.669 200.09 433.239 199.62C428.809 199.15 434.019 180.2 439.439 182.43Z" fill="#FEBD9D" stroke="#F4A789" stroke-width="0.75" stroke-linecap="round" stroke-linejoin="round"/>
<path d="M216.239 265.16C216.129 266.09 215.999 267.04 215.839 267.99C215.749 268.51 215.669 268.99 215.569 269.57C215.469 270.15 215.369 270.64 215.249 271.18C215.069 272.1 214.869 273.03 214.639 273.96C214.289 275.41 213.929 276.96 213.569 278.51C213.439 279.04 213.319 279.58 213.199 280.12C212.826 281.74 212.446 283.407 212.059 285.12C211.929 285.69 211.799 286.28 211.669 286.87C211.589 287.21 211.519 287.56 211.439 287.87C211.259 288.64 211.089 289.41 210.919 290.2C209.829 295.12 208.669 300.33 207.439 305.65C207.139 306.96 206.829 308.28 206.519 309.6C206.429 310 206.329 310.41 206.229 310.81L205.569 313.58C205.569 313.79 205.469 314.01 205.409 314.23C205.169 315.23 204.929 316.23 204.679 317.23C204.489 318.02 204.289 318.8 204.089 319.59C203.889 320.38 203.759 320.91 203.579 321.59C203.089 323.48 202.579 325.38 202.079 327.25L201.479 329.44C200.119 334.29 198.699 339 197.189 343.44C196.989 344.03 196.779 344.62 196.579 345.19C196.069 346.64 195.579 348.06 195.019 349.44C194.809 349.99 194.599 350.54 194.379 351.08C193.606 353.02 192.816 354.87 192.009 356.63C191.579 357.55 191.149 358.45 190.709 359.31C190.599 359.54 190.479 359.77 190.359 359.99C189.939 360.79 189.519 361.56 189.089 362.3C188.659 363.04 188.269 363.7 187.859 364.36V364.43C187.419 365.1 186.989 365.75 186.539 366.37C185.64 367.623 184.637 368.797 183.539 369.88C183.389 370.04 183.229 370.19 183.069 370.33C182.165 371.195 181.158 371.944 180.069 372.56L179.489 372.85H179.419C179.179 372.963 178.939 373.063 178.699 373.15C178.449 373.25 178.199 373.33 177.939 373.41C159.479 378.77 149.029 368.32 147.319 352.72C147.174 351.281 147.107 349.836 147.119 348.39V348.39C147.119 336.6 150.599 315.94 154.909 297.13C157.359 286.44 160.079 276.35 162.579 268.82L163.779 265.18C170.779 243.88 176.669 223.88 190.609 221.69C204.219 219.56 215.139 232.54 216.609 252.18C216.918 256.508 216.794 260.856 216.239 265.16V265.16Z" fill="#DFC081"/>
<path d="M177.889 373.47C178.147 373.397 178.401 373.31 178.649 373.21C178.889 373.123 179.129 373.023 179.369 372.91H179.439C179.638 372.825 179.832 372.729 180.019 372.62C181.108 372.004 182.116 371.255 183.019 370.39C183.179 370.25 183.329 370.1 183.489 369.94C184.587 368.857 185.59 367.683 186.489 366.43C186.939 365.82 187.379 365.17 187.809 364.49V364.42C188.229 363.76 188.639 363.08 189.039 362.36C189.473 361.62 189.892 360.85 190.299 360.05C190.419 359.83 190.539 359.6 190.649 359.37C191.089 358.51 191.519 357.61 191.949 356.69C192.762 354.93 193.553 353.08 194.319 351.14C194.539 350.6 194.749 350.05 194.959 349.5C195.489 348.12 195.959 346.7 196.519 345.25C196.719 344.67 196.929 344.09 197.129 343.5C198.639 339.06 200.059 334.35 201.419 329.5C201.619 328.78 201.819 328.05 202.019 327.31C202.529 325.44 203.019 323.54 203.519 321.65C203.699 320.98 203.859 320.32 204.029 319.65C204.199 318.98 204.429 318.08 204.619 317.29C204.869 316.29 205.109 315.29 205.349 314.29C205.409 314.07 205.459 313.85 205.509 313.64C205.729 312.71 205.959 311.79 206.169 310.87C206.269 310.47 206.369 310.06 206.459 309.66C206.769 308.34 207.079 307.02 207.379 305.71C208.609 300.39 209.769 295.18 210.859 290.26C211.039 289.48 211.209 288.7 211.379 287.93C211.459 287.58 211.529 287.23 211.609 286.93L211.999 285.18C212.386 283.447 212.766 281.78 213.139 280.18C213.259 279.64 213.379 279.1 213.509 278.57C213.869 276.99 214.229 275.47 214.579 274.02C214.809 273.09 215.009 272.16 215.189 271.24C215.309 270.7 215.419 270.16 215.509 269.63C215.599 269.1 215.699 268.57 215.779 268.05C215.939 267.05 216.069 266.15 216.179 265.22C216.179 265 216.239 264.78 216.259 264.56" stroke="#C6A86D" stroke-width="0.75" stroke-linecap="round" stroke-linejoin="round"/>
<path d="M216.589 252.27C204.289 245.88 192.459 246.93 178.319 255.1C173.206 258.118 168.329 261.517 163.729 265.27C170.729 243.97 176.619 223.97 190.559 221.78C204.169 219.61 215.089 232.59 216.589 252.27Z" fill="#DFC081"/>
<path d="M189.089 362.32C188.689 363.04 188.279 363.72 187.859 364.38V364.45C187.429 365.13 186.989 365.78 186.539 366.39C185.64 367.643 184.637 368.817 183.539 369.9C183.389 370.06 183.229 370.21 183.069 370.35C182.165 371.215 181.158 371.964 180.069 372.58L179.489 372.87H179.419C179.179 372.983 178.939 373.083 178.699 373.17C178.449 373.27 178.199 373.35 177.939 373.43C159.479 378.79 149.029 368.34 147.319 352.74C147.174 351.301 147.107 349.856 147.119 348.41V348.41C147.119 336.62 150.599 315.96 154.909 297.15C165.039 303.09 167.809 315.97 162.759 329.99C161.639 333.078 160.233 336.054 158.559 338.88C147.439 357.82 170.259 371.43 189.089 362.32Z" fill="#C6A86D"/>
<path d="M266.289 132.96C270.779 130.2 276.449 129.77 276.229 149.11L266.289 132.96Z" fill="#BF8228"/>
<path d="M270.689 131.53C269.36 134.499 267.62 137.266 265.519 139.75L266.739 161.88L242.739 162.68L238.999 162.81C236.809 155.06 236.479 149.81 234.459 148.48C233.95 148.056 233.596 147.477 233.452 146.831C233.307 146.185 233.38 145.51 233.659 144.91C234.409 142.79 231.929 143.98 230.329 141.32C229.439 139.84 229.179 133.69 235.869 134.44C233.679 130.16 237.069 126.73 244.979 127.03C243.169 126.16 242.669 123.18 247.059 122.97C252.368 122.655 257.69 122.655 262.999 122.97C265.063 123.141 267.041 123.875 268.719 125.09C269.747 125.765 270.507 126.778 270.867 127.954C271.227 129.13 271.164 130.395 270.689 131.53Z" fill="#BF8228"/>
<path d="M270.689 131.53C269.36 134.499 267.62 137.266 265.519 139.75L266.739 161.88L242.739 162.68C243.519 149.92 241.739 145.63 240.889 141.68C240.039 137.73 241.639 132.52 246.669 133.68C251.699 134.84 259.999 131.89 258.609 129.14C257.609 127.14 261.779 122.79 268.719 125.07C269.752 125.746 270.515 126.762 270.875 127.943C271.235 129.124 271.169 130.393 270.689 131.53V131.53Z" fill="#BF8228"/>
<path d="M244.969 127.04L254.299 127.54" stroke="#7F542D" stroke-width="0.75" stroke-linecap="round" stroke-linejoin="round"/>
<path d="M235.859 134.44L245.969 135.44" stroke="#7F542D" stroke-width="0.75" stroke-linecap="round" stroke-linejoin="round"/>
<path d="M272.119 186.47C256.849 189.47 244.199 167.77 244.199 167.77C237.089 169.21 234.459 162.37 236.569 157.77C236.793 157.273 237.068 156.801 237.389 156.36C237.967 155.472 238.798 154.778 239.775 154.366C240.752 153.954 241.829 153.844 242.869 154.05C244.858 154.557 246.634 155.685 247.939 157.27C249.379 158.85 251.049 157.06 249.869 154.27C248.689 151.48 247.499 141.87 248.949 139.9C250.399 137.93 263.579 135.22 267.529 135.02C267.785 135.004 268.042 135.004 268.299 135.02C268.481 135.049 268.655 135.117 268.809 135.22C269.639 135.844 270.353 136.609 270.919 137.48C271.399 138.12 271.919 138.88 272.409 139.72C273.813 142.031 275.088 144.418 276.229 146.87C276.639 147.74 277.049 148.63 277.439 149.53C277.829 150.43 278.149 151.18 278.439 152.01C279.009 153.4 279.519 154.78 279.969 156.13C280.329 157.2 280.649 158.25 280.919 159.25C280.919 159.31 280.919 159.37 280.969 159.43C283.599 169.27 285.049 183.91 272.119 186.47Z" fill="#FEBD9D"/>
<path d="M262.839 160.86C265.979 161.41 270.709 161.08 272.629 159.21C272.629 159.21 273.349 165.99 269.289 166.55C264.589 167.2 262.839 160.86 262.839 160.86Z" fill="white" stroke="#F4A789" stroke-width="0.75" stroke-linecap="round" stroke-linejoin="round"/>
<path d="M275.939 178.27C276.452 179.902 276.297 181.671 275.509 183.19" stroke="#F4A789" stroke-width="0.75" stroke-linecap="round" stroke-linejoin="round"/>
<path d="M244.209 167.77C245.49 167.427 246.69 166.832 247.739 166.02" stroke="#F4A789" stroke-width="0.75" stroke-linecap="round" stroke-linejoin="round"/>
<path d="M239.439 160.16C241.709 157.16 246.069 159.05 247.269 162.1" stroke="#F4A789" stroke-width="0.75" stroke-linecap="round" stroke-linejoin="round"/>
<path d="M246.659 160.94C241.949 157.4 240.299 165.39 245.799 164.25" stroke="#F4A789" stroke-width="0.75" stroke-linecap="round" stroke-linejoin="round"/>
<path d="M265.749 143.87C265.609 145.96 268.479 149.34 271.119 150.15C273.759 150.96 274.579 151.69 273.889 153.86" stroke="#F4A789" stroke-width="0.75" stroke-linecap="round" stroke-linejoin="round"/>
<path d="M253.019 143.96C253.419 145.62 262.459 143.68 261.239 140.59C260.019 137.5 252.349 141.27 253.019 143.96Z" fill="#BF8228"/>
<path d="M265.199 138.61C265.079 140.61 273.029 140.55 272.999 139.06C272.969 137.57 265.439 134.98 265.199 138.61Z" fill="#BF8228"/>
<path d="M260.349 148.46C260.349 148.739 260.432 149.012 260.587 149.243C260.742 149.475 260.962 149.656 261.22 149.763C261.477 149.869 261.761 149.897 262.034 149.843C262.308 149.789 262.559 149.654 262.756 149.457C262.953 149.26 263.088 149.009 263.142 148.735C263.196 148.462 263.169 148.178 263.062 147.92C262.955 147.663 262.774 147.443 262.542 147.288C262.311 147.133 262.038 147.05 261.759 147.05C261.385 147.05 261.027 147.199 260.762 147.463C260.498 147.727 260.349 148.086 260.349 148.46V148.46Z" fill="#683F1D"/>
<path d="M271.259 147.82C272.038 147.82 272.669 147.189 272.669 146.41C272.669 145.631 272.038 145 271.259 145C270.48 145 269.849 145.631 269.849 146.41C269.849 147.189 270.48 147.82 271.259 147.82Z" fill="#683F1D"/>
<path d="M260.939 159.4C260.069 161.35 257.249 162 254.629 160.84C252.009 159.68 250.629 157.15 251.449 155.2C252.269 153.25 255.139 152.61 257.759 153.77C260.379 154.93 261.799 157.45 260.939 159.4Z" fill="#F4A789"/>
<path d="M280.999 159.39C278.879 160.33 276.619 160.01 275.599 158.49C274.409 156.72 275.369 153.99 277.749 152.39C277.98 152.235 278.221 152.095 278.469 151.97C279.039 153.36 279.549 154.74 279.999 156.09C280.359 157.16 280.679 158.21 280.949 159.21C280.969 159.27 280.979 159.33 280.999 159.39Z" fill="#F4A789"/>
<path d="M308.809 320.15C319.519 318.77 323.249 316.35 327.399 314.76C331.549 313.17 334.659 313.38 335.139 315.76C335.139 315.76 339.279 313.91 340.669 314.65C342.739 315.76 341.439 319.65 335.149 322.35C328.859 325.05 310.259 332.69 306.809 331.65C303.359 330.61 300.739 323.97 308.809 320.15Z" fill="#FEBD9D" stroke="#C6A86D" stroke-width="0.75" stroke-linecap="round" stroke-linejoin="round"/>
<path d="M305.673 327.77L305.669 327.27L305.673 327.77L305.673 327.77L305.674 327.77L305.678 327.77L305.694 327.77L305.758 327.769L306.003 327.768C306.215 327.766 306.518 327.764 306.887 327.762C307.624 327.757 308.621 327.751 309.66 327.748C311.748 327.74 313.982 327.74 314.647 327.77C314.791 327.776 314.974 327.751 315.156 327.719C315.35 327.685 315.585 327.633 315.852 327.568C316.389 327.439 317.077 327.25 317.869 327.019C319.455 326.558 321.475 325.926 323.562 325.252C327.736 323.905 332.191 322.388 333.997 321.741C334.873 321.427 335.698 321.213 336.41 321.111C337.132 321.009 337.696 321.027 338.075 321.14C338.435 321.248 338.559 321.412 338.593 321.6C338.638 321.847 338.56 322.296 338.13 323.013C337.958 323.299 337.54 323.712 336.85 324.236C336.177 324.749 335.296 325.332 334.257 325.966C332.181 327.234 329.511 328.683 326.699 330.149C324.309 331.395 321.813 332.655 319.5 333.823C316.392 335.392 313.616 336.793 311.884 337.764C308.89 339.442 301.263 343.058 294.362 346.264C290.916 347.865 287.659 349.36 285.262 350.455C284.064 351.002 283.082 351.45 282.399 351.76C282.287 351.811 282.183 351.859 282.087 351.902L283.694 325.14C286.563 324.642 288.648 323.518 290.353 322.322C291.076 321.815 291.735 321.292 292.347 320.806C292.485 320.697 292.62 320.589 292.753 320.485C293.487 319.906 294.155 319.403 294.832 319.027C296.219 318.256 299.784 316.865 303.405 315.547C307.01 314.236 310.606 313.02 312.021 312.599C313.413 312.186 315.171 311.968 316.349 312.201C316.946 312.319 317.276 312.528 317.411 312.757C317.529 312.958 317.587 313.335 317.224 314.041L317.224 314.041L317.221 314.047C317.078 314.335 316.811 314.669 316.416 315.054C316.025 315.435 315.534 315.843 314.967 316.281C314.446 316.685 313.871 317.107 313.263 317.553C313.211 317.591 313.159 317.63 313.106 317.668C312.443 318.156 311.746 318.67 311.054 319.21C309.672 320.287 308.292 321.48 307.216 322.798C306.139 324.115 305.34 325.587 305.171 327.219L305.114 327.774L305.673 327.77Z" fill="#FEBD9D" stroke="#C6A86D"/>
<path d="M329.059 329.46C333.799 326.94 337.769 324.58 338.559 323.28C340.359 320.28 337.429 319.99 333.829 321.28C330.229 322.57 316.029 327.34 314.669 327.28C313.309 327.22 305.669 327.28 305.669 327.28C306.289 321.28 316.229 317.17 317.669 314.28C319.269 311.17 314.739 311.28 311.879 312.13C310.209 312.63 305.539 314.21 301.389 315.76" stroke="#C6A86D" stroke-width="0.75" stroke-linecap="round" stroke-linejoin="round"/>
<path d="M315.719 323.27C322.219 321.18 333.189 316.75 335.139 315.79" stroke="#C6A86D" stroke-width="0.75" stroke-linecap="round" stroke-linejoin="round"/>
<path d="M305.669 327.27C305.536 328.021 305.536 328.789 305.669 329.54" stroke="#C6A86D" stroke-width="0.75" stroke-linecap="round" stroke-linejoin="round"/>
<path d="M282.759 355.897L273.869 357.608L272.766 325.25H282.759V355.897Z" fill="#683F1D" stroke="#C6A86D"/>
<path d="M167.987 378.961L167.986 378.961C160.169 378.37 154.451 374.085 150.985 368.286C147.513 362.475 146.312 355.152 147.56 348.553L147.56 348.553L147.562 348.542C148.355 343.76 150.72 339.379 154.283 336.092C156.878 333.822 159.786 331.937 162.918 330.494C166.387 328.896 170.024 327.691 173.761 326.9H173.809H173.86L173.91 326.89L175.165 326.631L176.827 326.322C177.52 326.203 178.214 326.094 178.917 325.995C178.917 325.995 178.918 325.995 178.919 325.995L179.365 325.936L179.372 325.935L179.379 325.934C179.797 325.866 180.206 325.817 180.637 325.767L181.988 325.61H182.019H182.043L182.067 325.608L183.397 325.478L183.397 325.478L183.403 325.477C183.855 325.428 184.318 325.389 184.771 325.359L184.775 325.359L186.155 325.259L186.156 325.259C187.077 325.189 187.987 325.14 188.897 325.11H189.889H190.469V325.11L190.48 325.11L193.114 325.05H194.339H194.345H194.351H194.357H194.364H194.37H194.376H194.382H194.388H194.395H194.401H194.407H194.413H194.42H194.426H194.432H194.438H194.444H194.451H194.457H194.463H194.469H194.475H194.482H194.488H194.494H194.5H194.506H194.513H194.519H194.525H194.531H194.537H194.544H194.55H194.556H194.562H194.568H194.575H194.581H194.587H194.593H194.599H194.606H194.612H194.618H194.624H194.63H194.637H194.643H194.649H194.655H194.661H194.668H194.674H194.68H194.686H194.692H194.699H194.705H194.711H194.717H194.723H194.73H194.736H194.742H194.748H194.754H194.761H194.767H194.773H194.779H194.785H194.792H194.798H194.804H194.81H194.816H194.823H194.829H194.835H194.841H194.847H194.853H194.86H194.866H194.872H194.878H194.884H194.891H194.897H194.903H194.909H194.915H194.922H194.928H194.934H194.94H194.946H194.952H194.959H194.965H194.971H194.977H194.983H194.99H194.996H195.002H195.008H195.014H195.021H195.027H195.033H195.039H195.045H195.051H195.058H195.064H195.07H195.076H195.082H195.088H195.095H195.101H195.107H195.113H195.119H195.126H195.132H195.138H195.144H195.15H195.156H195.163H195.169H195.175H195.181H195.187H195.194H195.2H195.206H195.212H195.218H195.224H195.231H195.237H195.243H195.249H195.255H195.261H195.268H195.274H195.28H195.286H195.292H195.298H195.305H195.311H195.317H195.323H195.329H195.335H195.342H195.348H195.354H195.36H195.366H195.372H195.379H195.385H195.391H195.397H195.403H195.409H195.416H195.422H195.428H195.434H195.44H195.446H195.453H195.459H195.465H195.471H195.477H195.483H195.49H195.496H195.502H195.508H195.514H195.52H195.527H195.533H195.539H195.545H195.551H195.557H195.563H195.57H195.576H195.582H195.588H195.594H195.6H195.607H195.613H195.619H195.625H195.631H195.637H195.643H195.65H195.656H195.662H195.668H195.674H195.68H195.687H195.693H195.699H195.705H195.711H195.717H195.723H195.73H195.736H195.742H195.748H195.754H195.76H195.766H195.773H195.779H195.785H195.791H195.797H195.803H195.809H195.816H195.822H195.828H195.834H195.84H195.846H195.852H195.859H195.865H195.871H195.877H195.883H195.889H195.895H195.902H195.908H195.914H195.92H195.926H195.932H195.938H195.945H195.951H195.957H195.963H195.969H195.975H195.981H195.988H195.994H196H196.006H196.012H196.018H196.024H196.03H196.037H196.043H196.049H196.055H196.061H196.067H196.073H196.079H196.086H196.092H196.098H196.104H196.11H196.116H196.122H196.129H196.135H196.141H196.147H196.153H196.159H196.165H196.171H196.178H196.184H196.19H196.196H196.202H196.208H196.214H196.22H196.226H196.233H196.239H196.245H196.251H196.257H196.263H196.269H196.275H196.282H196.288H196.294H196.3H196.306H196.312H196.318H196.324H196.33H196.337H196.343H196.349H196.355H196.361H196.367H196.373H196.379H196.385H196.392H196.398H196.404H196.41H196.416H196.422H196.428H196.434H196.44H196.447H196.453H196.459H196.465H196.471H196.477H196.483H196.489H196.495H196.501H196.508H196.514H196.52H196.526H196.532H196.538H196.544H196.55H196.556H196.563H196.569H196.575H196.581H196.587H196.593H196.599H196.605H196.611H196.617H196.623H196.63H196.636H196.642H196.648H196.654H196.66H196.666H196.672H196.678H196.684H196.691H196.697H196.703H196.709H196.715H196.721H196.727H196.733H196.739H196.745H196.751H196.757H196.764H196.77H196.776H196.782H196.788H196.794H196.8H196.806H196.812H196.818H196.824H196.83H196.837H196.843H196.849H196.855H196.861H196.867H196.873H196.879H196.885H196.891H196.897H196.903H196.91H196.916H196.922H196.928H196.934H196.94H196.946H196.952H196.958H196.964H196.97H196.976H196.982H196.988H196.995H197.001H197.007H197.013H197.019H197.025H197.031H197.037H197.043H197.049H197.055H197.061H197.067H197.073H197.079H197.086H197.092H197.098H197.104H197.11H197.116H197.122H197.128H197.134H197.14H197.146H197.152H197.158H197.164H197.17H197.176H197.183H197.189H197.195H197.201H197.207H197.213H197.219H197.225H197.231H197.237H197.243H197.249H197.255H197.261H197.267H197.273H197.279H197.285H197.291H197.298H197.304H197.31H197.316H197.322H197.328H197.334H197.34H197.346H197.352H197.358H197.364H197.37H197.376H197.382H197.388H197.394H197.4H197.406H197.412H197.418H197.424H197.43H197.437H197.443H197.449H197.455H197.461H197.467H197.473H197.479H199.289H199.383L202.817 325.13L202.817 325.13H202.829C204.201 325.13 205.538 325.177 206.838 325.223C207.425 325.244 208.004 325.264 208.575 325.28L208.575 325.28H208.589H210.589L214.709 325.28L214.715 325.28C222.364 325.19 237.348 324.822 250.416 324.477C256.95 324.305 263.007 324.138 267.43 324.014C269.642 323.952 271.445 323.901 272.695 323.866L274.138 323.824L274.149 323.824C274.159 324.09 274.174 324.457 274.192 324.913C274.233 325.921 274.291 327.361 274.363 329.091C274.507 332.551 274.704 337.17 274.919 341.807C275.134 346.443 275.367 351.099 275.581 354.631C275.688 356.396 275.79 357.884 275.884 358.951C275.931 359.483 275.976 359.916 276.019 360.228C276.026 360.281 276.033 360.331 276.041 360.379C275.942 360.41 275.824 360.445 275.686 360.485C275.135 360.644 274.303 360.865 273.218 361.137C271.049 361.683 267.889 362.435 263.996 363.324C256.212 365.102 245.506 367.426 233.961 369.74C221.31 372.274 207.656 374.797 195.736 376.578C183.798 378.362 173.652 379.392 167.987 378.961Z" fill="#DFC081" stroke="#C6A86D"/>
<path d="M274.659 323.27C274.659 323.27 230.029 324.56 214.739 324.75C204.559 324.87 188.319 323.18 173.739 326.38" stroke="#C6A86D" stroke-width="0.75" stroke-linecap="round" stroke-linejoin="round"/>
<path d="M167.949 379.5C179.309 380.363 208.241 375.427 233.399 370.402C233.224 370.272 233.041 370.139 232.852 370.001M167.949 379.5L189.089 362.38C189.845 362.028 190.582 361.637 191.299 361.21C206.46 352.176 225.999 364.339 233.518 369.868C233.296 369.913 233.074 369.957 232.852 370.001M167.949 379.5C151.949 378.29 144.529 361.93 147.069 348.5M167.949 379.5L147.069 348.5M232.852 370.001C229.149 367.313 222.856 363.264 215.686 360.748C207.886 358.011 199.141 357.119 191.555 361.64C190.825 362.075 190.073 362.472 189.303 362.832C179.737 367.458 169.128 366.33 162.294 361.594C158.871 359.222 156.382 355.933 155.473 351.999C154.564 348.061 155.252 343.535 158.077 338.717L158.079 338.715C159.525 336.272 160.77 333.716 161.801 331.072M232.852 370.001C220.515 372.46 207.309 374.889 195.736 376.618C183.798 378.402 173.652 379.432 167.987 379.002L167.986 379.002C160.169 378.41 154.451 374.125 150.985 368.326C147.513 362.515 146.312 355.192 147.56 348.593L147.56 348.593L147.562 348.582C148.355 343.8 150.72 339.419 154.283 336.132M154.283 336.132C156.567 334.134 159.093 332.434 161.801 331.072M154.283 336.132C154.281 336.133 154.28 336.135 154.278 336.136L153.949 335.76M154.283 336.132C154.285 336.131 154.286 336.129 154.288 336.128L153.949 335.76M161.801 331.072C161.89 330.844 161.978 330.615 162.064 330.385M161.801 331.072C162.02 330.962 162.24 330.854 162.461 330.749C161.384 333.598 160.061 336.348 158.509 338.97L162.064 330.385M162.064 330.385C159.132 331.806 156.402 333.613 153.949 335.76M162.064 330.385L147.069 348.5M147.069 348.5C147.881 343.606 150.302 339.123 153.949 335.76" fill="#C6A86D" stroke="#C6A86D"/>
<path d="M275.269 361.13C270.429 362.44 253.429 366.35 234.059 370.23C208.749 375.3 179.409 380.33 167.949 379.46" stroke="#C6A86D" stroke-width="0.75" stroke-linecap="round" stroke-linejoin="round"/>
</svg>
