<svg width="501" height="294" viewBox="0 0 501 294" fill="none" xmlns="http://www.w3.org/2000/svg">
<mask id="path-1-inside-1_190_21" fill="white">
<path d="M0.100098 250.2C42.6125 273.1 95.8376 289.8 162.933 294ZM459.392 141.2C459.618 140.9 459.73 140.6 459.956 140.3C495.251 83.4 499.875 28.9 500.1 0M351.701 244.3C390.718 221.1 424.209 191 449.018 156.6ZM183.23 293.9C237.47 292 289.23 277.4 334.448 253.9Z"/>
</mask>
<path d="M459.956 140.3L460.755 140.901L460.782 140.865L460.806 140.827L459.956 140.3ZM-0.374142 251.08C42.2717 274.052 95.6382 290.79 162.87 294.998L162.995 293.002C96.0369 288.811 42.9533 272.148 0.574337 249.32L-0.374142 251.08ZM460.191 141.801C460.349 141.591 460.464 141.385 460.545 141.241C460.633 141.085 460.688 140.991 460.755 140.901L459.156 139.699C458.999 139.909 458.884 140.115 458.803 140.259C458.715 140.415 458.66 140.509 458.593 140.599L460.191 141.801ZM460.806 140.827C496.234 83.7122 500.874 29.0068 501.1 0.00780357L499.1 -0.00780357C498.875 28.7932 494.268 83.0879 459.106 139.773L460.806 140.827ZM352.212 245.16C391.337 221.895 424.934 191.705 449.829 157.185L448.206 156.015C423.485 190.295 390.099 220.305 351.19 243.44L352.212 245.16ZM183.265 294.899C237.662 292.994 289.566 278.352 334.909 254.787L333.987 253.013C288.893 276.448 237.279 291.006 183.195 292.901L183.265 294.899Z" fill="black" mask="url(#path-1-inside-1_190_21)"/>
<mask id="path-3-inside-2_190_21" fill="white">
<path d="M0.100098 250.2C42.6125 273.1 95.8376 289.8 162.933 294ZM459.392 141.2C459.618 140.9 459.73 140.6 459.956 140.3C495.251 83.4 499.875 28.9 500.1 0M351.701 244.3C390.718 221.1 424.209 191 449.018 156.6ZM183.23 293.9C237.47 292 289.23 277.4 334.448 253.9Z"/>
</mask>
<path d="M459.956 140.3L460.755 140.901L460.782 140.865L460.806 140.827L459.956 140.3ZM-0.374142 251.08C42.2717 274.052 95.6382 290.79 162.87 294.998L162.995 293.002C96.0369 288.811 42.9533 272.148 0.574337 249.32L-0.374142 251.08ZM460.191 141.801C460.349 141.591 460.464 141.385 460.545 141.241C460.633 141.085 460.688 140.991 460.755 140.901L459.156 139.699C458.999 139.909 458.884 140.115 458.803 140.259C458.715 140.415 458.66 140.509 458.593 140.599L460.191 141.801ZM460.806 140.827C496.234 83.7122 500.874 29.0068 501.1 0.00780357L499.1 -0.00780357C498.875 28.7932 494.268 83.0879 459.106 139.773L460.806 140.827ZM352.212 245.16C391.337 221.895 424.934 191.705 449.829 157.185L448.206 156.015C423.485 190.295 390.099 220.305 351.19 243.44L352.212 245.16ZM183.265 294.899C237.662 292.994 289.566 278.352 334.909 254.787L333.987 253.013C288.893 276.448 237.279 291.006 183.195 292.901L183.265 294.899Z" fill="black" mask="url(#path-3-inside-2_190_21)"/>
</svg>
