<?xml version="1.0" encoding="UTF-8"?>
<svg id="Layer_1" data-name="Layer 1" xmlns="http://www.w3.org/2000/svg" viewBox="0 0 266.52 261.2">
  <defs>
    <style>
      .cls-1 {
        fill: #415b63;
      }

      .cls-2 {
        fill: #bfb39c;
      }
    </style>
  </defs>
  <g>
    <path class="cls-1" d="M214.86,65.57c-7.71-2.45-16-4.25-23.44-5.55-3.61-.63-7.27-1.18-10.92-1.66-12.59-1.67-25.11-2.5-35.51-2.7-5.25-.09-9.97-.02-13.88.18-9.96.52-18.73,1.09-29.08,2.17-1.66.19-3.34.41-5.07.65-1.69.24-3.42.51-5.23.81-6.52,1.08-12.84,2.38-19.56,3.77-3.62.84-7.11,1.73-10.45,2.68-17.38,4.91-30.89,11.22-39.46,18.47l-.1.09c-5.47,4.93-8.12,9.98-7.87,15.02.24,5.14,3.5,10,9.69,14.46,2.92,2.11,6.48,4.12,10.55,5.95l.34.15.37.16s.04.02.08.03l.03.02h.04s.04.03.04.03c7.2,2.96,16.19,4.98,26.29,6.35,6.61.9,13.69,1.5,21.06,1.9l-.5-12.33c-4.29-.28-12.12-1.01-20.56-2.9-2.31-.51-4.68-1.12-7.02-1.82-20.89-6.26-16.59-17.25-2.82-25.94,1.62-1.29,5.77-3.69,9.84-5.83,2.78-1.47,5.53-2.8,7.39-3.58,3.04-1.28,6.67-2.54,10.79-3.75,5.55-1.63,11.25-3.09,17.04-4.35,4.39-.96,8.84-1.82,13.31-2.56,3.08-.51,6.21-.98,9.33-1.38,6.2-.82,12.63-1.44,19.16-1.86,30.36-1.92,56.59,1.15,75.74,4.87.99.2,1.34-1.24.38-1.55Z"/>
    <path class="cls-2" d="M180.5,58.36c-12.59-1.67-25.11-2.5-35.51-2.7-.01-.05-.03-.19-.04-.27-1.92-11.43-11.88-20.16-23.84-20.16-13.07,0-23.77,10.44-24.15,23.43-.02.24-.02.48-.02.73v94.72h-35.22V59.39C61.72,26.64,88.36,0,121.11,0s58.57,25.83,59.38,57.88c0,.13.01.36.01.48Z"/>
    <rect class="cls-1" x="116.63" y="84.48" width="63.88" height="31.61"/>
    <g>
      <path class="cls-2" d="M254.99,162.93c-1.61,5.03-5.55,10.02-11.8,14.77-14.53,11.08-39.8,19.61-71.16,24.01-14.86,2.08-30.24,3.12-45.49,3.12-16.92,0-33.67-1.28-49.34-3.84-29.82-4.86-52.18-13.74-62.98-25.01-9.58-10-8.91-21.04,1.59-31.06,1.24-1.19,13.07-11.77,36.45-11.84.03,0,.04.04.01.05-18.97,4.4-28.87,9.6-31.65,14.13,0,.01,0,.01,0,.02-4.49,7.78-3.21,15.83,3.91,23.27,16.56,17.28,60.8,27.87,108.78,27.87,14.48,0,29.3-.97,43.81-3,40.45-5.68,68.76-18.2,77.88-32.49Z"/>
      <g>
        <path class="cls-1" d="M145.31,183c3.08-.28,6.2-.63,9.27-1.03,8.2-1.06,16.28-2.52,24.13-4.34,1.17-4.65,1.8-9.51,1.8-14.51v-42.9h-35.23v42.9c0,8.78-4.71,16.48-11.73,20.71,3.98-.2,7.91-.47,11.76-.83Z"/>
        <path class="cls-1" d="M108.92,183.98c-7.16-4.2-11.98-11.97-11.98-20.86v-4.61h-35.22v4.61c0,5.37.73,10.56,2.07,15.51,12.82,2.56,28.09,4.69,45.13,5.35Z"/>
        <path class="cls-1" d="M126.54,207.83c-16.73,0-32.95-1.23-48.28-3.64,10.82,11.29,26.02,18.33,42.85,18.33,15.94,0,30.43-6.33,41.11-16.58-11.7,1.25-23.66,1.89-35.68,1.89Z"/>
      </g>
      <path class="cls-1" d="M252.23,153.65c.04,5.24-2.81,10.38-8.47,15.27l-.11.09c-10.56,8.56-28.09,15.43-50.72,19.89-6.78,1.16-13.14,2.24-19.71,3.09-3.68.48-7.06.83-10.35,1.09-10.38.68-19.17.9-29.14,1.02-.51.01-1.03.01-1.56.01-14.1,0-37.15-2.1-58.53-6.91-10.75-2.42-23.26-6.03-33.1-11.14,18.05,5.24,45.79,11.13,79.24,11.13,2.17,0,4.37-.03,6.58-.08,6.55-.15,13-.53,19.23-1.12,3.13-.29,6.28-.64,9.37-1.04,10.44-1.35,20.74-3.34,30.61-5.91,4.16-1.08,7.84-2.24,10.94-3.44,4.66-1.79,14.77-6.92,17.59-9.05,14.12-8.45,18.86-19.7-1.76-27.1-10.07-3.61-20.51-5.26-26.27-5.95-.39-.04-1-.08-1.35-.12v-12.84c.35.03.94.07,1.28.1,18.16,1.85,34.47,4.99,45.95,10.48l.04.02.05.02h.02s.06.03.08.05l.36.18.34.17c3.98,2.07,7.46,4.31,10.3,6.63,6,4.9,9.06,10.1,9.09,15.46Z"/>
    </g>
  </g>
  <g>
    <path class="cls-1" d="M.23,255.03c-.05-.98-.13-2-.23-3.06.93.3,1.67.51,2.2.62s1.05.16,1.55.16c.4,0,.79-.06,1.17-.17.33-.09.63-.22.89-.37.19-.13.35-.27.47-.42.19-.22.34-.48.46-.77.12-.31.21-.73.28-1.26.09-.7.17-1.87.24-3.5.05-1.28.1-2.71.14-4.29.03-1.33.05-2.73.05-4.2,1.02.02,1.68.03,1.97.03.34,0,1.03,0,2.06-.03l-.35,5.51c-.07,1.33-.14,3.15-.22,5.46-.05,1.59-.14,2.67-.26,3.25-.09.45-.22.84-.4,1.18-.16.31-.36.58-.6.82-.28.27-.62.52-1.03.73-.52.28-1.08.49-1.67.63-.66.16-1.37.24-2.15.24-1.31,0-2.84-.19-4.58-.58Z"/>
    <path class="cls-1" d="M14.59,245.11c.12-.62.19-1.05.22-1.3.03-.25.08-.62.16-1.13,1.17-.27,2.19-.47,3.08-.58.89-.11,1.75-.17,2.58-.17.94,0,1.81.11,2.59.33.79.22,1.4.57,1.85,1.05s.67,1.17.67,2.07c0,.49-.07,1.73-.2,3.73-.14,2-.22,4.06-.24,6.2-.65-.02-1.25-.03-1.8-.03s-1.13,0-1.84.03c.11-1.04.2-2.24.27-3.6l.17-3.2c-.33.21-.57.36-.75.45-.17.09-.36.17-.58.24-.21.07-.59.18-1.13.33-.54.15-.97.28-1.3.39-.33.11-.62.24-.88.38-.26.14-.48.3-.66.48-.18.18-.31.36-.39.55-.08.19-.12.4-.12.62,0,.36.1.67.31.93s.47.44.79.55c.32.1.69.15,1.12.15.27,0,.56-.02.87-.06.3-.04.71-.15,1.23-.32-.18.49-.39,1.22-.63,2.18-.61.1-1.09.17-1.45.19-.36.03-.69.04-1,.04-1.08,0-1.96-.14-2.66-.44s-1.21-.75-1.53-1.39c-.33-.63-.5-1.27-.5-1.91,0-.37.06-.73.19-1.09.13-.36.32-.69.57-.99.25-.3.57-.59.96-.87.39-.28.96-.55,1.71-.81.75-.26,1.73-.52,2.96-.79.33-.07.66-.15,1.02-.25.35-.1.63-.2.84-.29s.39-.22.55-.37.27-.31.34-.47c.07-.16.11-.33.11-.5,0-.33-.11-.62-.33-.85s-.5-.39-.85-.48c-.35-.09-.73-.14-1.15-.14-1.56,0-3.28.37-5.17,1.12Z"/>
    <path class="cls-1" d="M27.67,255.06l-.28-2.83c.84.34,1.55.58,2.13.71.58.13,1.12.2,1.61.2s.9-.06,1.23-.17.58-.29.75-.51c.16-.23.24-.46.24-.71,0-.11-.01-.21-.03-.31-.02-.09-.06-.19-.12-.29s-.12-.2-.19-.29c-.07-.09-.17-.19-.3-.31-.13-.12-.31-.26-.55-.44l-.69-.55c-.67-.52-1.18-.93-1.53-1.23-.35-.3-.65-.61-.89-.92-.24-.31-.42-.64-.55-.99-.12-.35-.19-.7-.19-1.06,0-.62.19-1.22.57-1.79.38-.56.94-.98,1.66-1.24.73-.26,1.58-.39,2.57-.39,1.12,0,2.42.13,3.88.4l.17,2.68c-.99-.4-1.95-.6-2.86-.6-.5,0-.93.05-1.3.15-.37.1-.64.25-.8.45-.16.2-.24.43-.24.67,0,.15.03.29.08.43.05.14.14.29.27.44.13.15.28.3.44.44s.52.41,1.05.81c.53.4,1,.77,1.39,1.09.4.33.73.65.98.98.26.33.45.68.59,1.06s.21.76.21,1.14c0,.64-.2,1.24-.59,1.79-.39.55-.99.98-1.79,1.28-.8.31-1.69.46-2.67.46-.51,0-1.14-.04-1.88-.12-.74-.08-1.52-.22-2.36-.43Z"/>
    <path class="cls-1" d="M38.73,261.2c.21-2.39.41-5.48.58-9.29s.26-6.89.26-9.26c1.63-.29,2.88-.48,3.77-.58.89-.09,1.78-.14,2.66-.14,1.16,0,2.21.14,3.18.41.96.27,1.73.73,2.31,1.37.58.64,1.01,1.39,1.28,2.24s.42,1.73.42,2.66-.13,1.83-.4,2.7c-.26.86-.67,1.64-1.22,2.33-.55.69-1.18,1.19-1.91,1.5s-1.51.47-2.37.47c-.5,0-1-.06-1.5-.18-.49-.12-.92-.28-1.3-.47s-.68-.4-.92-.6c-.24-.2-.54-.5-.91-.91l-.2,5.59v.87c-.02.11-.03.54-.03,1.29-.79,0-1.4-.01-1.83-.01h-1.9ZM43.11,245.02c-.06.46-.1.86-.13,1.19l-.08,1.43c-.04.62-.05,1.07-.05,1.36,0,.52.05,1.02.16,1.5.11.48.32.92.64,1.32.32.4.7.71,1.15.92.44.21.9.31,1.37.31.65,0,1.25-.19,1.78-.56.54-.37.95-.92,1.24-1.63.29-.72.44-1.48.44-2.3,0-.9-.16-1.66-.48-2.28-.32-.62-.75-1.07-1.29-1.35-.54-.28-1.15-.42-1.84-.42-.89,0-1.86.17-2.91.51Z"/>
    <path class="cls-1" d="M66.56,252.39c-.11.5-.27,1.41-.47,2.72-.92.2-1.7.33-2.34.4-.63.07-1.27.1-1.91.1-1.12,0-2.13-.11-3.01-.33-.89-.22-1.66-.63-2.33-1.23-.67-.59-1.16-1.32-1.48-2.19-.32-.86-.47-1.77-.47-2.72,0-1.05.18-2.07.55-3.06.37-.99.88-1.8,1.55-2.42s1.42-1.07,2.27-1.33,1.73-.39,2.66-.39c.87,0,1.7.11,2.49.33.79.22,1.45.57,1.98,1.07.54.5.95,1.09,1.23,1.79.29.7.43,1.47.43,2.33,0,.4-.04.82-.13,1.24h-9.41c-.02.33-.03.58-.03.77,0,.57.1,1.1.3,1.58.2.48.48.89.86,1.22s.83.58,1.35.74c.52.16,1.04.24,1.54.24.59,0,1.23-.06,1.92-.19.69-.13,1.51-.35,2.46-.65ZM58.26,247.2h6.01c0-.4-.01-.7-.04-.89-.03-.2-.08-.42-.17-.67s-.21-.47-.37-.67-.33-.35-.54-.48c-.21-.13-.44-.23-.71-.29-.27-.07-.56-.1-.87-.1-.36,0-.71.06-1.05.17-.34.11-.65.27-.93.49-.28.21-.51.45-.69.72-.18.26-.31.52-.39.76-.09.24-.17.57-.26.98Z"/>
    <path class="cls-1" d="M69.13,255.3l.37-6.1.1-3.54c.02-.73.03-1.46.03-2.2,0-.13,0-.54-.03-1.22.8.02,1.38.03,1.76.03.44,0,1.01,0,1.73-.03l-.06,1.81c.33-.46.6-.81.83-1.03s.49-.42.78-.58c.29-.16.61-.29.96-.37.35-.09.71-.13,1.08-.13.34,0,.69.04,1.05.13,0,.8.04,1.81.12,3.03-.51-.14-.96-.21-1.38-.21-.5,0-.94.07-1.32.22-.38.15-.72.38-1.03.68-.3.3-.55.68-.75,1.12-.16.36-.28.83-.36,1.4-.07.45-.12,1.21-.17,2.29-.05,1.08-.07,2.14-.07,3.18,0,.4.01.91.04,1.52-.65-.02-1.25-.03-1.79-.03s-1.17,0-1.9.03Z"/>
    <path class="cls-1" d="M95.27,245.29c1.18.02,2.31.03,3.39.03,1.41,0,2.59,0,3.53-.03-.22,2.87-.38,6.05-.48,9.56-1.42.28-2.71.48-3.85.6-1.15.12-2.12.17-2.93.17-1.51,0-2.9-.16-4.19-.47s-2.38-.83-3.27-1.54c-.89-.71-1.57-1.65-2.04-2.81-.47-1.16-.7-2.39-.7-3.68,0-1.1.17-2.17.52-3.2.35-1.03.86-1.97,1.54-2.83.68-.86,1.5-1.57,2.47-2.14.96-.57,1.99-.96,3.07-1.17,1.08-.21,2.23-.31,3.44-.31,1.66,0,3.57.22,5.73.67,0,.97.06,1.99.14,3.06-2.02-.68-3.85-1.01-5.48-1.01-1.05,0-2.05.15-2.99.45s-1.75.76-2.43,1.39-1.2,1.41-1.55,2.34c-.36.93-.53,1.89-.53,2.88,0,1.1.2,2.09.61,2.96.41.87,1.09,1.54,2.05,2.02.96.48,2.06.72,3.3.72.45,0,.99-.04,1.61-.12.62-.08,1.26-.22,1.93-.42l.21-4.51h-1.02c-.58-.01-1.3,0-2.19.03.08-1.15.12-2.02.12-2.63Z"/>
    <path class="cls-1" d="M104.49,255.3c.13-1.45.28-4.05.47-7.8.18-3.75.3-7,.34-9.73.89.02,1.53.03,1.9.03.51,0,1.12,0,1.85-.03l-.31,4.69-.45,10.45-.05,2.39c-.7-.02-1.3-.03-1.79-.03-.16,0-.82,0-1.97.03Z"/>
    <path class="cls-1" d="M117.97,241.93c.98,0,1.93.15,2.83.44s1.67.73,2.3,1.31c.63.58,1.1,1.28,1.42,2.12.32.83.48,1.71.48,2.64,0,.98-.17,1.92-.5,2.83-.33.91-.82,1.69-1.45,2.36-.63.66-1.42,1.16-2.37,1.49-.95.33-1.95.49-3.02.49-.99,0-1.94-.15-2.83-.44s-1.66-.74-2.29-1.33c-.63-.59-1.12-1.31-1.45-2.16-.33-.85-.49-1.73-.49-2.66s.15-1.84.45-2.7c.3-.86.77-1.62,1.41-2.29.64-.67,1.45-1.19,2.45-1.55.99-.37,2.02-.55,3.08-.55ZM117.97,244.58c-.74,0-1.41.18-1.99.54-.58.37-1.02.91-1.31,1.62s-.43,1.5-.43,2.35c0,.75.12,1.41.35,1.99s.62,1.05,1.15,1.41,1.17.54,1.9.54,1.41-.19,1.98-.56c.57-.37.99-.92,1.28-1.64.29-.72.43-1.52.43-2.4,0-.71-.11-1.36-.33-1.94s-.6-1.05-1.12-1.4-1.16-.53-1.91-.53Z"/>
    <path class="cls-1" d="M126.71,255.3c.16-1.63.33-4.45.51-8.48.19-4.03.28-7.04.29-9.05.76.02,1.42.03,1.97.03s1.15,0,1.78-.03c-.14,1.21-.26,2.73-.34,4.57.84-.16,1.51-.27,2-.33.5-.06.99-.08,1.48-.08,1.34,0,2.48.21,3.4.64s1.66,1.12,2.21,2.11.83,2.17.83,3.56c0,.98-.14,1.92-.42,2.84-.28.92-.69,1.74-1.25,2.45-.55.72-1.22,1.24-2.01,1.57s-1.64.5-2.57.5c-.45,0-.86-.04-1.24-.12-.38-.08-.73-.2-1.05-.35-.32-.15-.61-.33-.86-.54-.25-.21-.46-.41-.63-.62-.17-.21-.36-.49-.58-.86l-.06,2.18c-.7-.02-1.26-.03-1.66-.03-.31,0-.92,0-1.83.03ZM130.68,244.96l-.1,2.2c-.03.47-.04.93-.04,1.37,0,1.06.11,1.9.33,2.51.22.61.59,1.08,1.11,1.42.52.33,1.1.5,1.75.5.71,0,1.32-.19,1.84-.57s.92-.94,1.2-1.68.42-1.51.42-2.32c0-1.17-.31-2.12-.93-2.83s-1.54-1.07-2.75-1.07c-.39,0-.8.03-1.23.1-.43.06-.96.19-1.59.37Z"/>
    <path class="cls-1" d="M143.55,245.11c.12-.62.19-1.05.22-1.3.03-.25.08-.62.16-1.13,1.17-.27,2.19-.47,3.08-.58.89-.11,1.75-.17,2.58-.17.94,0,1.81.11,2.59.33.79.22,1.4.57,1.85,1.05s.67,1.17.67,2.07c0,.49-.07,1.73-.2,3.73-.14,2-.22,4.06-.24,6.2-.65-.02-1.25-.03-1.8-.03s-1.13,0-1.84.03c.11-1.04.2-2.24.27-3.6l.17-3.2c-.33.21-.57.36-.75.45-.17.09-.36.17-.58.24-.21.07-.59.18-1.13.33-.54.15-.97.28-1.3.39-.33.11-.62.24-.88.38-.26.14-.48.3-.66.48-.18.18-.31.36-.39.55-.08.19-.12.4-.12.62,0,.36.1.67.31.93s.47.44.79.55c.32.1.69.15,1.12.15.27,0,.56-.02.87-.06.3-.04.71-.15,1.23-.32-.18.49-.39,1.22-.63,2.18-.61.1-1.09.17-1.45.19-.36.03-.69.04-1,.04-1.08,0-1.96-.14-2.66-.44s-1.21-.75-1.53-1.39c-.33-.63-.5-1.27-.5-1.91,0-.37.06-.73.19-1.09.13-.36.32-.69.57-.99.25-.3.57-.59.96-.87.39-.28.96-.55,1.71-.81.75-.26,1.73-.52,2.96-.79.33-.07.66-.15,1.02-.25.35-.1.63-.2.84-.29s.39-.22.55-.37.27-.31.34-.47c.07-.16.11-.33.11-.5,0-.33-.11-.62-.33-.85s-.5-.39-.85-.48c-.35-.09-.73-.14-1.15-.14-1.56,0-3.28.37-5.17,1.12Z"/>
    <path class="cls-1" d="M156.98,255.3c.13-1.45.28-4.05.47-7.8.18-3.75.3-7,.34-9.73.89.02,1.53.03,1.9.03.51,0,1.12,0,1.85-.03l-.31,4.69-.45,10.45-.05,2.39c-.7-.02-1.3-.03-1.79-.03-.16,0-.82,0-1.97.03Z"/>
    <path class="cls-1" d="M169.3,254.93c-.07-1.3-.16-2.36-.27-3.19,1.68.76,3.2,1.14,4.57,1.14.55,0,1.06-.08,1.54-.25.47-.17.83-.4,1.05-.71s.34-.64.34-1.02c0-.29-.05-.55-.16-.78-.16-.32-.44-.65-.82-.99-.49-.47-1.36-1.25-2.62-2.32-.6-.52-1.01-.89-1.24-1.12-.51-.49-.91-.93-1.18-1.32-.27-.39-.47-.78-.59-1.16-.12-.39-.18-.8-.18-1.23,0-.8.22-1.56.67-2.27.45-.71,1.12-1.26,2.02-1.66.89-.4,2.02-.6,3.38-.6,1.22,0,2.6.15,4.14.45.04.89.13,1.91.26,3.06-1.33-.51-2.56-.77-3.69-.77-.84,0-1.52.19-2.06.57s-.8.82-.8,1.33c0,.14.02.28.06.43.04.15.09.29.17.44.07.14.21.33.4.55.19.23.47.49.84.8.37.3.68.55.94.74l1.58,1.44c.4.33.76.66,1.08.98.32.32.59.62.81.91s.4.57.53.84c.13.26.22.54.29.81.06.28.1.57.1.88,0,.72-.17,1.4-.5,2.04-.33.64-.81,1.16-1.44,1.57s-1.31.7-2.05.85c-.75.16-1.53.24-2.36.24-.55,0-1.19-.05-1.91-.14-.73-.09-1.69-.27-2.88-.54Z"/>
    <path class="cls-1" d="M195.76,255.3c-.75-.02-1.33-.03-1.74-.03-.51,0-1.08,0-1.72.03l.02-2.13c-.24.36-.45.65-.63.87-.18.22-.42.43-.71.64s-.61.38-.95.5c-.34.12-.73.23-1.17.31-.44.08-.91.12-1.41.12-.96,0-1.79-.14-2.5-.42-.71-.28-1.27-.7-1.69-1.26-.42-.57-.62-1.38-.62-2.43v-.27l.21-3.31.19-4.37c0-.35.01-.79.01-1.31.81.02,1.45.03,1.91.03.49,0,1.08,0,1.77-.03l-.43,5.86c-.03.45-.05.84-.06,1.15s-.02.54-.02.67c0,.62.09,1.13.28,1.54s.5.72.96.93c.46.21.95.32,1.47.32s.97-.09,1.41-.28c.4-.17.75-.41,1.03-.72.29-.31.53-.72.73-1.25.15-.38.26-.9.33-1.57.06-.47.12-1.28.17-2.43.07-1.39.12-2.8.15-4.23.85.02,1.5.03,1.94.03.51,0,1.08,0,1.71-.03-.1,1.22-.21,2.75-.32,4.59-.11,1.84-.19,3.35-.23,4.55-.04,1.19-.08,2.5-.1,3.92Z"/>
    <path class="cls-1" d="M198.12,261.2c.21-2.39.41-5.48.58-9.29s.26-6.89.26-9.26c1.63-.29,2.88-.48,3.77-.58.89-.09,1.78-.14,2.66-.14,1.16,0,2.21.14,3.18.41.96.27,1.73.73,2.31,1.37.58.64,1.01,1.39,1.28,2.24s.42,1.73.42,2.66-.13,1.83-.4,2.7c-.26.86-.67,1.64-1.22,2.33-.55.69-1.18,1.19-1.91,1.5s-1.51.47-2.37.47c-.5,0-1-.06-1.5-.18-.49-.12-.92-.28-1.3-.47s-.68-.4-.92-.6c-.24-.2-.54-.5-.91-.91l-.2,5.59v.87c-.02.11-.03.54-.03,1.29-.79,0-1.4-.01-1.83-.01h-1.9ZM202.5,245.02c-.06.46-.1.86-.13,1.19l-.08,1.43c-.04.62-.05,1.07-.05,1.36,0,.52.05,1.02.16,1.5.11.48.32.92.64,1.32.32.4.7.71,1.15.92.44.21.9.31,1.37.31.65,0,1.25-.19,1.78-.56.54-.37.95-.92,1.24-1.63.29-.72.44-1.48.44-2.3,0-.9-.16-1.66-.48-2.28-.32-.62-.75-1.07-1.29-1.35-.54-.28-1.15-.42-1.84-.42-.89,0-1.86.17-2.91.51Z"/>
    <path class="cls-1" d="M213.97,261.2c.21-2.39.41-5.48.58-9.29s.26-6.89.26-9.26c1.63-.29,2.88-.48,3.77-.58.89-.09,1.78-.14,2.66-.14,1.16,0,2.21.14,3.18.41.96.27,1.73.73,2.31,1.37.58.64,1.01,1.39,1.28,2.24s.42,1.73.42,2.66-.13,1.83-.4,2.7c-.26.86-.67,1.64-1.22,2.33-.55.69-1.18,1.19-1.91,1.5s-1.51.47-2.37.47c-.5,0-1-.06-1.5-.18-.49-.12-.92-.28-1.3-.47s-.68-.4-.92-.6c-.24-.2-.54-.5-.91-.91l-.2,5.59v.87c-.02.11-.03.54-.03,1.29-.79,0-1.4-.01-1.83-.01h-1.9ZM218.35,245.02c-.06.46-.1.86-.13,1.19l-.08,1.43c-.04.62-.05,1.07-.05,1.36,0,.52.05,1.02.16,1.5.11.48.32.92.64,1.32.32.4.7.71,1.15.92.44.21.9.31,1.37.31.65,0,1.25-.19,1.78-.56.54-.37.95-.92,1.24-1.63.29-.72.44-1.48.44-2.3,0-.9-.16-1.66-.48-2.28-.32-.62-.75-1.07-1.29-1.35-.54-.28-1.15-.42-1.84-.42-.89,0-1.86.17-2.91.51Z"/>
    <path class="cls-1" d="M230.16,255.3c.13-1.45.28-4.05.47-7.8.18-3.75.3-7,.34-9.73.89.02,1.53.03,1.9.03.51,0,1.12,0,1.85-.03l-.31,4.69-.45,10.45-.05,2.39c-.7-.02-1.3-.03-1.79-.03-.16,0-.82,0-1.97.03Z"/>
    <path class="cls-1" d="M236.62,255.3c.13-1.28.22-2.36.27-3.22.09-1.37.16-2.95.23-4.74.07-1.79.11-3.49.14-5.1.83.02,1.46.03,1.88.03.38,0,1,0,1.86-.03-.12,1.49-.21,2.91-.28,4.26-.07,1.35-.12,2.9-.16,4.65s-.05,3.13-.05,4.15c-.78-.02-1.41-.03-1.88-.03-.45,0-1.12,0-2.02.03ZM237.32,240.01c.03-.88.05-1.56.05-2.03v-.41c.78.02,1.41.03,1.9.03.67,0,1.29,0,1.86-.03-.03.21-.04.46-.05.73l-.06,1.71c-.65-.02-1.25-.03-1.8-.03s-1.18,0-1.9.03Z"/>
    <path class="cls-1" d="M254.79,252.39c-.11.5-.27,1.41-.47,2.72-.92.2-1.7.33-2.34.4-.63.07-1.27.1-1.91.1-1.12,0-2.13-.11-3.01-.33-.89-.22-1.66-.63-2.33-1.23-.67-.59-1.16-1.32-1.48-2.19-.32-.86-.47-1.77-.47-2.72,0-1.05.18-2.07.55-3.06.37-.99.88-1.8,1.55-2.42s1.42-1.07,2.27-1.33,1.73-.39,2.66-.39c.87,0,1.7.11,2.49.33.79.22,1.45.57,1.98,1.07.54.5.95,1.09,1.23,1.79.29.7.43,1.47.43,2.33,0,.4-.04.82-.13,1.24h-9.41c-.02.33-.03.58-.03.77,0,.57.1,1.1.3,1.58.2.48.48.89.86,1.22s.83.58,1.35.74c.52.16,1.04.24,1.54.24.59,0,1.23-.06,1.92-.19.69-.13,1.51-.35,2.46-.65ZM246.49,247.2h6.01c0-.4-.01-.7-.04-.89-.03-.2-.08-.42-.17-.67s-.21-.47-.37-.67-.33-.35-.54-.48c-.21-.13-.44-.23-.71-.29-.27-.07-.56-.1-.87-.1-.36,0-.71.06-1.05.17-.34.11-.65.27-.93.49-.28.21-.51.45-.69.72-.18.26-.31.52-.39.76-.09.24-.17.57-.26.98Z"/>
    <path class="cls-1" d="M257.03,255.06l-.28-2.83c.84.34,1.55.58,2.13.71.58.13,1.12.2,1.61.2s.9-.06,1.23-.17.58-.29.75-.51c.16-.23.24-.46.24-.71,0-.11-.01-.21-.03-.31-.02-.09-.06-.19-.12-.29s-.12-.2-.19-.29c-.07-.09-.17-.19-.3-.31-.13-.12-.31-.26-.55-.44l-.69-.55c-.67-.52-1.18-.93-1.53-1.23-.35-.3-.65-.61-.89-.92-.24-.31-.42-.64-.55-.99-.12-.35-.19-.7-.19-1.06,0-.62.19-1.22.57-1.79.38-.56.94-.98,1.66-1.24.73-.26,1.58-.39,2.57-.39,1.12,0,2.42.13,3.88.4l.17,2.68c-.99-.4-1.95-.6-2.86-.6-.5,0-.93.05-1.3.15-.37.1-.64.25-.8.45-.16.2-.24.43-.24.67,0,.15.03.29.08.43.05.14.14.29.27.44.13.15.28.3.44.44s.52.41,1.05.81c.53.4,1,.77,1.39,1.09.4.33.73.65.98.98.26.33.45.68.59,1.06s.21.76.21,1.14c0,.64-.2,1.24-.59,1.79-.39.55-.99.98-1.79,1.28-.8.31-1.69.46-2.67.46-.51,0-1.14-.04-1.88-.12-.74-.08-1.52-.22-2.36-.43Z"/>
  </g>
</svg>