<svg width="521" height="405" viewBox="0 0 521 405" fill="none" xmlns="http://www.w3.org/2000/svg">
<path d="M178.029 43.0305C179.629 41.8305 181.239 40.6505 182.879 39.5005" stroke="#DDDDDD" stroke-width="3" stroke-linecap="round" stroke-linejoin="round"/>
<path d="M192.58 33.1403C219.282 16.59 250.065 7.80174 281.48 7.76027C294.633 7.75445 307.74 9.30184 320.53 12.3703" stroke="#DDDDDD" stroke-width="3" stroke-linecap="round" stroke-linejoin="round" stroke-dasharray="11.57 11.57"/>
<path d="M326.08 13.8203C328.007 14.3536 329.927 14.9203 331.84 15.5203" stroke="#DDDDDD" stroke-width="3" stroke-linecap="round" stroke-linejoin="round"/>
<path d="M193.37 394.43C191.66 393.43 189.96 392.33 188.29 391.24" stroke="#DDDDDD" stroke-width="3" stroke-linecap="round" stroke-linejoin="round"/>
<path d="M178.58 384.42C143.41 358.07 116.82 318.6 104.46 272.3" stroke="#DDDDDD" stroke-width="3" stroke-linecap="round" stroke-linejoin="round" stroke-dasharray="11.9 11.9"/>
<path d="M102.959 266.52C102.499 264.58 102.063 262.63 101.649 260.67" stroke="#DDDDDD" stroke-width="3" stroke-linecap="round" stroke-linejoin="round"/>
<path d="M464.34 242.13C464.093 244.13 463.82 246.11 463.52 248.07" stroke="#DDDDDD" stroke-width="3" stroke-linecap="round" stroke-linejoin="round"/>
<path d="M461.35 260.13C458.448 274.128 454.187 287.809 448.63 300.98" stroke="#DDDDDD" stroke-width="3" stroke-linecap="round" stroke-linejoin="round" stroke-dasharray="12.25 12.25"/>
<path d="M446.169 306.63C445.336 308.45 444.483 310.254 443.609 312.04" stroke="#DDDDDD" stroke-width="3" stroke-linecap="round" stroke-linejoin="round"/>
<path d="M145.2 315.54L90.2597 323.66C89.278 323.801 88.2792 323.571 87.4569 323.017C86.6347 322.463 86.0476 321.623 85.8097 320.66L79.4497 290.98C79.3456 290.516 79.3399 290.035 79.4329 289.568C79.5259 289.101 79.7155 288.659 79.9896 288.27C80.2637 287.881 80.6162 287.554 81.0244 287.309C81.4326 287.065 81.8874 286.908 82.3597 286.85L137.3 278.74C138.281 278.6 139.28 278.829 140.103 279.383C140.925 279.937 141.512 280.777 141.75 281.74L148.11 311.35C148.223 311.819 148.236 312.306 148.148 312.78C148.06 313.254 147.872 313.703 147.597 314.099C147.322 314.495 146.966 314.828 146.553 315.077C146.14 315.325 145.678 315.483 145.2 315.54V315.54Z" fill="#F9F9F9" stroke="#DDDDDD" stroke-width="2" stroke-linecap="round" stroke-linejoin="round"/>
<path d="M87.5801 291.69C88.1701 291.58 120.33 302.1 120.33 302.1L135.33 283.18" stroke="#DDDDDD" stroke-width="2" stroke-linecap="round" stroke-linejoin="round"/>
<path d="M95.8799 313.29L113.78 299.97" stroke="#DDDDDD" stroke-width="2" stroke-linecap="round" stroke-linejoin="round"/>
<path d="M128.93 299.97L142.55 304.28" stroke="#DDDDDD" stroke-width="2" stroke-linecap="round" stroke-linejoin="round"/>
<path d="M168.29 361.62L153.99 364.31C153.798 364.346 153.618 364.432 153.47 364.56L144.47 372.42C144.316 372.552 144.128 372.638 143.928 372.669C143.728 372.701 143.523 372.677 143.335 372.599C143.148 372.522 142.986 372.394 142.867 372.23C142.748 372.066 142.676 371.872 142.66 371.67L141.13 347.98C141.115 347.78 141.157 347.58 141.25 347.404C141.344 347.227 141.486 347.08 141.66 346.98C141.812 346.892 141.984 346.846 142.16 346.846C142.336 346.846 142.508 346.892 142.66 346.98L168.58 359.58C168.787 359.679 168.958 359.842 169.066 360.045C169.175 360.247 169.216 360.479 169.183 360.707C169.151 360.934 169.047 361.145 168.886 361.31C168.726 361.474 168.517 361.583 168.29 361.62V361.62Z" fill="white" stroke="#DDDDDD" stroke-width="2" stroke-linecap="round" stroke-linejoin="round"/>
<path d="M168.29 361.62L153.99 364.31C153.798 364.346 153.618 364.432 153.47 364.56L141.66 346.98C141.812 346.892 141.985 346.846 142.16 346.846C142.336 346.846 142.508 346.892 142.66 346.98L168.58 359.58C168.788 359.679 168.958 359.842 169.066 360.045C169.175 360.247 169.216 360.479 169.184 360.707C169.151 360.934 169.047 361.145 168.887 361.31C168.726 361.474 168.517 361.583 168.29 361.62V361.62Z" fill="#DDDDDD" stroke="#DDDDDD" stroke-width="2" stroke-linecap="round" stroke-linejoin="round"/>
<mask id="mask0_184_3681" style="mask-type:alpha" maskUnits="userSpaceOnUse" x="1" y="76" width="213" height="150">
<rect x="1" y="76" width="213" height="150" fill="#C4C4C4"/>
</mask>
<g mask="url(#mask0_184_3681)">
<path d="M169.34 220.67C173.92 222.97 179.85 218.67 186.44 212.85L179.3 206.45C179.3 206.45 168.1 216.89 169.34 220.67Z" fill="#DFC081"/>
<path d="M230.39 193.14L213.86 226.83H179.09L173.3 210.65L192.98 193.14H230.39Z" fill="#FEBD9D"/>
<path d="M203.45 193.14L187.17 218.58" stroke="#F4A789" stroke-width="0.75" stroke-linecap="round" stroke-linejoin="round"/>
<path d="M197.25 195.77C185.46 202.5 169.34 220.67 169.34 220.67L165.01 229.27L162.49 234.27H76.9504C74.9504 227.06 73.2304 217.67 71.9504 210.06C70.9504 204.17 70.3104 199.35 70.0504 197.46L69.9404 196.61C67.7604 198.54 66.7004 198.61 66.7004 198.61L62.7004 209.18L62.3304 210.18C48.1304 200.68 22.1504 199 22.1504 199L25.6404 187.21C24.5919 184.786 24.2991 182.103 24.8004 179.51C25.3704 176.56 33.1904 162.88 41.0704 151.4C44.1774 146.73 47.6233 142.295 51.3804 138.13C51.6904 137.81 52.0104 137.5 52.3304 137.21C61.8404 128.46 77.6004 129.73 87.9604 130.67C89.5004 130.81 90.9604 130.91 92.3204 130.97C95.3816 131.131 98.4492 131.131 101.51 130.97C104.02 130.84 105.4 130.65 105.4 130.65C105.72 129.19 106.02 127.65 106.32 125.96C108.19 115.03 109.24 100.44 107.57 90.8501L133.89 102.6C134.34 107.38 136.1 117.87 137.31 124.77C137.99 128.63 138.48 131.37 138.48 131.37C140.6 130.98 142.6 130.63 144.48 130.31C171.2 125.78 178.08 127.48 185.48 140.51C185.68 140.85 185.87 141.21 186.07 141.59C190.63 150.59 193.74 168.59 195.47 181.31C196.7 189.67 197.25 195.77 197.25 195.77Z" fill="#DFC081"/>
<path d="M197.25 195.77C185.69 202.38 169.94 220 169.35 220.65C169.56 220.21 173 213.09 173.35 210.65C173.7 208.21 172.48 200.99 170.59 194.2L195.59 181.35C196.7 189.67 197.25 195.77 197.25 195.77Z" fill="#DFC081"/>
<path d="M108.23 199.66C108.04 209.24 85.5997 210.59 71.9797 210.06C70.9797 204.17 70.3397 199.35 70.0797 197.46L69.9697 196.61C74.9192 191.589 79.0104 185.788 82.0797 179.44C90.0797 184.9 79.8197 190.51 79.4297 193.14C78.3697 200.35 108.5 185.98 108.23 199.66Z" fill="#DFC081"/>
<path d="M186.17 141.63C178.37 138.92 169.61 139.01 163.54 148.7C149.87 170.52 124.21 187.54 98.5399 161.78C95.0298 158.164 91.1898 154.883 87.0699 151.98C71.8999 141.6 59.0699 143.7 41.1299 151.39C44.2369 146.72 47.6828 142.285 51.4399 138.12C51.7499 137.8 52.0699 137.49 52.3899 137.2C61.8999 128.45 77.6599 129.72 88.0199 130.66C89.5599 130.8 91.0199 130.9 92.3799 130.96C95.4411 131.121 98.5087 131.121 101.57 130.96C104.08 130.83 105.46 130.64 105.46 130.64C105.78 129.18 106.08 127.64 106.38 125.95C108.25 115.02 109.3 100.43 107.63 90.8403L133.95 102.59C134.4 107.37 136.16 117.86 137.37 124.76C138.05 128.62 138.54 131.36 138.54 131.36C140.66 130.97 142.66 130.62 144.54 130.3C171.26 125.77 178.14 127.47 185.54 140.5C185.78 140.89 185.97 141.25 186.17 141.63Z" fill="#DFC081"/>
<path d="M144.58 130.351C144.5 137.111 143.77 149.431 140.83 158.141C137.03 169.441 132.55 164.851 127.63 160.391C123.18 156.331 106.96 142.821 92.3896 130.991C95.4509 131.152 98.5184 131.152 101.58 130.991C104.09 130.861 105.47 130.671 105.47 130.671C105.79 129.211 106.09 127.671 106.39 125.981C116.96 125.291 129.64 124.611 137.39 124.791C138.07 128.651 138.56 131.391 138.56 131.391C140.66 130.981 142.66 130.671 144.58 130.351Z" fill="#C6A86D"/>
<path d="M134.22 156.19C134.22 156.19 111.7 140.87 101.58 130.98C104.09 130.85 105.47 130.66 105.47 130.66C107.88 119.59 109.56 101.91 107.64 90.8604L124.75 98.4903L133.96 102.61C134.29 106.14 135.35 112.84 136.36 118.86C137.48 125.52 138.55 131.38 138.55 131.38C139.37 150.8 134.22 156.19 134.22 156.19Z" fill="#FEBD9D"/>
<path d="M169.34 220.67C169.55 220.23 172.99 213.11 173.34 210.67C173.69 208.23 172.47 201.01 170.58 194.22C170.48 193.87 170.38 193.51 170.27 193.16" stroke="#C6A86D" stroke-width="0.75" stroke-linecap="round" stroke-linejoin="round"/>
<path d="M136.35 118.891C118.58 119.981 120.58 100.881 120.73 100.401L124.73 98.5205L133.94 102.641C134.28 106.171 135.34 112.871 136.35 118.891Z" fill="#F4A789"/>
<path d="M22.2103 198.98C21.7103 200.45 21.7103 202.05 32.8603 205.19L34.5803 197.88C34.5803 197.88 24.4403 195.14 22.2103 198.98Z" fill="#DFC081"/>
<path d="M28.3201 195.131C25.7001 203.671 16.5601 232.271 16.5601 232.271C14.0801 242.761 45.1901 249.611 56.2601 231.791L62.3501 203.101C52.2856 196.551 40.2461 193.731 28.3201 195.131V195.131Z" fill="#FEBD9D"/>
<path d="M79.4705 184.27C79.4317 184.327 79.3982 184.387 79.3705 184.45C78.0505 186.56 76.5805 188.71 74.9805 190.93L74.8705 191.08C73.3704 193.038 71.7329 194.886 69.9705 196.61C67.7905 198.54 66.7305 198.61 66.7305 198.61L62.3905 210.16C61.9505 209.87 61.5005 209.58 61.0305 209.3C53.1105 204.5 42.2105 201.86 34.0305 200.46C31.3405 200 28.9405 199.68 27.0305 199.46C24.0905 199.11 22.2705 198.99 22.2705 198.99L25.7605 187.2C24.712 184.777 24.4192 182.093 24.9205 179.5C25.4905 176.55 33.3105 162.87 41.1905 151.39C44.2975 146.72 47.7434 142.285 51.5005 138.12C51.8105 137.8 52.1305 137.49 52.4505 137.2C65.9305 130.89 83.4505 132.44 86.9005 150.63C86.9905 151.08 87.0705 151.53 87.1305 151.98C89.0505 164.09 86.0605 173.7 79.4705 184.27Z" fill="#DFC081"/>
<path d="M87.0699 151.98C71.8999 141.6 59.0699 143.7 41.1299 151.39C44.2369 146.72 47.6828 142.285 51.4399 138.12C51.7499 137.8 52.0699 137.49 52.3899 137.2C65.8699 130.89 83.3899 132.44 86.8399 150.63C86.9299 151.11 87.0099 151.56 87.0699 151.98Z" fill="#DFC081"/>
<path d="M31.2402 189.7C40.6302 189.7 49.8102 193.54 51.3602 194.27" stroke="#C6A86D" stroke-width="0.75" stroke-linecap="round" stroke-linejoin="round"/>
<path d="M69.9697 196.61C71.7321 194.885 73.3696 193.037 74.8697 191.08L74.9797 190.93C76.5604 188.852 78.0259 186.689 79.3697 184.45C79.3975 184.387 79.4309 184.327 79.4697 184.27C80.5297 182.48 81.4097 180.83 82.0797 179.44C82.6297 178.36 83.0297 177.44 83.3097 176.76" stroke="#C6A86D" stroke-width="0.75" stroke-linecap="round" stroke-linejoin="round"/>
<path d="M151.26 188.26C151.62 192.99 148.84 194.2 148.84 194.2C149.22 205.7 145.84 211.2 140.22 212.66C134.6 214.12 120.08 217.2 120.08 217.2C118.575 217.812 117.123 218.548 115.74 219.4C114.12 220.32 112.11 221.5 109.74 222.9C102.52 227.12 91.1499 231.06 77.6399 238.18C53.6999 250.8 36.6399 243.96 35.4999 230.57C33.4399 206.06 64.5699 204.46 75.9399 202.57C84.1799 201.19 96.9399 197.92 104.85 196.09C107.85 195.41 110.1 194.93 111.16 194.83C114.96 194.49 122.84 190.33 136.67 185.98C150.5 181.63 161.67 179.11 161.67 182.16C161.67 185.21 151.26 188.26 151.26 188.26Z" fill="#FEBD9D"/>
<path d="M136.69 185.98C150.51 181.61 161.69 179.11 161.69 182.16C161.69 185.21 151.22 188.29 151.22 188.29C151.58 193.02 148.8 194.23 148.8 194.23C149.18 205.73 145.8 211.23 140.18 212.69" stroke="#F4A789" stroke-width="0.75" stroke-linecap="round" stroke-linejoin="round"/>
<path d="M41.2998 213.98C47.2998 208.17 56.9098 205.66 65.0298 204.24" stroke="#F4A789" stroke-width="0.75" stroke-linecap="round" stroke-linejoin="round"/>
<path d="M115.74 219.4C114.12 220.32 112.11 221.5 109.74 222.9C104.17 216.69 101.28 207.07 104.85 196.06C107.85 195.38 110.1 194.9 111.16 194.8C108.58 201.85 108.1 213.35 115.74 219.4Z" fill="#683F1D"/>
<path d="M151.26 188.26L142.71 191.03" stroke="#F4A789" stroke-width="0.75" stroke-linecap="round" stroke-linejoin="round"/>
<path d="M148.84 194.2L143.58 196.11" stroke="#F4A789" stroke-width="0.75" stroke-linecap="round" stroke-linejoin="round"/>
<path d="M144.15 201.63L148.63 200.41" stroke="#F4A789" stroke-width="0.75" stroke-linecap="round" stroke-linejoin="round"/>
<path d="M113.72 208.98C113.72 210.41 113.296 211.808 112.501 212.997C111.707 214.186 110.578 215.113 109.257 215.66C107.935 216.207 106.482 216.351 105.079 216.072C103.677 215.793 102.389 215.104 101.377 214.093C100.366 213.082 99.6777 211.793 99.3987 210.391C99.1197 208.989 99.2629 207.535 99.8101 206.214C100.357 204.893 101.284 203.763 102.473 202.969C103.662 202.175 105.06 201.75 106.49 201.75C108.407 201.75 110.246 202.512 111.602 203.868C112.958 205.224 113.72 207.063 113.72 208.98V208.98Z" fill="white" stroke="#683F1D" stroke-linecap="round" stroke-linejoin="round"/>
</g>
<path d="M213.86 75.1703V224.45H1V75.1703C0.99869 73.1931 1.387 71.235 2.14275 69.4079C2.89849 67.5808 4.00686 65.9205 5.40451 64.5219C6.80217 63.1233 8.4617 62.0139 10.2883 61.2569C12.1149 60.5 14.0728 60.1104 16.05 60.1104H198.81C200.787 60.1104 202.745 60.5 204.572 61.2569C206.398 62.0139 208.058 63.1233 209.455 64.5219C210.853 65.9205 211.962 67.5808 212.717 69.4079C213.473 71.235 213.861 73.1931 213.86 75.1703Z" stroke="#DDDDDD" stroke-width="2" stroke-linecap="round" stroke-linejoin="round"/>
<path d="M213.86 75.1703V75.8403H1V75.1703C0.99869 73.1931 1.387 71.235 2.14275 69.4079C2.89849 67.5808 4.00686 65.9205 5.40451 64.5219C6.80217 63.1233 8.4617 62.0139 10.2883 61.2569C12.1149 60.5 14.0728 60.1104 16.05 60.1104H198.81C200.787 60.1104 202.745 60.5 204.572 61.2569C206.398 62.0139 208.058 63.1233 209.455 64.5219C210.853 65.9205 211.962 67.5808 212.717 69.4079C213.473 71.235 213.861 73.1931 213.86 75.1703Z" stroke="#DDDDDD" stroke-width="2" stroke-linecap="round" stroke-linejoin="round"/>
<path d="M185.05 67.9802C185.05 68.5222 184.89 69.0519 184.589 69.5025C184.287 69.9531 183.86 70.3043 183.359 70.5117C182.858 70.7191 182.307 70.7733 181.776 70.6676C181.244 70.5619 180.756 70.3009 180.373 69.9177C179.99 69.5345 179.729 69.0463 179.623 68.5148C179.517 67.9833 179.571 67.4324 179.779 66.9317C179.986 66.431 180.337 66.0031 180.788 65.702C181.239 65.4009 181.768 65.2402 182.31 65.2402C182.67 65.2402 183.026 65.3111 183.359 65.4488C183.691 65.5865 183.993 65.7883 184.248 66.0428C184.502 66.2972 184.704 66.5993 184.842 66.9317C184.979 67.2641 185.05 67.6204 185.05 67.9802V67.9802Z" fill="#DDDDDD"/>
<path d="M191.24 70.7202C192.753 70.7202 193.98 69.4935 193.98 67.9802C193.98 66.467 192.753 65.2402 191.24 65.2402C189.727 65.2402 188.5 66.467 188.5 67.9802C188.5 69.4935 189.727 70.7202 191.24 70.7202Z" fill="#DDDDDD"/>
<path d="M202.91 67.9803C202.91 68.5226 202.749 69.0528 202.447 69.5036C202.146 69.9544 201.717 70.3056 201.216 70.5126C200.715 70.7197 200.163 70.7734 199.631 70.6669C199.1 70.5603 198.611 70.2984 198.229 69.9142C197.846 69.53 197.586 69.0408 197.481 68.5087C197.377 67.9765 197.432 67.4253 197.641 66.9248C197.85 66.4243 198.203 65.997 198.655 65.6972C199.107 65.3973 199.637 65.2383 200.18 65.2403C200.539 65.2403 200.895 65.3112 201.227 65.449C201.559 65.5868 201.86 65.7888 202.114 66.0434C202.367 66.2979 202.568 66.6001 202.705 66.9325C202.841 67.2648 202.911 67.6209 202.91 67.9803Z" fill="#DDDDDD"/>
<path d="M162.21 198.881C165.63 195.251 171.34 194.801 171.34 194.801L177.95 201.631C177.95 201.631 179.83 181.461 171.34 153.791C169.73 167.301 164.76 189.041 162.21 198.881Z" fill="#DDDDDD" stroke="#DDDDDD" stroke-linecap="round" stroke-linejoin="round"/>
<path d="M227.43 149.69C236.98 179.99 236.52 201.63 236.52 201.63H177.95C177.95 201.63 170.06 171.56 171.34 153.79C171.34 153.79 170.23 149.6 173.9 149.23C177.57 148.86 227.43 149.69 227.43 149.69Z" fill="#F9F9F9" stroke="#DDDDDD" stroke-linecap="round" stroke-linejoin="round"/>
<path d="M180.5 149.391C180.495 149.307 180.495 149.224 180.5 149.141C180.585 148.331 180.903 147.564 181.415 146.932C181.927 146.299 182.611 145.829 183.385 145.577C184.159 145.325 184.989 145.303 185.775 145.514C186.561 145.724 187.27 146.158 187.814 146.762C188.359 147.367 188.717 148.116 188.845 148.92C188.972 149.724 188.864 150.547 188.534 151.291C188.203 152.034 187.664 152.666 186.982 153.11C186.3 153.554 185.504 153.79 184.69 153.791" stroke="#DDDDDD" stroke-linecap="round" stroke-linejoin="round"/>
<path d="M210.26 149.391C210.367 148.589 210.703 147.836 211.228 147.221C211.752 146.605 212.442 146.154 213.216 145.92C213.99 145.687 214.815 145.681 215.592 145.904C216.369 146.126 217.066 146.568 217.599 147.176C218.131 147.784 218.478 148.533 218.597 149.332C218.715 150.132 218.601 150.949 218.268 151.686C217.935 152.422 217.397 153.047 216.718 153.486C216.039 153.925 215.248 154.159 214.44 154.161C213.737 154.159 213.047 153.973 212.44 153.621" stroke="#DDDDDD" stroke-linecap="round" stroke-linejoin="round"/>
<path d="M192.45 149.21C192.496 148.114 192.951 147.074 193.724 146.295C194.497 145.516 195.534 145.054 196.63 145C197.784 145.12 198.853 145.663 199.63 146.525C200.407 147.386 200.837 148.505 200.837 149.665C200.837 150.826 200.407 151.945 199.63 152.806C198.853 153.668 197.784 154.211 196.63 154.33C195.687 154.316 194.782 153.96 194.08 153.33" stroke="#DDDDDD" stroke-linecap="round" stroke-linejoin="round"/>
<path d="M201.37 149.311C201.476 148.511 201.81 147.758 202.332 147.143C202.854 146.528 203.542 146.076 204.315 145.842C205.087 145.607 205.91 145.6 206.686 145.822C207.462 146.043 208.158 146.483 208.69 147.09C209.223 147.696 209.569 148.443 209.688 149.241C209.807 150.039 209.694 150.855 209.361 151.59C209.029 152.326 208.492 152.95 207.814 153.388C207.137 153.826 206.347 154.059 205.54 154.061" stroke="#DDDDDD" stroke-linecap="round" stroke-linejoin="round"/>
<path d="M224.29 159.431H183.25V164.121H224.29V159.431Z" stroke="#DDDDDD" stroke-linecap="round" stroke-linejoin="round"/>
<path d="M193.42 196.52L192.9 192.57L190.26 172.24L189.82 168.9" stroke="#DDDDDD" stroke-linecap="round" stroke-linejoin="round"/>
<path d="M206.74 196.52L206.19 192.29L203.61 172.5L203.14 168.9" stroke="#DDDDDD" stroke-linecap="round" stroke-linejoin="round"/>
<path d="M216.47 168.891L220.06 196.531" stroke="#DDDDDD" stroke-linecap="round" stroke-linejoin="round"/>
<path d="M224.73 174.42H203.86H190.54H184.7" stroke="#DDDDDD" stroke-linecap="round" stroke-linejoin="round"/>
<path d="M226.76 186.491H205.43H192.11H186.72" stroke="#DDDDDD" stroke-linecap="round" stroke-linejoin="round"/>
<path d="M194.34 169.851C187.72 173.231 184.53 187.321 195.76 188.261C212.31 189.641 213.1 169.261 198.6 171.181" fill="#F9F9F9"/>
<path d="M194.34 169.851C187.72 173.231 184.53 187.321 195.76 188.261C212.31 189.641 213.1 169.261 198.6 171.181" stroke="#DDDDDD" stroke-width="2" stroke-linecap="round" stroke-linejoin="round"/>
<path d="M205.43 186.49H192.11L190.54 174.42H203.86L205.43 186.49Z" fill="#DDDDDD"/>
<path d="M229.36 184.67C229.64 189.26 238.36 184.21 237.76 180.19C237.16 176.17 229.03 179.35 229.36 184.67Z" fill="#FEBD9D" stroke="#F4A789" stroke-width="0.75" stroke-linecap="round" stroke-linejoin="round"/>
<path d="M227.88 178.491C228.2 183.091 238.02 178.041 237.38 174.011C236.74 169.981 227.51 173.181 227.88 178.491Z" fill="#FEBD9D" stroke="#F4A789" stroke-width="0.75" stroke-linecap="round" stroke-linejoin="round"/>
<path d="M227.19 173.881C227.53 178.471 238.06 173.421 237.37 169.401C236.68 165.381 226.8 168.561 227.19 173.881Z" fill="#FEBD9D" stroke="#F4A789" stroke-width="0.75" stroke-linecap="round" stroke-linejoin="round"/>
<path d="M225.71 168.19C226.06 172.36 236.92 167.78 236.21 164.13C235.5 160.48 225.3 163.37 225.71 168.19Z" fill="#FEBD9D" stroke="#F4A789" stroke-width="0.75" stroke-linecap="round" stroke-linejoin="round"/>
<path d="M194.34 169.851C187.72 173.231 184.53 187.321 195.76 188.261C212.31 189.641 213.1 169.261 198.6 171.181" stroke="#DDDDDD" stroke-width="2" stroke-linecap="round" stroke-linejoin="round"/>
<path d="M154.82 62.8403C153.95 70.0703 144.28 74.3103 144.28 74.3103L117.45 97.7303C114.7 102.12 107.21 104.33 102.65 100.66C99.9803 98.5203 98.3203 94.3703 99.2203 87.4603C98.4737 87.4606 97.7434 87.2416 97.1203 86.8303C94.0303 84.9203 92.1203 78.8303 96.7603 71.6003C96.4303 71.9203 90.2503 77.9303 83.8903 76.1103C82.7965 75.8181 81.7773 75.2971 80.8998 74.5817C80.0224 73.8663 79.3068 72.9728 78.8003 71.9603C76.8003 67.8703 77.5003 61.0503 83.2103 51.7003C87.2703 45.0303 92.9203 43.8303 97.7603 45.0803C103.24 46.4803 107.68 50.9803 107.68 54.2503C108.889 52.7665 110.292 51.4515 111.85 50.3403C113.99 48.8503 116.64 47.8403 119.01 49.2803C119.01 49.2803 127.35 44.7903 132.09 47.6003C137.99 51.0803 136.69 53.5003 142.43 53.8803C146.7 54.1603 153.43 55.2403 154.66 60.0803C154.894 60.9809 154.949 61.9187 154.82 62.8403Z" fill="#B25E47"/>
<path d="M107.68 54.2503L96.7801 71.5803C96.0016 72.3087 95.1692 72.9772 94.2901 73.5803C91.8401 75.2803 87.9201 77.2203 83.9201 76.0803C82.8263 75.7881 81.807 75.2671 80.9296 74.5517C80.0522 73.8363 79.3366 72.9428 78.8301 71.9303C91.2501 71.6703 95.6201 68.2003 93.0701 61.3703C90.7001 55.0103 88.2401 47.0203 97.7901 45.0503C101.526 45.9807 104.773 48.288 106.88 51.5103C107.377 52.3399 107.653 53.2835 107.68 54.2503V54.2503Z" fill="#B25E47"/>
<path d="M154.821 62.8402C153.951 70.0702 144.281 74.3102 144.281 74.3102L117.451 97.7302C114.701 102.12 107.211 104.33 102.651 100.66C101.074 96.8787 100.686 92.7064 101.54 88.6993C102.394 84.6921 104.449 81.0403 107.431 78.2302C112.931 73.2302 108.901 69.5002 109.431 62.9202C109.961 56.3402 122.001 46.2102 130.621 55.3002C137.381 62.4302 150.101 53.8102 154.711 60.0802C154.928 60.9841 154.965 61.9219 154.821 62.8402V62.8402Z" fill="#B25E47"/>
<path d="M138.37 110.69C126.31 109.45 114.07 96.9404 114.07 96.9404C109.47 102.18 100.4 94.3504 104.89 87.8304C107.83 83.5404 112.43 86.0904 113.55 88.4304C115.416 87.2256 116.784 85.3878 117.404 83.2548C118.023 81.1218 117.851 78.837 116.92 76.8204C115.933 74.3445 115.506 71.6808 115.67 69.0204C119.75 62.8204 130.57 61.4004 130.57 61.4004C132.169 63.0866 134.115 64.4066 136.273 65.2697C138.43 66.1328 140.749 66.5185 143.07 66.4004C143.07 66.4004 146.78 73.6504 149.8 81.0204C149.86 81.1804 149.94 81.3604 150 81.5204C150.85 83.6204 151.64 85.7204 152.26 87.6404C152.32 87.8304 152.37 88.0004 152.43 88.1804C152.927 89.6968 153.295 91.2523 153.53 92.8304C154.5 100.76 150.42 111.98 138.37 110.69Z" fill="#FEBD9D"/>
<path d="M143.38 77.7102C143.38 77.9673 143.456 78.2186 143.599 78.4324C143.742 78.6462 143.945 78.8128 144.182 78.9112C144.42 79.0096 144.681 79.0353 144.934 78.9852C145.186 78.935 145.417 78.8112 145.599 78.6294C145.781 78.4476 145.905 78.216 145.955 77.9638C146.005 77.7116 145.979 77.4502 145.881 77.2127C145.783 76.9751 145.616 76.7721 145.402 76.6293C145.188 76.4864 144.937 76.4102 144.68 76.4102C144.336 76.4128 144.007 76.5506 143.764 76.7938C143.52 77.0371 143.382 77.3662 143.38 77.7102V77.7102Z" fill="#683F1D"/>
<path d="M136.691 80.3202C137.409 80.3202 137.991 79.7382 137.991 79.0202C137.991 78.3022 137.409 77.7202 136.691 77.7202C135.973 77.7202 135.391 78.3022 135.391 79.0202C135.391 79.7382 135.973 80.3202 136.691 80.3202Z" fill="#683F1D"/>
<path d="M135.16 87.8203C137.766 89.127 140.657 89.7629 143.57 89.6703C143.57 89.6703 143.01 94.5403 138.83 93.2403C135.18 92.1103 135.16 87.8203 135.16 87.8203Z" fill="white" stroke="#F4A789" stroke-width="0.75" stroke-linecap="round" stroke-linejoin="round"/>
<path d="M131.041 75.2003C131.521 76.8003 137.531 75.2003 136.871 72.6003C136.211 70.0003 130.351 72.9803 131.041 75.2003Z" fill="#B25E47"/>
<path d="M141.25 71.9805C141.16 73.7205 147.31 73.8405 147.31 72.3405C147.31 70.9805 141.41 69.1705 141.25 71.9805Z" fill="#B25E47"/>
<path d="M99.2207 87.4603C99.9655 82.5389 102.347 78.012 105.981 74.6104" stroke="#683F1D" stroke-width="0.75" stroke-linecap="round" stroke-linejoin="round"/>
<path d="M119.01 49.2705C117.12 50.7805 114.29 55.6905 113.19 57.9005" stroke="#683F1D" stroke-width="0.75" stroke-linecap="round" stroke-linejoin="round"/>
<path d="M117.33 62.8502C119.56 56.9102 123.85 54.2302 125.86 56.5102C127.87 58.7902 130.57 61.3902 130.57 61.3902" stroke="#683F1D" stroke-width="0.75" stroke-linecap="round" stroke-linejoin="round"/>
<path d="M143.07 66.4503C145.57 66.3503 147.95 63.8003 148.67 62.3203" stroke="#683F1D" stroke-width="0.75" stroke-linecap="round" stroke-linejoin="round"/>
<path d="M93.0398 70.5103C83.8198 71.9503 79.2698 58.3003 86.7598 47.5103" stroke="#683F1D" stroke-width="0.75" stroke-linecap="round" stroke-linejoin="round"/>
<path d="M102.28 57.9001C104.21 52.9001 97.7701 44.8301 94.2801 50.3701C90.2801 56.7101 96.1201 65.1201 102.28 64.3701" stroke="#683F1D" stroke-width="0.75" stroke-linecap="round" stroke-linejoin="round"/>
<path d="M96.7803 71.5805C98.9877 65.0211 102.724 59.0809 107.68 54.2505C107.68 54.2505 104.88 59.9305 106.93 63.9705C103.372 66.2651 99.9802 68.8081 96.7803 71.5805V71.5805Z" fill="#C6A86D"/>
<path d="M105.98 92.1104C107.84 88.8204 111.07 89.0004 112.77 91.7704" stroke="#F4A789" stroke-width="0.75" stroke-linecap="round" stroke-linejoin="round"/>
<path d="M112.09 90.8903C108.26 89.8903 108.25 95.0303 112.32 94.3003" stroke="#F4A789" stroke-width="0.75" stroke-linecap="round" stroke-linejoin="round"/>
<path d="M139.91 76.7705C139.85 79.7705 142.25 81.4905 143.83 82.3205C145.41 83.1505 144.89 85.3205 144.78 85.6405" stroke="#F4A789" stroke-width="0.75" stroke-linecap="round" stroke-linejoin="round"/>
<path d="M114.08 96.9804C114.694 96.1879 115.204 95.3211 115.6 94.4004" stroke="#F4A789" stroke-width="0.75" stroke-linecap="round" stroke-linejoin="round"/>
<path d="M131.4 86.8402C130.4 88.7402 127.33 89.0903 124.4 87.6403C121.47 86.1903 119.94 83.4603 120.9 81.5603C121.86 79.6603 124.97 79.3102 127.9 80.7702C130.83 82.2302 132.36 84.9802 131.4 86.8402Z" fill="#F4A789"/>
<path d="M152.43 88.2206C151.803 88.5106 151.106 88.6166 150.421 88.5263C149.736 88.4361 149.091 88.1532 148.56 87.7105C147.11 86.2605 147.66 83.3205 149.8 81.0605C149.86 81.2205 149.94 81.4005 150 81.5605C150.85 83.6605 151.64 85.7605 152.26 87.6805C152.32 87.8705 152.37 88.0406 152.43 88.2206Z" fill="#F4A789"/>
<path d="M508.58 40.4204V189.7H295.76V40.4204C295.76 36.4262 297.346 32.5956 300.171 29.7713C302.995 26.947 306.826 25.3604 310.82 25.3604H493.58C497.564 25.3736 501.381 26.9664 504.193 29.7896C507.005 32.6127 508.582 36.4358 508.58 40.4204V40.4204Z" stroke="#DDDDDD" stroke-width="2" stroke-linecap="round" stroke-linejoin="round"/>
<path d="M508.58 40.4204V41.0904H295.76V40.4204C295.76 36.4262 297.346 32.5956 300.171 29.7713C302.995 26.947 306.826 25.3604 310.82 25.3604H493.58C497.564 25.3736 501.381 26.9664 504.193 29.7896C507.005 32.6127 508.582 36.4358 508.58 40.4204V40.4204Z" stroke="#DDDDDD" stroke-width="2" stroke-linecap="round" stroke-linejoin="round"/>
<path d="M479.81 33.2303C479.81 33.7726 479.649 34.3028 479.348 34.7536C479.046 35.2044 478.618 35.5556 478.116 35.7626C477.615 35.9697 477.064 36.0234 476.532 35.9169C476 35.8103 475.512 35.5484 475.129 35.1642C474.746 34.78 474.486 34.2908 474.382 33.7587C474.277 33.2265 474.333 32.6753 474.541 32.1748C474.75 31.6743 475.103 31.247 475.555 30.9472C476.007 30.6473 476.538 30.4883 477.08 30.4903C477.439 30.4903 477.795 30.5612 478.127 30.699C478.459 30.8368 478.76 31.0388 479.014 31.2934C479.268 31.5479 479.469 31.8501 479.605 32.1825C479.742 32.5148 479.811 32.8709 479.81 33.2303V33.2303Z" fill="#DDDDDD"/>
<path d="M488.749 33.2302C488.749 33.7722 488.589 34.3019 488.288 34.7525C487.987 35.2031 487.559 35.5543 487.058 35.7617C486.557 35.9691 486.006 36.0233 485.475 35.9176C484.943 35.8119 484.455 35.5509 484.072 35.1677C483.689 34.7845 483.428 34.2963 483.322 33.7648C483.216 33.2333 483.271 32.6824 483.478 32.1817C483.685 31.681 484.037 31.2531 484.487 30.952C484.938 30.6509 485.468 30.4902 486.01 30.4902C486.736 30.4902 487.433 30.7789 487.947 31.2928C488.461 31.8066 488.749 32.5035 488.749 33.2302V33.2302Z" fill="#DDDDDD"/>
<path d="M497.68 33.2302C497.68 33.7722 497.52 34.3019 497.218 34.7525C496.917 35.2031 496.489 35.5543 495.989 35.7617C495.488 35.9691 494.937 36.0233 494.406 35.9176C493.874 35.8119 493.386 35.5509 493.003 35.1677C492.62 34.7845 492.359 34.2963 492.253 33.7648C492.147 33.2333 492.201 32.6824 492.409 32.1817C492.616 31.681 492.967 31.2531 493.418 30.952C493.868 30.6509 494.398 30.4902 494.94 30.4902C495.667 30.4902 496.364 30.7789 496.878 31.2928C497.392 31.8066 497.68 32.5035 497.68 33.2302V33.2302Z" fill="#DDDDDD"/>
<path d="M300.3 105.32C299.75 99.0804 327.3 87.2504 331.85 96.3804L322.85 105.32C322.85 105.32 304.26 112.69 300.3 105.32Z" fill="#C6A86D"/>
<path d="M313.78 60.6902C309.78 48.2502 309.48 46.6902 312.16 45.7602C314.84 44.8302 321.63 58.9602 322.4 60.6902C325.09 66.1354 327.163 71.8643 328.58 77.7702C329.77 83.2902 331.33 96.0002 331.58 99.0602C332.64 111.98 311.34 115.91 310.41 105.86C309.48 95.8102 309.41 92.5602 309.41 92.5602C309.41 92.5602 298.41 93.5602 296.87 85.3802C295.33 77.2002 295.76 65.9802 295.76 65.9802C295.76 65.9802 279.04 63.2102 279.62 58.8002C280.2 54.3902 312.92 63.3002 312.92 63.3002L313.78 60.6902Z" fill="#B25E47"/>
<path d="M295.76 65.98C295.76 65.98 279.04 63.21 279.62 58.8C280.2 54.39 312.92 63.3 312.92 63.3L313.78 60.72C309.78 48.28 309.48 46.72 312.16 45.79C314.84 44.86 321.63 58.99 322.4 60.72" stroke="#914839" stroke-width="0.75" stroke-linecap="round" stroke-linejoin="round"/>
<path d="M312.92 63.27C311.484 68.7828 311.714 74.5977 313.58 79.98" stroke="#914839" stroke-width="0.75" stroke-linecap="round" stroke-linejoin="round"/>
<path d="M305.09 53.7301C307.71 55.0901 309.78 55.3801 310.56 51.6401C311.34 47.9001 307.65 47.8101 306.46 48.0101C304.63 48.3101 303.96 53.1401 305.09 53.7301Z" fill="#683F1D"/>
<path d="M305.58 52.77C305.169 54.2281 304.835 55.7068 304.58 57.2C305.01 57.42 307.58 58.29 307.92 57.42C308.313 55.893 308.59 54.3386 308.75 52.77H305.58Z" fill="#683F1D"/>
<path d="M303.24 58.4401C301.87 64.5701 294.79 98.1701 294.55 99.2701C294.31 100.37 294.63 105.45 295.06 105.64C295.49 105.83 297.96 102.2 298.86 100.36C299.76 98.5201 307.72 61.6501 308.21 59.9301C309.43 55.7401 304.14 54.4301 303.24 58.4401Z" fill="#683F1D"/>
<path d="M297.01 77.5104C293.58 78.3004 292.61 81.5704 295.14 83.7404C297.86 86.0804 304.56 85.0404 304.87 82.0504C305.18 79.0604 299.87 76.8604 297.01 77.5104Z" fill="#B25E47" stroke="#914839" stroke-width="0.75" stroke-linecap="round" stroke-linejoin="round"/>
<path d="M296.7 72.1502C293.18 71.6302 292.32 75.1502 294.83 77.8502C297.34 80.5502 305.63 81.1602 306.1 77.9502C306.57 74.7402 298.86 72.4702 296.7 72.1502Z" fill="#B25E47" stroke="#914839" stroke-width="0.75" stroke-linecap="round" stroke-linejoin="round"/>
<path d="M293.581 66.1402C298.001 65.1402 307.581 71.5902 307.191 73.6002C306.721 76.1302 302.191 76.5102 295.811 73.8002C289.821 71.2602 291.421 66.6502 293.581 66.1402Z" fill="#B25E47" stroke="#914839" stroke-width="0.75" stroke-linecap="round" stroke-linejoin="round"/>
<mask id="mask1_184_3681" style="mask-type:alpha" maskUnits="userSpaceOnUse" x="296" y="35" width="213" height="155">
<rect x="296" y="35" width="213" height="155" fill="#C4C4C4"/>
</mask>
<g mask="url(#mask1_184_3681)">
<path d="M506.35 114.87C492.63 114.2 481.27 126.57 477.75 140.79C477.65 141.19 477.56 141.62 477.48 142.09C477.105 144.279 476.841 146.485 476.69 148.7C475.23 167.47 476.61 204.8 476.75 205.7C476.8 206.01 467.04 205.7 453.5 205.06C448.5 204.83 443.02 204.58 437.3 204.29C408.22 202.86 373.68 200.93 373.68 200.93L371.58 177.57C371.58 177.57 367.23 184.93 352.35 199.3C337.47 213.67 313.68 205.66 316.24 187.59C317.84 176.24 324.54 167.94 332.66 154.04C335.17 149.74 337.82 144.91 340.48 139.28C344.04 131.8 347.48 124.66 350.8 118.21C352.25 115.37 353.68 112.66 355.07 110.12C360.29 100.49 364.97 93.1999 368.74 89.7899C380.07 79.5299 404.35 85.4399 410.82 87.5199C420.458 90.6573 430.46 92.5427 440.58 93.1299C454.93 94.1299 476.72 100.32 488.26 104.34C494.916 106.575 501.042 110.152 506.26 114.85L506.35 114.87Z" fill="#DFC081"/>
<path d="M516.009 136.16C503.449 123.56 484.379 118.06 465.239 135.16C442.979 154.99 425.899 158.44 400.859 129.48C382.749 108.48 376.469 103.19 355.069 110.16C360.289 100.53 364.969 93.2399 368.739 89.8299C380.069 79.5699 404.349 85.4799 410.819 87.5599C420.46 90.6837 430.462 92.5557 440.579 93.1299C454.929 94.1299 476.719 100.32 488.259 104.34C494.915 106.575 501.042 110.152 506.259 114.85C511.279 118.81 514.209 126.73 516.009 136.16Z" fill="#DFC081"/>
<path d="M350.44 172.2C342.44 180.88 335.25 162.06 332.66 154.04C335.17 149.74 337.82 144.91 340.48 139.28C344.04 131.8 347.48 124.66 350.8 118.21C356.7 127.21 348.73 135.49 348.17 139.57C346.71 150.48 361.91 159.74 350.44 172.2Z" fill="#C6A86D"/>
<path d="M300.3 105.32C312.66 107.93 331.85 96.3799 331.85 96.3799C331.85 96.3799 342.42 143.59 345.18 154.06C347.94 164.53 365.6 205.54 331.18 207.22C309.09 208.3 307.61 166.31 306.3 152.49C304.99 138.67 300.3 105.32 300.3 105.32Z" fill="#DFC081"/>
<path d="M308.49 110.72C318 111.39 328.59 104.99 328.59 104.99" stroke="#C6A86D" stroke-width="0.75" stroke-linecap="round" stroke-linejoin="round"/>
<path d="M331.85 96.3799C331.85 96.3799 342.42 143.59 345.18 154.06C346.69 159.77 352.63 174.57 352.13 187.12" stroke="#C6A86D" stroke-width="0.75" stroke-linecap="round" stroke-linejoin="round"/>
<path d="M400.859 95.1701C407.019 106.6 423.359 117.59 443.079 102.42C443.079 102.42 445.199 96.1201 444.979 96.1201C444.759 96.1201 403.649 91.1201 403.649 91.1201L400.859 95.1701Z" fill="white"/>
<path d="M417.09 81.0502C412.01 79.9002 404.65 81.1902 399.57 88.9902C394.49 96.7902 393.84 103.22 394.13 103.15C394.42 103.08 402.13 98.2102 405.58 98.5702C409.03 98.9302 416.76 101.21 416.76 101.21L417.09 81.0502Z" fill="#C6A86D"/>
<path d="M439.98 83.3398C439.98 83.3398 451.21 83.4098 452.71 91.2798C454.21 99.1498 450.07 108.59 444.99 112.95C439.91 117.31 442.7 106.65 424.46 101.65L439.98 83.3398Z" fill="#C6A86D"/>
<path d="M445.46 92.54C445.46 92.54 439.22 102.02 425.32 102.23C411.42 102.44 408.75 94.16 408.75 94.16C410.26 90.4 412.07 82.38 413.23 76.76C413.97 73.21 414.45 70.61 414.45 70.61C414.45 70.61 416.75 48.35 440.61 49.69L441.02 53.34L445.46 92.54Z" fill="#B25E47"/>
<path d="M413.229 76.98C413.969 73.44 414.449 70.83 414.449 70.83L428.029 64.46C428.029 64.46 430.179 79.98 413.229 76.98Z" fill="#914839"/>
<path d="M371.58 177.57C369.66 155.65 369.66 137.9 369.66 137.9" stroke="#C6A86D" stroke-width="0.75" stroke-linecap="round" stroke-linejoin="round"/>
</g>
<path d="M462.25 230.88C461.085 230.456 459.974 229.895 458.94 229.21C451.94 224.62 451.39 215.68 453.5 205.02C455.14 196.86 458.36 187.7 461.5 178.72C465.09 168.48 468.6 158.49 469.59 150.49C469.73 149.37 469.81 148.3 469.85 147.28C470.042 141.146 471.164 135.077 473.18 129.28C478.92 113.14 491.43 102.98 506.31 114.87C511.24 118.81 514.17 126.73 515.97 136.16C516.61 139.53 517.11 143.1 517.52 146.74C518.88 159.1 519.08 172.39 519.69 182.29C522.7 230.22 511.21 249.36 462.25 230.88Z" fill="#DFC081"/>
<path d="M516.01 136.16C505.2 125.32 489.55 119.73 473.2 129.26C478.94 113.12 491.45 102.96 506.33 114.85C511.28 118.81 514.21 126.73 516.01 136.16Z" fill="#DFC081"/>
<path d="M476.751 205.66C476.801 205.97 467.041 205.66 453.501 205.02C448.501 204.79 443.021 204.54 437.301 204.25C427.521 199.85 421.441 193.48 426.651 184.35C440.831 159.54 466.881 193.91 468.241 169.35C469.161 152.51 473.241 148.85 476.691 148.74C475.231 167.47 476.581 204.8 476.751 205.66Z" fill="#C6A86D"/>
<path d="M480.08 133.47C478.138 138.331 476.993 143.474 476.69 148.7C475.39 167.48 476.61 204.8 476.75 205.7" stroke="#C6A86D" stroke-width="0.75" stroke-linecap="round" stroke-linejoin="round"/>
<path d="M462.25 230.881C461.085 230.456 459.974 229.895 458.94 229.211C470.16 231.621 486.94 233.791 494.33 227.481C505.98 217.561 498.58 204.84 505.02 197.84C511.46 190.84 520.75 188.581 517.56 146.771C518.92 159.131 519.12 172.421 519.73 182.321C522.7 230.221 511.21 249.361 462.25 230.881Z" fill="#C6A86D"/>
<path d="M434.191 146.74C435.971 138.74 425.911 139.09 425.911 139.09C426.801 131.71 417.021 129.66 414.761 136.87C406.811 134.47 404.301 136.87 403.141 141.05L434.191 146.74Z" fill="#DDDDDD"/>
<path d="M420.63 139.86C421.939 139.86 423 138.799 423 137.49C423 136.181 421.939 135.12 420.63 135.12C419.321 135.12 418.26 136.181 418.26 137.49C418.26 138.799 419.321 139.86 420.63 139.86Z" fill="#F9F9F9" stroke="#DDDDDD" stroke-linecap="round" stroke-linejoin="round"/>
<path d="M388.04 135.11L373.2 215.58L432.12 227.48L447.95 146.9L388.04 135.11Z" fill="#F9F9F9" stroke="#DDDDDD" stroke-linecap="round" stroke-linejoin="round"/>
<path d="M406.19 188.43C403.19 196.26 403.01 204.49 404.39 207.24C404.39 207.24 410.01 208.29 415.63 193.04L406.19 188.43Z" fill="#C6A86D"/>
<path d="M413.821 173.29C400.341 168.66 393.901 165.86 391.471 165.2C389.041 164.54 380.261 163.8 378.861 165.2C377.461 166.6 377.361 168.38 377.861 170.2C378.361 172.02 376.861 173.43 376.651 175.31C376.441 177.19 378.701 177.76 378.241 179.63C377.781 181.5 376.241 183.55 377.301 185.63C378.361 187.71 376.301 189.83 378.241 192.35C380.181 194.87 400.061 196.09 404.421 195.16L412.981 198.99C412.981 198.99 428.041 183.52 413.821 173.29Z" fill="#B25E47"/>
<path d="M391.471 165.2C389.041 164.55 380.261 163.8 378.861 165.2C377.461 166.6 377.361 168.38 377.861 170.2C378.361 172.02 376.861 173.43 376.651 175.31C376.441 177.19 378.701 177.76 378.241 179.63C377.781 181.5 376.241 183.55 377.301 185.63C378.361 187.71 376.301 189.83 378.241 192.35" stroke="#914839" stroke-width="0.75" stroke-linecap="round" stroke-linejoin="round"/>
<path d="M494.34 227.47C490.83 233.81 482.05 236.86 465.34 231.83C460.84 230.47 456.5 229.06 452.34 227.63C445.46 225.27 439.11 222.86 433.42 220.55C423.506 216.609 413.8 212.163 404.34 207.23C406.853 204.459 408.881 201.284 410.34 197.84C411.249 195.801 411.998 193.695 412.58 191.54C414.133 185.584 414.55 179.39 413.81 173.28C416.08 173.96 418.52 174.66 421.09 175.36C427.3 177.06 434.26 178.82 441.31 180.67C462.44 186.24 484.42 192.62 489.77 200.55C490.26 201.28 490.77 202.01 491.17 202.77C491.34 203.07 491.52 203.37 491.68 203.68C491.729 203.756 491.773 203.837 491.81 203.92C492.01 204.28 492.2 204.65 492.38 205.01C492.72 205.66 493.02 206.31 493.31 206.96C496.46 214.18 497.35 222.04 494.34 227.47Z" fill="#DFC081"/>
<path d="M413.82 173.29C438.02 180.58 481.9 188.89 489.82 200.56C491.194 202.584 492.379 204.73 493.36 206.97" stroke="#C6A86D" stroke-width="0.75" stroke-linecap="round" stroke-linejoin="round"/>
<path d="M421.09 175.36C422.59 190.53 414.76 205.09 414.76 205.09" stroke="#C6A86D" stroke-width="0.75" stroke-linecap="round" stroke-linejoin="round"/>
<path d="M494.33 227.48C490.82 233.82 482.04 236.87 465.33 231.84C460.83 230.48 456.49 229.07 452.33 227.64C462.14 230.22 485.25 235.21 494.33 227.48Z" fill="#C6A86D"/>
<path d="M440.58 49.8803L440.99 53.5203C432.54 66.7003 420.99 70.8503 414.42 70.7903C403.56 68.0803 399.85 58.3003 399.22 47.7903C399.065 45.2994 399.065 42.8012 399.22 40.3103C399.705 33.1914 400.904 26.1393 402.8 19.2603C402.8 19.2603 435.42 4.0803 437.68 34.5503C437.68 34.5503 444.68 33.2703 445.97 41.0503C447.07 47.5103 440.58 49.8803 440.58 49.8803Z" fill="#B25E47"/>
<path d="M404.46 40.35C405.178 40.35 405.76 39.768 405.76 39.05C405.76 38.332 405.178 37.75 404.46 37.75C403.742 37.75 403.16 38.332 403.16 39.05C403.16 39.768 403.742 40.35 404.46 40.35Z" fill="#683F1D"/>
<path d="M413.54 38.6903C414.258 38.6903 414.84 38.1083 414.84 37.3903C414.84 36.6724 414.258 36.0903 413.54 36.0903C412.822 36.0903 412.24 36.6724 412.24 37.3903C412.24 38.1083 412.822 38.6903 413.54 38.6903Z" fill="#683F1D"/>
<path d="M411.58 30.3803C411.72 32.1603 417.8 32.8503 418.15 31.8403C418.64 30.3203 411.23 26.2103 411.58 30.3803Z" fill="#683F1D"/>
<path d="M399.97 33.0401C399.97 34.0401 406.58 34.4501 406.34 31.0401C406.18 28.5701 400.11 30.3601 399.97 33.0401Z" fill="#683F1D"/>
<path d="M435.99 44.2099C438.71 40.2099 442.99 40.6299 443.46 41.3899" stroke="#914839" stroke-width="0.75" stroke-linecap="round" stroke-linejoin="round"/>
<path d="M437.15 42.8403C441.15 40.4803 443.35 45.7703 438.27 45.7703" stroke="#914839" stroke-width="0.75" stroke-linecap="round" stroke-linejoin="round"/>
<path d="M407.97 35.27C409.07 37.4 408.97 38.69 408.25 40.06C407.53 41.43 405.32 44.55 406.47 47.32" stroke="#914839" stroke-width="0.75" stroke-linecap="round" stroke-linejoin="round"/>
<path d="M415.09 47.79C414.09 51.1 410.15 53.17 408.32 52.79C408.32 52.79 410.21 57.92 413.54 56.61C417.37 55.06 415.09 47.79 415.09 47.79Z" fill="white" stroke="#914839" stroke-width="0.75" stroke-linecap="round" stroke-linejoin="round"/>
<path d="M435.39 48.9199C436.139 49.4479 436.992 49.8101 437.892 49.9826C438.792 50.155 439.718 50.1337 440.61 49.9199" stroke="#914839" stroke-width="0.75" stroke-linecap="round" stroke-linejoin="round"/>
<path d="M447.25 31.4401C450.99 36.5801 445.36 38.8101 445.36 38.8101C444.792 37.9685 444.04 37.2674 443.16 36.7601C442.607 36.434 441.99 36.2342 441.351 36.1749C440.712 36.1157 440.068 36.1984 439.465 36.4173C438.862 36.6362 438.315 36.9857 437.863 37.4409C437.411 37.896 437.065 38.4456 436.85 39.0501C429.18 39.2101 432.49 33.2201 432.49 33.2201C425.61 35.9701 425.39 28.9201 428.35 25.7401C422.98 31.7401 416.16 25.7401 417.27 20.3101C415.37 26.2401 408.6 26.4701 409.5 21.5501C408.919 22.561 408.213 23.4949 407.4 24.3301C402.75 29.0101 398.57 24.0101 400.33 20.3301C393.33 26.9901 390.33 19.5401 396.98 15.5401C391.71 11.2201 397.98 5.06013 402.19 8.26013C401.19 0.590129 409.11 0.26013 412.58 4.73013C413.94 -3.68987 424.46 0.910128 424.88 4.90013C432.63 -0.519872 438.63 3.47013 437.88 12.2801C441.01 8.09013 447.72 10.5501 445.14 21.2801C451.58 20.8201 452.67 28.8101 447.25 31.4401Z" fill="#683F1D"/>
<path d="M443.16 36.7601C442.607 36.434 441.99 36.2341 441.351 36.1749C440.712 36.1156 440.068 36.1984 439.465 36.4172C438.862 36.6361 438.315 36.9856 437.863 37.4408C437.41 37.896 437.065 38.4455 436.85 39.0501C429.18 39.2101 432.49 33.2201 432.49 33.2201C425.61 35.9701 425.39 28.9201 428.35 25.7401C422.98 31.7401 416.16 25.7401 417.27 20.3101C415.37 26.2401 408.6 26.4701 409.5 21.5501C408.919 22.5609 408.213 23.4949 407.4 24.3301C405.52 18.6401 409.73 11.1301 416.16 14.5301C417.01 9.95007 427.52 6.98007 427.46 18.5301C431.35 13.1001 440.16 14.9601 435.99 25.3201C439.27 22.8701 446.81 27.1101 443.16 36.7601Z" fill="#683F1D"/>
<path d="M429.03 38.7701C429.96 40.6301 428.21 43.3801 425.13 44.9301C422.05 46.4801 418.79 46.2201 417.86 44.3601C416.93 42.5001 418.67 39.7501 421.76 38.2001C424.85 36.6501 428.1 36.9101 429.03 38.7701Z" fill="#914839"/>
<path d="M403.299 45.8403C402.819 47.1503 401.21 47.8403 399.23 47.8403C399.075 45.3494 399.075 42.8513 399.23 40.3604C402.17 41.6104 403.979 43.9803 403.299 45.8403Z" fill="#914839"/>
<path d="M431.18 254.7V403.98H218.32V254.7C218.314 252.722 218.699 250.762 219.453 248.933C220.207 247.104 221.315 245.442 222.714 244.043C224.113 242.644 225.774 241.536 227.603 240.782C229.432 240.028 231.392 239.643 233.37 239.65H416.13C418.109 239.643 420.069 240.028 421.898 240.782C423.727 241.536 425.388 242.644 426.787 244.043C428.186 245.442 429.294 247.104 430.048 248.933C430.802 250.762 431.187 252.722 431.18 254.7Z" stroke="#DDDDDD" stroke-width="2" stroke-linecap="round" stroke-linejoin="round"/>
<path d="M431.18 254.7V255.38H218.32V254.7C218.314 252.722 218.699 250.762 219.453 248.933C220.207 247.104 221.315 245.442 222.714 244.043C224.113 242.644 225.774 241.536 227.603 240.782C229.432 240.028 231.392 239.643 233.37 239.65H416.13C418.109 239.643 420.069 240.028 421.898 240.782C423.727 241.536 425.388 242.644 426.787 244.043C428.186 245.442 429.294 247.104 430.048 248.933C430.802 250.762 431.187 252.722 431.18 254.7Z" stroke="#DDDDDD" stroke-width="2" stroke-linecap="round" stroke-linejoin="round"/>
<path d="M402.371 247.51C402.371 248.052 402.21 248.582 401.909 249.032C401.608 249.483 401.18 249.834 400.679 250.041C400.179 250.249 399.628 250.303 399.096 250.197C398.565 250.092 398.076 249.831 397.693 249.447C397.31 249.064 397.049 248.576 396.943 248.045C396.838 247.513 396.892 246.962 397.099 246.461C397.307 245.961 397.658 245.533 398.108 245.232C398.559 244.931 399.089 244.77 399.631 244.77C400.357 244.77 401.054 245.059 401.568 245.573C402.082 246.086 402.371 246.783 402.371 247.51V247.51Z" fill="#DDDDDD"/>
<path d="M408.56 250.25C410.074 250.25 411.3 249.023 411.3 247.51C411.3 245.997 410.074 244.77 408.56 244.77C407.047 244.77 405.82 245.997 405.82 247.51C405.82 249.023 407.047 250.25 408.56 250.25Z" fill="#DDDDDD"/>
<path d="M417.501 250.25C419.014 250.25 420.241 249.023 420.241 247.51C420.241 245.997 419.014 244.77 417.501 244.77C415.987 244.77 414.761 245.997 414.761 247.51C414.761 249.023 415.987 250.25 417.501 250.25Z" fill="#DDDDDD"/>
<path d="M230.87 326.82C224.79 308.82 223.36 299.1 225.02 297.71C226.02 296.83 227.69 296.18 227.82 294.4C227.95 292.62 225.91 286.64 233.03 285.24C233.03 285.24 235.44 271.13 237.73 264.52C237.73 264.52 250.45 315.15 251.34 318.95C252.23 322.75 235 339.1 230.87 326.82Z" fill="#FEBD9D"/>
<path d="M233.03 285.24C232.565 287.505 232.231 289.796 232.03 292.1" stroke="#F4A789" stroke-width="0.75" stroke-linecap="round" stroke-linejoin="round"/>
<path d="M224.58 303.03C224.21 300.03 224.39 298.25 225.03 297.71C226.03 296.83 227.7 296.18 227.83 294.4C227.96 292.62 225.92 286.64 233.04 285.24C233.04 285.24 235.45 271.13 237.74 264.52" stroke="#F4A789" stroke-width="0.75" stroke-linecap="round" stroke-linejoin="round"/>
<path d="M292.714 234.236L236.988 249.953C233.735 250.87 231.841 254.251 232.759 257.504L243.576 295.858C244.493 299.111 247.874 301.004 251.127 300.087L306.853 284.37C310.106 283.453 312 280.072 311.082 276.819L300.265 238.465C299.348 235.212 295.967 233.319 292.714 234.236Z" fill="#F9F9F9" stroke="#DDDDDD" stroke-linecap="round" stroke-linejoin="round"/>
<path d="M289.961 239.836L242.281 253.283C240.128 253.891 238.875 256.128 239.482 258.281L248.904 291.688C249.511 293.84 251.748 295.093 253.901 294.486L301.581 281.039C303.734 280.432 304.987 278.195 304.38 276.042L294.958 242.635C294.351 240.482 292.114 239.229 289.961 239.836Z" stroke="#DDDDDD" stroke-linecap="round" stroke-linejoin="round"/>
<path d="M276.14 272.16C276.155 272.443 276.155 272.727 276.14 273.01C275.985 275.161 275.234 277.227 273.97 278.975C272.707 280.723 270.981 282.085 268.987 282.908C266.993 283.73 264.809 283.981 262.681 283.632C260.552 283.283 258.563 282.347 256.936 280.931C255.309 279.514 254.109 277.673 253.471 275.612C252.832 273.552 252.78 271.355 253.32 269.266C253.861 267.178 254.972 265.282 256.53 263.79C258.088 262.298 260.03 261.269 262.14 260.82C262.927 260.641 263.733 260.554 264.54 260.56C266.065 260.559 267.575 260.858 268.984 261.44C270.393 262.022 271.674 262.876 272.753 263.953C273.832 265.03 274.688 266.31 275.273 267.718C275.857 269.126 276.159 270.635 276.16 272.16H276.14Z" stroke="#DDDDDD" stroke-linecap="round" stroke-linejoin="round"/>
<path d="M276.101 272.98C275.961 274.904 275.345 276.764 274.306 278.391C273.268 280.017 271.84 281.359 270.153 282.295C268.465 283.231 266.571 283.732 264.641 283.752C262.711 283.772 260.807 283.311 259.101 282.41C261.351 277.86 264.491 271.41 264.491 271.41L276.101 272.98Z" stroke="#DDDDDD" stroke-linecap="round" stroke-linejoin="round"/>
<path d="M276.141 272.16C276.156 272.443 276.156 272.726 276.141 273.01L264.561 271.47L273.321 264.54C275.153 266.654 276.155 269.362 276.141 272.16V272.16Z" stroke="#DDDDDD" stroke-linecap="round" stroke-linejoin="round"/>
<path d="M273.28 264.54L264.52 271.47C264.52 271.47 263.02 265.04 262.12 260.82C262.907 260.641 263.713 260.554 264.52 260.56C266.18 260.558 267.821 260.912 269.332 261.599C270.843 262.285 272.19 263.288 273.28 264.54V264.54Z" fill="#DDDDDD" stroke="#DDDDDD" stroke-linecap="round" stroke-linejoin="round"/>
<path d="M289.331 267.9C291.521 267.13 289.501 266.01 290.951 265.39C293.071 264.49 293.761 251.39 284.341 254.08C277.201 256.08 282.401 267.73 285.901 266.66C286.851 266.37 286.821 268.79 289.331 267.9Z" fill="#F9F9F9" stroke="#DDDDDD" stroke-linecap="round" stroke-linejoin="round"/>
<path d="M286.76 258.3C285.83 259.97 286.57 261.14 288.09 261.7C290.64 262.65 286.85 265.64 286.02 264C285.11 262.2 290.09 263.4 289.02 267.44" stroke="#DDDDDD" stroke-linecap="round" stroke-linejoin="round"/>
<path d="M288.21 270.58C288.85 272.11 289.64 272.38 290.85 272.03C292.06 271.68 292.11 270.84 291.79 269.62L288.21 270.58Z" fill="#F9F9F9" stroke="#DDDDDD" stroke-linecap="round" stroke-linejoin="round"/>
<path d="M287.18 269.61C287.76 268.61 291.18 268 291.66 268.11C292.14 268.22 292.57 269.61 291.94 269.97C290.619 270.559 289.211 270.927 287.77 271.06C287.626 271.018 287.493 270.943 287.381 270.842C287.27 270.741 287.182 270.617 287.125 270.477C287.069 270.338 287.044 270.187 287.054 270.037C287.063 269.887 287.106 269.741 287.18 269.61Z" fill="#F9F9F9" stroke="#DDDDDD" stroke-linecap="round" stroke-linejoin="round"/>
<path d="M286.52 267.75C287.14 266.75 290.82 266.13 291.29 266.25C291.91 266.4 292.29 267.75 291.6 268.1C290.182 268.692 288.681 269.06 287.15 269.19C287.003 269.152 286.867 269.081 286.752 268.983C286.637 268.884 286.546 268.761 286.485 268.623C286.425 268.484 286.396 268.333 286.402 268.182C286.408 268.031 286.448 267.883 286.52 267.75Z" fill="#F9F9F9" stroke="#DDDDDD" stroke-linecap="round" stroke-linejoin="round"/>
<path d="M274.79 257.42L277.83 257.62" stroke="#DDDDDD" stroke-linecap="round" stroke-linejoin="round"/>
<path d="M280.771 248.16L282.1 251.09" stroke="#DDDDDD" stroke-linecap="round" stroke-linejoin="round"/>
<path d="M291.16 248.93L290.09 251.09" stroke="#DDDDDD" stroke-linecap="round" stroke-linejoin="round"/>
<path d="M240 293.09C235.77 300.66 239.12 309.73 244.23 312.2C249.34 314.67 251.45 298.99 252.06 295.03C252.67 291.07 252.68 285.08 253.12 282.08C253.56 279.08 250.74 276.71 248.89 281.29C247.04 285.87 246.16 288.67 246.16 288.67L240 293.09Z" fill="#FEBD9D"/>
<path d="M252.06 295.03C252.68 291.03 252.68 285.08 253.12 282.08C253.56 279.08 250.74 276.71 248.89 281.29C247.04 285.87 246.16 288.67 246.16 288.67L240 293.09" stroke="#F4A789" stroke-width="0.75" stroke-linecap="round" stroke-linejoin="round"/>
<mask id="mask2_184_3681" style="mask-type:alpha" maskUnits="userSpaceOnUse" x="218" y="236" width="213" height="168">
<rect x="218" y="236" width="213" height="168" fill="#C4C4C4"/>
</mask>
<g mask="url(#mask2_184_3681)">
<path d="M376.58 263.64L373.18 306.64L335.94 310.15C339.131 300.02 341.699 289.704 343.63 279.26C344.47 274.75 345.23 269.96 345.81 265.07L359.53 264.44L376.58 263.64Z" fill="#FEBD9D"/>
<path d="M362.58 268.49C361.06 274.39 352.73 278.57 343.69 279.24C344.53 274.73 345.29 269.94 345.87 265.05L359.59 264.42C361.74 265.37 363 266.69 362.58 268.49Z" fill="#F4A789"/>
<path d="M434.421 310.13V410.18H426.661C426.661 410.18 422.081 392.03 402.361 353.99C402.361 353.99 401.981 355.68 401.211 358.61C400.151 362.67 398.341 369.09 395.771 376.72C391.437 389.842 385.859 402.52 379.111 414.58C364.882 420.675 349.875 424.761 334.521 426.72C334.101 426.72 333.671 426.83 333.241 426.87C317.941 428.76 300.181 428.77 282.161 424.13C270.971 421.296 260.292 416.73 250.511 410.6C251.051 409.72 275.381 362.09 282.961 346.77C283.551 345.58 284.141 344.42 284.741 343.27C291.861 329.66 300.401 319.08 323.461 310.13C328.811 308.07 333.511 306.24 337.631 304.64C352.821 298.75 360.391 295.84 365.031 294.46C368.311 293.487 371.427 292.577 374.381 291.73C402.801 283.57 416.901 281.66 428.851 299.89C430.95 303.166 432.811 306.588 434.421 310.13V310.13Z" fill="#55737D"/>
<path d="M428.85 299.89C419.01 299.29 406.63 302 399.63 317.41C386.7 345.85 361.18 357.76 342.47 339.53C327.77 325.22 302.72 327.08 284.74 343.27C291.86 329.66 300.4 319.08 323.46 310.13C328.81 308.07 333.51 306.24 337.63 304.64C352.82 298.75 360.39 295.84 365.03 294.46C368.31 293.487 371.427 292.577 374.38 291.73C402.8 283.57 416.9 281.66 428.85 299.89Z" fill="#55737D"/>
<path d="M434.42 383.14V410.14H426.66C426.66 410.14 422.08 391.99 402.36 353.95C403.49 349.56 404.36 345.33 405.06 341.58C417.8 347.16 418.89 358.97 417.5 365.64C416.21 371.85 422.76 387.07 434.42 383.14Z" fill="#415A62"/>
<path d="M328.33 360.82C326.33 371.28 317.62 389.62 302.07 415.82C299.681 419.621 296.967 423.207 293.96 426.54C289.988 425.943 286.05 425.141 282.16 424.14L287.08 410.19C289.87 399.4 295.08 394.59 306.3 392.43C316.26 390.5 307.92 360.04 328.33 360.82Z" fill="#415A62"/>
<path d="M278.23 442.64C278.23 442.64 286.66 434.92 293.96 426.53C296.967 423.197 299.681 419.611 302.07 415.81C317.62 389.62 326.32 371.28 328.33 360.81C328.957 357.57 328.94 355.087 328.28 353.36" stroke="#415A62" stroke-width="0.75" stroke-linecap="round" stroke-linejoin="round"/>
<path d="M407.04 327.89C407.04 327.89 406.51 333.64 405.04 341.62C404.36 345.37 403.47 349.62 402.34 353.99" stroke="#415A62" stroke-width="0.75" stroke-linecap="round" stroke-linejoin="round"/>
<path d="M287.07 387.73C287.44 411.78 259.99 436.03 244.94 406.27C238.65 393.84 222.94 335.83 224.04 327.89C225.04 320.82 245.72 305.08 254.21 308.16C254.21 308.16 257.76 317.5 262.64 329.42C268.85 344.59 277.21 363.97 283.09 373.59C285.659 377.862 287.033 382.746 287.07 387.73V387.73Z" fill="#55737D"/>
<path d="M276.141 360.37C272.881 366.82 269.141 374.25 265.481 381.37C262.991 376.82 262.541 370.12 267.841 363.87C274.581 355.94 253.481 342.1 262.641 329.4C266.661 339.24 271.581 350.81 276.141 360.37Z" fill="#415A62"/>
<path d="M276.271 360.12C276.271 360.2 276.181 360.28 276.141 360.37C272.881 366.82 269.141 374.25 265.481 381.37L262.051 388.1" stroke="#415A62" stroke-width="0.75" stroke-linecap="round" stroke-linejoin="round"/>
</g>
<path d="M336.4 243.06C331.4 261.11 326.95 270.99 357.74 273.01C357.74 273.01 377.28 251.01 374.62 219.07C374.62 219.07 357.21 205.07 342.13 232.34C342.13 232.34 336.6 234.46 335.97 235.21C335.34 235.96 335.76 240.62 336.4 243.06Z" fill="#FEBD9D"/>
<path d="M342.13 232.34C342.13 232.34 336.6 234.46 335.97 235.21C335.34 235.96 335.76 240.62 336.4 243.06" stroke="#F4A789" stroke-width="0.75" stroke-linecap="round" stroke-linejoin="round"/>
<path d="M346.34 236.21C347.058 236.21 347.64 235.628 347.64 234.91C347.64 234.192 347.058 233.61 346.34 233.61C345.622 233.61 345.04 234.192 345.04 234.91C345.04 235.628 345.622 236.21 346.34 236.21Z" fill="#683F1D"/>
<path d="M347.47 224.39C350.05 222.6 354.58 233.02 351.3 232.98C349.98 232.98 344.33 226.57 347.47 224.39Z" fill="#BF8228"/>
<path d="M402.36 312.53C400.84 327.37 393.58 333.28 394.99 338.29C396.4 343.3 399.87 342.21 399.87 342.21C399.87 342.21 397.11 350.21 386.52 347.02C386.52 347.02 377.26 361.16 368.52 351.02C360.62 361.81 343.97 364.02 343.46 349.22C343.46 349.22 349.89 350.83 353.17 346.66C356.45 342.49 357.17 335.54 353.61 331.88C350.05 328.22 344.88 324.56 344.55 318.45C344.22 312.34 348.73 301.62 355.28 293.65C355.28 293.65 329.14 286.28 327.21 308.65L321.99 310.65C321.99 310.65 316.42 307.96 316.55 298.97C316.68 289.98 324.89 283.38 333.83 283.54C342.77 283.7 364.34 279.82 353.83 252.59C353.83 252.59 362.41 255.73 364.65 248.86C366.89 241.99 359.12 238.33 354.65 242.17C354.65 242.17 350.99 236.52 361.84 224.08C360.63 220.14 356.44 219.08 358.24 215.08C359.7 211.86 368.86 211.86 375.74 213.25C377.217 213.543 378.671 213.944 380.09 214.45C384.031 215.85 387.465 218.396 389.95 221.76C391.44 223.75 392.422 226.074 392.81 228.53C393.798 228.124 394.862 227.933 395.93 227.97C398.09 228.05 400.73 229.26 401.67 234.31C403.04 241.62 398.03 245.31 394.67 247C393.735 247.464 392.757 247.836 391.75 248.11C392.485 250.399 392.823 252.797 392.75 255.2V255.2C392.707 256.768 392.496 258.327 392.12 259.85C390.69 265.56 387.59 275.5 388.96 282.41C389.111 283.247 389.352 284.065 389.68 284.85C392.49 291.71 403.88 297.69 402.36 312.53Z" fill="#BF8228"/>
<path d="M394.631 247.05C393.696 247.515 392.718 247.886 391.711 248.16C391.711 248.16 387.021 249.3 385.161 241.1C383.671 234.53 387.361 230.1 392.811 228.58C393.799 228.174 394.863 227.983 395.931 228.02C386.071 236.61 390.861 243.59 394.631 247.05Z" fill="#BF8228"/>
<path d="M402.36 312.53C400.84 327.37 393.58 333.28 394.99 338.29C396.4 343.3 399.87 342.21 399.87 342.21C399.87 342.21 397.11 350.21 386.52 347.02C386.52 347.02 377.26 361.16 368.52 351.02C360.62 361.81 343.97 364.02 343.46 349.22C343.46 349.22 349.89 350.83 353.17 346.66C356.45 342.49 357.17 335.54 353.61 331.88C350.05 328.22 344.88 324.56 344.55 318.45C344.22 312.34 348.73 301.62 355.28 293.65C355.28 293.65 329.14 286.28 327.21 308.65L321.99 310.65C321.99 310.65 316.42 307.96 316.55 298.97C316.68 289.98 324.89 283.38 333.83 283.54C342.77 283.7 364.34 279.82 353.83 252.59C353.83 252.59 362.41 255.73 364.65 248.86C366.89 241.99 359.12 238.33 354.65 242.17C354.65 242.17 350.99 236.52 361.84 224.08C360.63 220.14 356.44 219.08 358.24 215.08C359.7 211.86 368.86 211.86 375.74 213.25C371.14 216.07 368.06 220.5 370.62 227.43C376.91 244.43 375.14 252.61 369.69 259.87C364.24 267.13 358.08 281.87 363.32 293.65C368.56 305.43 360.86 300.01 363.17 323.32C365.48 346.63 394.97 332.43 394.05 313.44C393.22 296.28 382.81 290.51 388.88 282.44C389.031 283.277 389.272 284.095 389.6 284.88C392.49 291.71 403.88 297.69 402.36 312.53Z" fill="#BF8228"/>
<path d="M354.5 246.28C357.36 244.5 360.07 244.66 361.64 245.79" stroke="#F4A789" stroke-width="0.75" stroke-linecap="round" stroke-linejoin="round"/>
<path d="M354.75 249.07C358.96 250.88 359.75 245.46 356.31 245.39" stroke="#F4A789" stroke-width="0.75" stroke-linecap="round" stroke-linejoin="round"/>
<path d="M376.47 222.03C381.08 223.47 387.98 230.72 387.98 230.72" stroke="#7F542D" stroke-width="0.75" stroke-linecap="round" stroke-linejoin="round"/>
<path d="M392.811 228.58C387.361 230.09 383.671 234.53 385.161 241.1C387.021 249.3 391.711 248.16 391.711 248.16" stroke="#7F542D" stroke-width="0.75" stroke-linecap="round" stroke-linejoin="round"/>
<path d="M386.811 232.35C391.031 230.66 396.071 229.94 397.991 235.28C399.911 240.62 397.101 244.76 392.811 247.81" stroke="#7F542D" stroke-width="0.75" stroke-linecap="round" stroke-linejoin="round"/>
<path d="M365.58 235.61C374.18 238.19 385.07 237.51 385.07 237.51" stroke="#7F542D" stroke-width="0.75" stroke-linecap="round" stroke-linejoin="round"/>
<path d="M367.95 250.53C375.46 252.38 384.95 246.93 386.45 244.77" stroke="#7F542D" stroke-width="0.75" stroke-linecap="round" stroke-linejoin="round"/>
<path d="M384.91 239.65C386.13 236.29 389.58 234.08 392.14 237.4C394.7 240.72 390.86 244.24 387.75 240.57" stroke="#7F542D" stroke-width="0.75" stroke-linecap="round" stroke-linejoin="round"/>
<path d="M355.29 293.7C362.57 285.11 368.71 278.25 365.59 265.85" stroke="#7F542D" stroke-width="0.75" stroke-linecap="round" stroke-linejoin="round"/>
<path d="M368.58 351.07C372.99 344.33 366.18 334.43 365.14 327.9C364.1 321.37 363.87 313.18 372.07 304.29" stroke="#7F542D" stroke-width="0.75" stroke-linecap="round" stroke-linejoin="round"/>
<path d="M379.65 274.88C385.77 290.45 386.73 292.96 383.41 304.62C380.09 316.28 378.09 322.06 383.41 330.38C389.32 339.6 387.47 342.94 386.51 347.02" stroke="#7F542D" stroke-width="0.75" stroke-linecap="round" stroke-linejoin="round"/>
<path d="M352.51 241.73C352.9 243.85 350.87 246 347.99 246.52C345.11 247.04 342.46 245.75 342.07 243.62C341.68 241.49 343.71 239.35 346.59 238.83C349.47 238.31 352.12 239.6 352.51 241.73Z" fill="#F4A789"/>
<path d="M431.18 279.78V403.98H218.32" stroke="#DDDDDD" stroke-width="2" stroke-linecap="round" stroke-linejoin="round"/>
</svg>
