<?xml version="1.0" encoding="UTF-8"?>
<svg id="Layer_2" data-name="Layer 2" xmlns="http://www.w3.org/2000/svg" viewBox="0 0 262 169.98">
  <defs>
    <style>
      .cls-1 {
        fill: #cacaca;
      }

      .cls-2 {
        fill: #4e4e4e;
      }

      .cls-3 {
        fill: #fff;
      }

      .cls-4 {
        fill: #eebd42;
      }

      .cls-5, .cls-6 {
        fill: #363636;
      }

      .cls-6, .cls-7 {
        opacity: .1;
      }

      .cls-8 {
        fill: #e4ac35;
      }

      .cls-9 {
        fill: #202020;
      }

      .cls-10 {
        fill: #f1f1f1;
      }

      .cls-11 {
        opacity: .2;
      }

      .cls-12 {
        fill: #6b6b6b;
      }

      .cls-13 {
        fill: #f2cf7b;
      }
    </style>
  </defs>
  <g id="OBJECTS">
    <g>
      <path class="cls-12" d="M257,159.52H5c-2.75,0-5-2.25-5-5h0c0-2.75,2.25-5,5-5h252c2.75,0,5,2.25,5,5h0c0,2.75-2.25,5-5,5Z"/>
      <path class="cls-11" d="M232.82,154.97H24.22c-.66,0-1.21-.54-1.21-1.21h0c0-.66.54-1.21,1.21-1.21h208.6c.66,0,1.21.54,1.21,1.21h0c0,.66-.54,1.21-1.21,1.21Z"/>
      <g>
        <g>
          <g>
            <path class="cls-2" d="M82.79,153.47L60.29,3.52c-.04-.24.15-.46.39-.46h3.74c.2,0,.37.14.39.34l22.5,149.95"/>
            <path class="cls-2" d="M59.7,153.47L37.19,3.52c-.04-.24.15-.46.39-.46h3.74c.2,0,.37.14.39.34l22.5,149.95"/>
            <path class="cls-2" d="M59.48,131.05h21.21c1.17,0,2.12-.95,2.12-2.12h0c0-1.17-.95-2.12-2.12-2.12h-21.21c-1.17,0-2.12.95-2.12,2.12h0c0,1.17.95,2.12,2.12,2.12Z"/>
            <path class="cls-2" d="M56.41,111.25h21.21c1.17,0,2.12-.95,2.12-2.12h0c0-1.17-.95-2.12-2.12-2.12h-21.21c-1.17,0-2.12.95-2.12,2.12h0c0,1.17.95,2.12,2.12,2.12Z"/>
            <path class="cls-2" d="M53.35,91.45h21.21c1.17,0,2.12-.95,2.12-2.12h0c0-1.17-.95-2.12-2.12-2.12h-21.21c-1.17,0-2.12.95-2.12,2.12h0c0,1.17.95,2.12,2.12,2.12Z"/>
            <path class="cls-2" d="M50.28,71.65h21.21c1.17,0,2.12-.95,2.12-2.12h0c0-1.17-.95-2.12-2.12-2.12h-21.21c-1.17,0-2.12.95-2.12,2.12h0c0,1.17.95,2.12,2.12,2.12Z"/>
            <path class="cls-2" d="M47.93,53.74h21.21c1.17,0,2.12-.95,2.12-2.12h0c0-1.17-.95-2.12-2.12-2.12h-21.21c-1.17,0-2.12.95-2.12,2.12h0c0,1.17.95,2.12,2.12,2.12Z"/>
            <path class="cls-2" d="M44.86,33.94h21.21c1.17,0,2.12-.95,2.12-2.12h0c0-1.17-.95-2.12-2.12-2.12h-21.21c-1.17,0-2.12.95-2.12,2.12h0c0,1.17.95,2.12,2.12,2.12Z"/>
            <path class="cls-2" d="M42.51,16.03h21.21c1.17,0,2.12-.95,2.12-2.12h0c0-1.17-.95-2.12-2.12-2.12h-21.21c-1.17,0-2.12.95-2.12,2.12h0c0,1.17.95,2.12,2.12,2.12Z"/>
          </g>
          <g>
            <path class="cls-1" d="M19.09,153.47L41.59,3.52c.04-.24-.15-.46-.39-.46h-3.74c-.2,0-.37.14-.39.34L14.56,153.36"/>
            <path class="cls-1" d="M42.19,153.47L64.69,3.52c.04-.24-.15-.46-.39-.46h-3.74c-.2,0-.37.14-.39.34l-22.5,149.95"/>
            <path class="cls-1" d="M42.41,131.05h-21.21c-1.17,0-2.12-.95-2.12-2.12h0c0-1.17.95-2.12,2.12-2.12h21.21c1.17,0,2.12.95,2.12,2.12h0c0,1.17-.95,2.12-2.12,2.12Z"/>
            <path class="cls-1" d="M45.47,111.25h-21.21c-1.17,0-2.12-.95-2.12-2.12h0c0-1.17.95-2.12,2.12-2.12h21.21c1.17,0,2.12.95,2.12,2.12h0c0,1.17-.95,2.12-2.12,2.12Z"/>
            <path class="cls-1" d="M48.54,91.45h-21.21c-1.17,0-2.12-.95-2.12-2.12h0c0-1.17.95-2.12,2.12-2.12h21.21c1.17,0,2.12.95,2.12,2.12h0c0,1.17-.95,2.12-2.12,2.12Z"/>
            <path class="cls-1" d="M51.6,71.65h-21.21c-1.17,0-2.12-.95-2.12-2.12h0c0-1.17.95-2.12,2.12-2.12h21.21c1.17,0,2.12.95,2.12,2.12h0c0,1.17-.95,2.12-2.12,2.12Z"/>
            <path class="cls-1" d="M53.96,53.74h-21.21c-1.17,0-2.12-.95-2.12-2.12h0c0-1.17.95-2.12,2.12-2.12h21.21c1.17,0,2.12.95,2.12,2.12h0c0,1.17-.95,2.12-2.12,2.12Z"/>
            <path class="cls-1" d="M57.02,33.94h-21.21c-1.17,0-2.12-.95-2.12-2.12h0c0-1.17.95-2.12,2.12-2.12h21.21c1.17,0,2.12.95,2.12,2.12h0c0,1.17-.95,2.12-2.12,2.12Z"/>
            <path class="cls-1" d="M59.38,16.03h-21.21c-1.17,0-2.12-.95-2.12-2.12h0c0-1.17.95-2.12,2.12-2.12h21.21c1.17,0,2.12.95,2.12,2.12h0c0,1.17-.95,2.12-2.12,2.12Z"/>
          </g>
          <path class="cls-4" d="M64.47,3.78h-27.31c-.72,0-1.26-.67-1.11-1.38l.29-1.5c.11-.52.58-.9,1.11-.9h27.31c.72,0,1.26.67,1.11,1.38l-.29,1.5c-.11.52-.58.9-1.11.9Z"/>
        </g>
        <path class="cls-2" d="M181.32,135.85l-.99-4.8h0l-.38-1.84h0l-.39-1.89-2.23-10.79c-.13-.61-.67-1.06-1.3-1.06h-6.02l-1.12-7.58h5.83c.84,0,1.47-.77,1.3-1.59l-.99-4.8h0l-.38-1.84h0l-.39-1.89-2.23-10.79c-.13-.61-.67-1.06-1.3-1.06h-5.07l-.62-4.2c-.03-.2-.2-.34-.39-.34h-3.74c-.24,0-.43.22-.39.46l.6,4.09h-50.75l-.62-4.2c-.03-.2-.2-.34-.39-.34h-3.74c-.24,0-.43.22-.39.46l.6,4.09h-6.62c-.84,0-1.47.77-1.3,1.59l2.05,9.92h0l.77,3.73,1.17,5.67c.13.61.67,1.06,1.3,1.06h5.86l1.12,7.58h-5.67c-.84,0-1.47.77-1.3,1.59l2.05,9.92h0l.77,3.73,1.17,5.67c.13.61.67,1.06,1.3,1.06h4.91l2.29,15.57c.03.2.2.34.39.34h3.74c.24,0,.43-.22.39-.46l-2.28-15.45h50.75l2.29,15.57c.03.2.2.34.39.34h3.74c.24,0,.43-.22.39-.46l-2.28-15.45h6.78c.84,0,1.47-.77,1.3-1.59ZM165.46,115.47h-50.75l-1.12-7.58h50.75l1.12,7.58Z"/>
        <g>
          <path class="cls-1" d="M147.26,153.35h3.74c.2,0,.37-.14.39-.34l10.49-71.17c.04-.24-.15-.46-.39-.46h-3.74c-.2,0-.37.14-.39.34l-10.49,71.17c-.04.24.15.46.39.46Z"/>
          <path class="cls-1" d="M91.96,153.35h3.74c.2,0,.37-.14.39-.34l10.49-71.17c.04-.24-.15-.46-.39-.46h-3.74c-.2,0-.37.14-.39.34l-10.49,71.17c-.04.24.15.46.39.46Z"/>
          <g>
            <path class="cls-10" d="M92.37,107.9h71.53c.63,0,1.17-.44,1.3-1.06l4-19.32c.17-.82-.46-1.59-1.3-1.59h-71.53c-.63,0-1.17.44-1.3,1.06l-4,19.32c-.17.82.46,1.59,1.3,1.59Z"/>
            <g>
              <polygon class="cls-4" points="102.11 85.93 115.59 107.9 123.14 107.9 109.65 85.93 102.11 85.93"/>
              <polygon class="cls-4" points="92.45 99.66 97.5 107.9 102.84 107.9 93.79 93.17 92.45 99.66"/>
              <polygon class="cls-4" points="123.29 85.93 136.77 107.9 142.11 107.9 128.62 85.93 123.29 85.93"/>
              <polygon class="cls-4" points="138.9 85.93 152.39 107.9 157.72 107.9 144.24 85.93 138.9 85.93"/>
              <polygon class="cls-4" points="160.08 85.93 154.74 85.93 165.8 103.94 167.15 97.44 160.08 85.93"/>
            </g>
            <path class="cls-10" d="M87.07,137.44h71.53c.63,0,1.17-.44,1.3-1.06l4-19.32c.17-.82-.46-1.59-1.3-1.59h-71.53c-.63,0-1.17.44-1.3,1.06l-4,19.32c-.17.82.46,1.59,1.3,1.59Z"/>
            <g>
              <polygon class="cls-4" points="96.81 115.47 110.29 137.44 117.84 137.44 104.35 115.47 96.81 115.47"/>
              <polygon class="cls-4" points="87.15 129.21 92.2 137.44 97.53 137.44 88.49 122.71 87.15 129.21"/>
              <polygon class="cls-4" points="117.99 115.47 131.47 137.44 136.8 137.44 123.32 115.47 117.99 115.47"/>
              <polygon class="cls-4" points="133.6 115.47 147.09 137.44 152.42 137.44 138.93 115.47 133.6 115.47"/>
              <polygon class="cls-4" points="154.77 115.47 149.44 115.47 160.5 133.48 161.84 126.99 154.77 115.47"/>
            </g>
          </g>
          <path class="cls-6" d="M167.9,85.93h-2.85l-3.12,15.07c-.12.58-.63,1-1.23,1h-67.65c-.41,0-.76-.2-.99-.49l-.99,4.8c-.17.82.46,1.59,1.3,1.59h71.53c.63,0,1.17-.44,1.3-1.06l4-19.32c.17-.82-.46-1.59-1.3-1.59Z"/>
          <path class="cls-6" d="M162.6,115.47h-2.85l-3.12,15.07c-.12.58-.63,1-1.23,1h-67.65c-.41,0-.76-.2-.99-.49l-.99,4.8c-.17.82.46,1.59,1.3,1.59h71.53c.63,0,1.17-.44,1.3-1.06l4-19.32c.17-.82-.46-1.59-1.3-1.59Z"/>
          <g>
            <path class="cls-3" d="M95.29,120.02h3.79c.83,0,1.52-.68,1.52-1.51h0c0-.83-.68-1.52-1.52-1.52h-3.79c-.83,0-1.51.68-1.51,1.52h0c0,.83.68,1.51,1.51,1.51Z"/>
            <path class="cls-3" d="M150.09,128.6h2.52c.56,0,1.01-.45,1.01-1.01h0c0-.56-.45-1.01-1.01-1.01h-2.52c-.56,0-1.01.45-1.01,1.01h0c0,.56.45,1.01,1.01,1.01Z"/>
            <path class="cls-3" d="M111.2,90.47h3.79c.83,0,1.52-.68,1.52-1.52h0c0-.83-.68-1.52-1.52-1.52h-3.79c-.83,0-1.51.68-1.51,1.52h0c0,.83.68,1.52,1.51,1.52Z"/>
            <path class="cls-3" d="M102.11,100.32h4.55c.83,0,1.52-.68,1.52-1.52h0c0-.83-.68-1.52-1.52-1.52h-4.55c-.83,0-1.51.68-1.51,1.52h0c0,.83.68,1.52,1.51,1.52Z"/>
            <path class="cls-3" d="M154.38,91.99h4.55c.83,0,1.51-.68,1.51-1.52h0c0-.83-.68-1.52-1.51-1.52h-4.55c-.83,0-1.52.68-1.52,1.52h0c0,.83.68,1.52,1.52,1.52Z"/>
          </g>
        </g>
      </g>
      <g>
        <rect class="cls-1" x="186.1" y="48.35" width="4" height="105" rx=".42" ry=".42"/>
        <rect class="cls-4" x="164.6" y="11.35" width="47" height="47" rx="3.24" ry="3.24" transform="translate(79.73 -122.8) rotate(45)"/>
        <rect class="cls-3" x="168.48" y="14.72" width="39.23" height="39.23" rx="2.7" ry="2.7" transform="translate(79.37 -122.95) rotate(45)"/>
      </g>
      <g>
        <g>
          <path class="cls-4" d="M207.2,123.68c-.15-.44-.78-.44-.93,0l-3.48,9.75h7.79l-3.38-9.74Z"/>
          <path class="cls-4" d="M216.89,151.58l-2.85-8.2h-14.8l-2.92,8.2c-.11.32.12.66.47.66h19.64c.34,0,.58-.34.47-.66Z"/>
          <polygon class="cls-10" points="210.58 133.42 202.79 133.42 199.24 143.39 214.04 143.39 210.58 133.42"/>
        </g>
        <rect class="cls-8" x="193.35" y="150.57" width="26.6" height="2.78" rx=".65" ry=".65"/>
        <path class="cls-6" d="M219.35,150.58h-2.8l-2.49-7.2-3.45-9.96-3.37-9.74c-.15-.44-.77-.44-.93,0l-.45,1.27,7.81,23.97h-16.33l-.59,1.66h-2.81c-.33,0-.6.27-.6.6v1.57c0,.33.27.6.6.6h25.41c.33,0,.6-.27.6-.6v-1.57c0-.33-.27-.6-.6-.6Z"/>
        <g>
          <path class="cls-3" d="M206.74,134.53h1.11c.46,0,.83-.37.83-.83h0c0-.46-.37-.83-.83-.83h-1.11c-.46,0-.83.37-.83.83h0c0,.46.37.83.83.83Z"/>
          <path class="cls-3" d="M204.25,143.39h-2.21c-.3,0-.55-.25-.55-.55h0c0-.3.25-.55.55-.55h2.21c.3,0,.55.25.55.55h0c0,.3-.25.55-.55.55Z"/>
          <path class="cls-13" d="M209.5,148.37h1.66c.46,0,.83-.37.83-.83h0c0-.46-.37-.83-.83-.83h-1.66c-.46,0-.83.37-.83.83h0c0,.46.37.83.83.83Z"/>
        </g>
        <path class="cls-13" d="M205.91,130.65h-.55c-.3,0-.55-.25-.55-.55h0c0-.3.25-.55.55-.55h.55c.3,0,.55.25.55.55h0c0,.3-.25.55-.55.55Z"/>
      </g>
      <g>
        <g>
          <path class="cls-9" d="M83.43,153.11l.84.74c.23.2.55.26.84.16l1-.37c3.57-1.33,6.13-4.25,6.81-7.77l1.62-8.39c.06-.31-.11-.63-.42-.78l-1.4-.67c-1.38-.66-2.84-1.14-4.34-1.43h-.01c-1.44-.28-2.9-.38-4.37-.3l-1.8.1c-.35.02-.63.25-.69.56l-1.6,8.31c-.69,3.57.64,7.27,3.53,9.84Z"/>
          <path class="cls-1" d="M87.12,140.79h-.01c-.46-.09-.75-.53-.67-.99l10.61-55.02c.09-.46.53-.75.99-.67h.01c.46.09.75.53.67.99l-10.61,55.02c-.09.46-.53.75-.99.67Z"/>
          <path class="cls-5" d="M87.06,141.51h0c-.65-.12-1.07-.75-.95-1.4l3.08-15.99c.03-.14.16-.23.3-.2l1.84.36c.14.03.23.16.2.3l-3.08,15.99c-.12.65-.75,1.07-1.4.95Z"/>
          <path class="cls-7" d="M94.1,136.7l-.63-.3-1.46,7.57c-.68,3.52-3.24,6.44-6.81,7.77l-1,.37c-.29.11-.61.05-.84-.16l-.84-.74c-.91-.81-1.65-1.74-2.24-2.74.6,1.73,1.66,3.33,3.14,4.64l.84.74c.23.2.55.26.84.16l1-.37c3.57-1.33,6.13-4.25,6.81-7.77l1.62-8.39c.06-.31-.11-.63-.42-.78Z"/>
        </g>
        <g>
          <rect class="cls-4" x="96.96" y="83.1" width="1.93" height="3.51" transform="translate(17.85 -17.01) rotate(10.92)"/>
          <path class="cls-4" d="M95.93,76.85l-.9,4.67c-.19.96.44,1.89,1.4,2.07l3.23.62c.96.19,1.89-.44,2.07-1.4l.9-4.67c.09-.46-.21-.9-.67-.99l-5.05-.97c-.46-.09-.9.21-.99.67ZM98.58,82.48l-.5-.1c-.96-.19-1.59-1.11-1.4-2.07l.49-2.55,3.97.77-.49,2.55c-.19.96-1.11,1.59-2.07,1.4Z"/>
          <rect class="cls-5" x="97.88" y="76.53" width="2.83" height="1.83" transform="translate(16.46 -17.4) rotate(10.92)"/>
        </g>
      </g>
      <g>
        <path class="cls-11" d="M201.59,163.62h39.83c.45,0,.82-.37.82-.82h0c0-.45-.37-.82-.82-.82h-39.83c-.45,0-.82.37-.82.82h0c0,.45.37.82.82.82Z"/>
        <path class="cls-11" d="M29.3,163.15h39.83c.45,0,.82-.37.82-.82h0c0-.45-.37-.82-.82-.82H29.3c-.45,0-.82.37-.82.82h0c0,.45.37.82.82.82Z"/>
        <path class="cls-11" d="M54.75,169.98h92.07c.45,0,.82-.37.82-.82h0c0-.45-.37-.82-.82-.82H54.75c-.45,0-.82.37-.82.82h0c0,.45.37.82.82.82Z"/>
      </g>
      <g>
        <g>
          <path class="cls-4" d="M49.76,124.4c-.15-.44-.78-.44-.93,0l-3.48,9.75h7.79l-3.38-9.74Z"/>
          <path class="cls-4" d="M59.44,152.3l-2.85-8.2h-14.8l-2.92,8.2c-.11.32.12.66.47.66h19.64c.34,0,.58-.34.47-.66Z"/>
          <polygon class="cls-10" points="53.14 134.14 45.35 134.14 41.79 144.1 56.6 144.1 53.14 134.14"/>
        </g>
        <rect class="cls-8" x="35.9" y="151.29" width="26.6" height="2.78" rx=".65" ry=".65"/>
        <path class="cls-6" d="M61.91,151.3h-2.8l-2.49-7.2-3.45-9.96-3.37-9.74c-.15-.44-.77-.44-.93,0l-.45,1.27,7.81,23.97h-16.33l-.59,1.66h-2.81c-.33,0-.6.27-.6.6v1.57c0,.33.27.6.6.6h25.41c.33,0,.6-.27.6-.6v-1.57c0-.33-.27-.6-.6-.6Z"/>
        <g>
          <rect class="cls-3" x="48.46" y="133.59" width="2.77" height="1.66" rx=".83" ry=".83"/>
          <path class="cls-3" d="M46.8,144.1h-2.21c-.3,0-.55-.25-.55-.55h0c0-.3.25-.55.55-.55h2.21c.3,0,.55.25.55.55h0c0,.3-.25.55-.55.55Z"/>
          <path class="cls-13" d="M52.06,149.08h1.66c.46,0,.83-.37.83-.83h0c0-.46-.37-.83-.83-.83h-1.66c-.46,0-.83.37-.83.83h0c0,.46.37.83.83.83Z"/>
        </g>
        <path class="cls-13" d="M48.46,131.37h-.55c-.3,0-.55-.25-.55-.55h0c0-.3.25-.55.55-.55h.55c.3,0,.55.25.55.55h0c0,.3-.25.55-.55.55Z"/>
      </g>
      <path class="cls-2" d="M188.54,39.11h-2.3c-.26,0-.48-.21-.48-.47l-.41-18.01c0-.27.21-.49.48-.49h3.13c.27,0,.49.22.48.49l-.41,18.01c0,.26-.22.47-.48.47ZM188.93,45.39h-3.07c-.27,0-.48-.22-.48-.48v-3.07c0-.27.22-.48.48-.48h3.07c.27,0,.48.22.48.48v3.07c0,.27-.22.48-.48.48Z"/>
    </g>
  </g>
</svg>